<mxfile host="app.diagrams.net" modified="2023-06-26T19:14:39.269Z" agent="Mozilla/5.0 (X11; Linux x86_64; rv:109.0) Gecko/20100101 Firefox/114.0" etag="s5KTr0LPTp9DwoJQLeGN" version="21.5.0" type="device">
  <diagram name="Page-1" id="SMaHyDYw4mnQ9dVAztQX">
    <mxGraphModel dx="2222" dy="1188" grid="1" gridSize="10" guides="1" tooltips="1" connect="1" arrows="1" fold="1" page="1" pageScale="1" pageWidth="850" pageHeight="1100" math="0" shadow="0">
      <root>
        <mxCell id="0" />
        <mxCell id="1" parent="0" />
        <mxCell id="q2DEOxzTNB3AeLY3Q0kc-1" value="" style="shape=image;verticalLabelPosition=bottom;labelBackgroundColor=default;verticalAlign=top;aspect=fixed;imageAspect=0;image=data:image/png,iVBORw0KGgoAAAANSUhEUgAAB28AAAOlCAIAAADFBzv7AAAACXBIWXMAAA7EAAAOxAGVKw4bAAAgAElEQVR4Xuzdd3SU1dbH8d+kAoFAqEoXC10FQUApakjoQZqAUkUQrwVpYuyCCIpBsKJSpKkoRCDUBEQQRaVICWIFFAjSkxAgdeb+MWEyc8iQAAmkfD/rXXeds/d+Andz37We2XnmPJaYmBhvb28vLy8vLy9PT09PT08PDw+LxWL/TxVuVqs1JiamRIkStAIAACBfs9lsaWlp8fHx1113nX2dmpqampqakpKSnJyclJSUlJQUMvwta1qq178/Svr777/NH4Fs4P4ZAACgYHB3/+xlFsJJTExMlSpVzCgAAADyrb1791533XVmFDmE+2cAAIACxrh/Zpp8MSVKlJB04MABf39/M5dnpKSkREZGBgcHe3t7mzlIokXZQIuyRIuyRIuyRIuyRIuyRIuydJEW2Wy22NjY6tWrFy9e3EghB121++eL/FsXcnTGHTrjDp3JFG1xh864Q2fcoTPu5P3OuLt/Zpp8MfYv6Pn7++f23fCVSElJKVasmL+/f579H981R4uyRIuyRIuyRIuyRIuyRIuyRIuydJEW2Ww2q9Wq8zd4yCVX7f75Iv/WhRydcYfOuENnMkVb3KEz7tAZd+iMO3m/M+7unz2cNwAAAAAAAAAAZIppMgAAAAAAAAAga0yTAQAAAAAAAABZY5oMAAAAAAAAAMga02QAAAAAAAAAQNaYJgMAAAAAAAAAssY0GQAAAAAAAACQNabJAAAAAAAAAICsMU0GAAAAAAAAAGSNaTIAAAAAAAAAIGtMkwEAAAAAAAAAWWOaDAAAAAAAAADIGtNkAAAAAAAAAEDWmCYDAAAAAAAAALLGNBkAAAAAAAAAkDWmyQAAAAAAAACArDFNBgAAAAAAAABkjWkyAAAAcsivvyo11QwCAAAAKCiYJgMAACAn/PyzmjZVr15KTjZTAAAAAAoEpskAAAC4Yjt2qE0bnT6tRYv0xhtmFgAAAECBwDQZAAAAV2bPHgUFKTZWku69V6NGmQUAAAAACgSmyQAAALgCf/+twEAdOyZJzZpp6VIVLWrWAAAAACgQmCYDAADgcv37rwIDdfiwJDVsqBUrVLy4WYNcs2nTpsGDB9epU8ff39/X17dSpUohISFz5861Wq1maTYkJCSEhYW1atWqQoUKPj4+FSpUaNWqVVhY2JkzZ8xSAAAAFFZeZgAAAADIjsOHFRiof/6RpLp1tXq1SpUya5A7kpKShgwZMmfOHOdgTExMTExMRETElClTIiIiKlas6Jy9uE2bNnXr1u2w/RcDkqSjR48ePXp0w4YNkydPXrRoUdOmTZ3KAQAAUEjxbDIAAAAu3bFjat1af/0lSTffrDVrVLasWYNc07dvX2OU7Gzbtm0tW7Y8ffq0mXAjOjo6ODjYeZTsLCYmJigoKDo62kwAAACg8GGaDAAAgEsUG6s2bfTrr5JUrZrWrtV115k1yDVr16796quvHNvAwMBvv/02Ojr6o48+8vf3twf//vvvZ5991lFzcQ8//HBCQoJ9HRAQMH/+/D179sybN6/U+YfNExISBg0alHEBAAAACitOugAAAMClOH1a7drpl18kqWJFffONqlQxa5CbFi5c6Fj7+fmFh4fbh8h169Y9efJkaGioPTVr1qzXXnstICDAUZypDRs2bN682bENCwt78MEHJdWqVevs2bNDhgyxx3/++efvvvuuRYsWjkoAAAAUQjybDAAAgGw7e1adOunHHyWpXDmtXasaNcwa5LL9+/c71tWqVXM8jyzptttuc6zPnTu3cuVKx9Yd58ecLRZLt27dHNsePXpYLBbH1rkSAAAAhRPTZAAAAGRPUpK6dtX69ZIUEKA1a1SrllmD3FekSBHH+tChQ8nJyY7t3r17HWtJzg8du+NcU6VKFefZdKlSpSpVquTYZuenAQAAoGDjpAsAAABkQ0qKevbU6tWSVKKEVq/WrbeaNbgqmjRpsnjxYvs6Li5uyJAhY8eOLVu27A8//DB+/HjnyoMHDzpvM7Vv3z7Hunz58k6Z9IjjhzhXOktKSkpKSrKv4+PjJaWkpKSkpLgU5TT7z8/tPyU/ojPu0Bl36EymaIs7dMYdOuMOnXEn73fGZrNl+tdjmgwAAICspKWpXz8tWSJJxYppxQo1bmzW4Gp55JFHJk2adPLkSft29uzZs2fPdi1JFxcXZ4Yu4FxTtGhRp4wkFStWzLGOjY11ymSYMGHCq6++6hyJjIx0vjD3REVFmSFIojPu0Rl36EymaIs7dMYdOuMOnXEnL3fGZrOdOXPGjDJNBgAAQBasVg0erC++kCRfXy1dqubNzRpcRWXLll2yZElISMipU6fMnOTh4WG1Wu1r5zMxssNms2UZuVBoaOiIESPs6/j4+CpVqgQHBzufmJEbUlJSoqKigoKCvL29zVzhRmfcoTPu0JlM0RZ36Iw7dMYdOuNO3u+MzWbL9GECpskAAABwz2bTU09p1ixJ8vbWokUKDDRrcNU1b948Ojr6jTfeCA8Pt59E4eHh0bBhw2HDhk2dOnXLli32sjJlyrhclpmSJUsePXrUvj537pxr0iVSqlQpp0wGX19fX19f54i3t/fV+Vx01f6gfIfOuENn3KEzmaIt7tAZd+iMO3TGnbzcGZvNlunfjbfwAQAAwA2bTWPG6P33JcnDQ599pg4dzBpcIxUrVpw6deqBAwfi4uIOHjx4+vTpzZs3d+/efffu3Y6aW7NxtvUNN9zgWDvGyg5HjhxxrJ0rAQAAUDgxTQYAAIAbY8dq0iRJslg0e7a6dzcLkAf4+/tXqlTJfk7xokWLnJ8mvvfeezPq3GjsdAT2wYMHnY9RPnXq1KFDhxxb50oAAAAUTkyTAQAAkJlJk/TKK+nradPUp49zEtfWsWPHzJB04MCB0aNHO7ZNmza9/fbb7ev9+/dbnHz77beOsh49ejjWNptt4cKFju2XX37pWMu1EgAAAIUT5yYDAADgAu+/r2eeSV+//baGDHHJ4loLCwtbsWLFgw8+2Lx58woVKsTFxa1bt27SpEmOKbOHh8fEiRNdL8pcy5YtGzduvHnzZvt29OjRRYoUadSo0ZYtW8aMGeMou/POO1u0aOHYAgAAoHBimgwAAABXM2fqiSfS1+PH6+mnXbLIG3bt2hUaGmpGz5swYUKrVq3MqBszZ85s2rTpmTNnJJ06darPBc+hFy9efMaMGUYQAAAAhRAnXQAAAMDJ55/rkUfS188/r+eec8kizytVqtSnn376jOPR8myoV69eVFTU9ddfbyYkSddff31kZGS9evXMBAAAAAofnk0GAADAeYsXq29f2WyS9PTTGjfOLMg2m02//659+8x4rkpNtWzdWt7Dw+J1wU2uzaYzZ8xg/tW/f/+iRYuuX79+3759J06cSEpKKlOmTJ06ddq2bTto0KCAgADzgqw0a9bsjz/+mDZt2tKlS/fs2RMbG1uqVKnatWuHhIQMHTq0ePHi5gUAAAAolC640QYAAEDhtGqVevZUWpokPfqoJk+WxWLWZNsLL+j1181g7vOSmpmxgqh27dovv/yyGXWvevXqNvsvCdwrXrz4qFGjRo0aZSYAAACA8zjpAgAAANK336pLFyUnS1LfvvrggysZJZ87p7AwMwgAAAAgv8tD0+RNmzYNHjy4Tp06/v7+vr6+lSpVCgkJmTt3rtVqNUsvasCAAZasJCQkmJcBAAAUWps2qWNHJSZKUo8emjlTHpd/l5iSoi+/VFKSGQcAAACQ3+WJky6SkpKGDBkyZ84c52BMTExMTExERMSUKVMiIiIqVqzonAUAAEDO2LZN7dqlHyrcsaPmzdOFpw5nm82mrl21bJlLsGpVl21usp07d65o0aJSJg9WW606eNAMAgAAAMi+y/+okIP69u371VdfmdHztm3b1rJly19++aVEiRJmDgAAAFdi924FBysuTpJat9ZXX8nHx6y5FH/8YY6Sy5TRP/+4RHJPSkrqihVR7du39/b2NlI2m2JjVbq0EQYAAABwCa79NHnt2rXOo+TAwMAXX3yxbNmy33///ejRo+Pj4yX9/fffzz777Pvvv59xWfZ89913lStXNqOSn5+fGQIAAChs/vxTgYE6cUKSmjfX4sUqUsSsybaUFK1Zo1mzzHjz5mYEAAAAQD517afJCxcudKz9/PzCw8P9/f0l1a1b9+TJk6GhofbUrFmzXnvttYCAAEdxdlSuXLl69epmFAAAAPv3KzBQR45IUuPGWr5cV/br9r59tWCBGXzoIU2ebAYBAAAA5FOX/36VnLJ//37Hulq1avZRst1tt93mWJ87d27lypWObTZ17ty5VKlSPj4+5cuXv+eeeyZOnHjy5EmzCAAAoLA5dEiBgTpwQJJuvVWrVsnpHuwyHD+eySi5aVPNm6fy5c04AAAAgHzq2k+Tizh9ofLQoUPJycmO7d69ex1rSZs3b3beZsfOnTvj4uJSUlKOHTu2fv360NDQmjVrRkZGmnUAAACFx9Gjat1a9hutWrUUFXUlxwlv3KiwME2caMYl3XuvGQEAAACQr137aXKTJk0c67i4uCFDhvz7779nz55ds2bN+PHjnQp1MCdewn38+PHOnTtv3brVTAAAABQGJ08qKEi//SZJNWpozZoreXh45ky1aKFRoxQW5hJv2VKhoXr5ZZcgAAAAgPzu2p+b/Mgjj0yaNMlxAMXs2bNnz57tWpIuzv628WyoWbNm165dW7RoccMNN5w+fXrLli3jxo07fPiwPZuYmDhixIj169e7XpQuKSkpKSnJvra/AzAlJSUlJcWlKC+x/93y8t/wmqNFWaJFWaJFWaJFWaJFWaJFWcqBFsXHe7Zt67FzpyRblSqpq1apfHldwQ/85BPPC59OuOEG25o1qfb1Ffzsy3GRFtlstkzjAAAAALLv2k+Ty5Ytu2TJkpCQkFOnTpk5ycPDw2q12tfOZ2JcxPjx4ytVquQcady4cUhISP369R1/xIYNG2JiYipWrOhcZjdhwoRXX33VORIZGVmsWDHnSB4UFRVlhuCKFmWJFmWJFmWJFmWJFmWJFmXpslvkmZjY7NVXy+zZIykxIGBjaOiZX3/Vr7+addmzf3+JzZuv+/HHOmZCuuWW/StW7DSjV1GmLbLZbGfOnDGjAAAAQL5y5IjmzNF//6l4cXXvrvr1zYLcdu2nyZKaN28eHR39xhtvhIeH24+z8PDwaNiw4bBhw6ZOnbplyxZ7WZkyZVwuc8MYJTuCAwcOnOz0TvHt27dnOk0ODQ0dMWKEfR0fH1+lSpXg4GDndwPmNSkpKVFRUUFBQd7e3mYOkmhRNtCiLNGiLNGiLNGiLNGiLF1RixITPbt08dizR5KtTBnPNWta1a1r1mTbrl3q1csrMdHiHGzSxFq6tBo0sI0ZU7lo0crOqavmIi2y2WyxsbFGEAAAAMh1Z88qhx5UTUtTy5b644/0bViYduzQjTe61OS2PDFNllSxYsWpU6dOnTo1Pj7+9OnTAQEBxYoVS0xMHDJkiKPm1ltvdbriktWoUcN56+7jhK+vr6+vr3PE29v7wg8keU2++EteW7QoS7QoS7QoS7QoS7QoS7QoS5fTouRk9e6ttWslqWRJS2Sk9+23mzWXYulSJSaawRkzPM4PqD1dM1dbpi2y2WwXBgEAAIDc9fbb+uQTRUaqcg48b7F9e8YoWdKZM1q2TMOGZUSugrwyTXbw9/d3PAi8aNGic+fOOVL3Xtl7wffaX1x+XukreHc5AABAvpGaqoce0vLlkuTnp5Ur1bChWZNta9dq5UpdeJJEjRqqXdsMAgAAAIXanDmyH4Fw993asUOlSpkF7tlsmjlT69crNf2NJJL0338Za7vp0/XTT2YwpyQnmxHlkWnysWPHypUrZwQPHDgwevRox7Zp06a3n3+IZv/+/TfccIMjtW7dunvuuce+Xr169fr168eMGVOyZElHgaSYmJhZs2Y5thaLpeEVfI4CAADIH6xWPfywFi6UpCJFtGyZmjUza7JtxQp16GAGJY0cqSeflIf5Nj4AAACgEIuI0MMPp68HDrykUbKk99/Xk0+awQtFRys62gzmqjwxTQ4LC1uxYsWDDz7YvHnzChUqxMXFrVu3btKkSceOHbMXeHh4TJw40fWizJ07d27ChAnvvvtur1692rVrV7NmzcTExM2bN48bN875LX/t27cvX76803UAAAAFjs2m//1Pc+dKkre3vv5a538Bf3kWLTIjkiZP1vDhZhAAAAAo1DZs0AMPKC1Nkp54Qi+/bBZkJSLCjOQReWKaLGnXrl2hoaFm9LwJEya0atXKjLqXkJAwffr06dOnmwlJUpkyZaZMmWJGAQAAChKbTSNG6KOPJMnTU19+qbZtzRr3rFZ9/LF++klWa0Zw3bqMtZ2vr9q3N4MAAABAofbLL+rUKf1NI717a+pUWVzeX31xUVH68ENFRprxPCKvTJPdKVWq1JQpU/r3728m3PDz8/Pw8LA6f+5xVadOnc8///ymm24yEwAAAAXJiy/K/utzi0Vz5+r++82Ci3rttSyen2jZUo0bq2dP1axppgAAAIDC688/1bat4uMlqV07ffrpJR0Jt3+/2rd3OStZUo8euvnmjK2np/z9lZSks2czgrkhMVGTJ5vBPDFN7t+/f9GiRdevX79v374TJ04kJSWVKVOmTp06bdu2HTRoUEBAgHmBe0FBQQcOHFi6dOmGDRuio6MPHDhw+vRpX1/fChUq3HHHHV27du3evTuv8wYAAAXc669r/Pj09fTp6t3bJZsNS5aYEcOTT6p7dzMIAAAAFGqHDikoSEePStJdd2nhQvn4mDUX9d135ihZ0siRatLEDOY2m02xsXl1mly7du2XL/70i6vq1avbbDYzel7FihWHDh06dOhQMwEAAFAYTJmi559PX7/3XsarP7Jh2TJ98YXOnNFvv5kpZ+XKKTDQDAIAAACF2smTatNG//wjSfXra9kyFStm1rixdauee07//COn976lu+MONWpkBq+hPDFNBgAAQM74+OOMl+K9+aYef9wle1E//qiQEF34K/uHHlLFihnb0qXVs6cu5ctjAAAAQEF35ow6dNDu3ZJ0ww1avTr7d8xWq0JCFBNjxiUtWKD27eXpacavIabJAAAABcW8eXJ8PevllzV6tEs2K5GRmYySJb3yinjlBAAAAOBWcrK6dtWPP0pShQqKitL115s17v3zT+aj5Kee0gMPmMFrjmkyAABAgbBwofr3T58Hjx598Zfo/fuvxo7V3r0uwb/+ctnaNW+uG280gwAAAADSpaWpXz9FRkpSyZJavTo7N9CJiXr33dsHD/ZKSlJampmVVKqUBg82g3kB02QAAID8b/ly9e4tq1WSHn9cb7whi8WscXL//frlFzPorHlztW2rSpXUrdvFfxIAAABQiNlseuIJLVggSUWKaNky3XabWZOZjz7yWLu2mhmV/P01c6Z8fdW0qcqWNbN5AdNkAACAfG7tWnXrlv7u54ED9c47Fx8AnzyZxShZUufOGjXKDAIAAABw8fLLmjZNkjw9tXChmjc3CzKTlqaNGzO/Y69ZU926mcE8hWkyAABAfrZxo0JClJQkSb166ZNP5OFhlKSk6JVXtHatUlIkKTnZyJtKl87rt7AAAADAtTd1qsaNS1/Pnq0OHVyyboSFaexYxcebN+2SfHz00ktmMK9hmgwAAJBvbd6s9u119qwkde6sOXMyfd/z5Ml6/XUzaOftrbAwl4ifn4KDVbmySxAAAACAi7lz9fTT6eupU/XQQy5ZNw4dyuQrgKNGqUsXWSyqU0clS5rZvIZpMgAAQP60c6fatNHp05LUpo0WLJC3t1kjSdqwwYw4VKmiJ580gwAAAAAuJiJCAwemr196SU895ZJ1w2bTypVmUFK7drrrLjOYZzFNBgAAyId++01BQTp1SpJatVJ4uHx9nfMbN+rFF3XwoKT0/8zU8OFmBAAAAMDFfPedHnhAaWmS9L//6ZVXjHym9u9Xmzb64w8z3ru3WrY0g3kZ02QAAID8Zu9eBQbq6FFJatpUEREqVsw5n5yskJD0UbPhiSfUuLEkWSyqX1+3324WAAAAAHBr+3Z17KjEREnq1UvvvnvxN2A7vP22OUoOCEjcs8ezQoXMv1+YZzFNBgAAyFcOHFBgoGJiJKlBA61cqRIljJI//sh8lCzpoYfUtKkZBAAAAJC1v/5S27aKj5ektm01e/aFb8A2JCVpxw4lJ+unn8xUo0b/lS5dyYzmeUyTAQAA8g3fU6e82rTR/v2SVKdOQnjk/54qtXatUlJcyoytwz33pD+YDAAAAODSxMQoKEhHjkhSs2ZauFA+PmaNq7171bKlDh0y45KaNLH27Pm7xDQZAAAAueT48bteftny77+SdNNNWrPmzQ/Lzp1rVhkqVNBHH0lS2bK68055epoFAAAAALJw8qQcT3XUq6dly+TnZ5Rc6KOPMh8lz5+vHj3SVqxINBP5AdNkAACA/CA21qtDB3/7KLlqVa1dq+uv37zZrLpQ7drq3NkMAgAAAMiuM2fUsaOioyWpenWtXq3Spc0aV/v2ads2bdxoxu3y9dFzTJMBAADyvIQEtW9v+eUXSce8r2/13zd7b6kqKTnZLDT4+io01AwCAAAAyK7kZHXvrk2bJKl8eUVFqWJFs8bVkiXq1k1paS7BIkVUpIjKltWoUapRw+3ZdHkf02QAAIC87dw5hYTY719PeJZtmbL2N91o1kivvKKWLV0iHh6qXz/LxyYAAAAAuGG1qn9/rVolSf7+Wr1aN91k1lxgyhRzlCzpgw80cKAZzI+YJgMAAORhSUnq2lXr1kmylSrVJmHVb6pt1kiSOnVSw4ZmEAAAAMBlstn01FP64gtJKlJEy5bp9tvNGknS6dNavlxHj6Zvd+92ydo1a2ZG8immyQAAAHlVaqp697Y/ChGvEq1jV2/VHWaNJKlXLzVoYAYBAAAAXL5XXtH770uSp6e++kotWpgFkqS0NN1zj7ZtM+N21aqpUiU9/rhq1TJT+RTTZAAAgDwpLU39++vrryWdVdEOWr5Zdzrn16xRQIAklS2rqlWdMwAAAACuzDvvaOzY9PWsWerY0SXrZOtWt6NkSUuX6tZbzWC+xjQZAAAg77Fa9eij+uwzSUny6awlG+XyKETp0mrVSl7cygEAAAA5bv58DRuWvp4yRX37umSdxMfrxRfNoMN116lOHTOY3/ERBAAAII+x2fT005oxQ1KKvLpr4RoFOed9fRUWxigZAAAAyAXLl2vAgPT1Cy9kjJUz06mTNmzI2Pr7q1Gj9HWlShozpgDetBe4/0IAAAD5ms2m0FC9+66kNHk8qM+WqZMj+eyzP/fr16B6de+iRTOuAAAAAJAzNm5U9+5KTZWkoUMzDrvIzMGDLqNkSU2bavVql0jBwzQZAAAgL3ntNb3xhn05ULMWqocj4+Vlq1fv+E03ydvbEQMAAACQQ3buVMeOSkyUpJ499d57sljMmvPS0vTqq2awU8ZzIAUW02QAAIA8IyxML71kXw7Vh3PVz5EpVkxjx1qLF09xRAAAAADkmL//VnCw4uIkKThYc+bI09OscTJ2rKZPd4nMnJlxQkYB5mEGAAAAcE188IFGjbIvh2vyRxrqyDz1lE6d0lNPWR0RAAAAADnm8GEFBenIEUlq2lTh4fLxMWtcLVnisq1TRwMHXuRR5oKDZ5MBAACuPevMTz0ef9y+fl6vTdFw5+x998nHRyk8lwwAAADkuFOn1KaN9u2TpLp1tXy5/PzsmchITZ+e/ryyv78GDVLbtpL05ZfaseP85ZKk3r1dtgUY02QAAIBrLGHGgqKPDLKvX1fo63rekSpSRH37qkMHRwAAAABAzjl7Vh07atcuSapeXatXq3Rpe+bPP9W+vdLSMmrDw7V7t/77Tz17ZgQlDR+u5zNu4Qs4pskAAADX1JIlRYf08ZRV0hQNe17jHZmPP9bDD1/8uDYAAAAAlyslRd2764cfJKl8eUVGqlIlR3LdOpdRsiSrVevWKSbGJSjpqacKxRkXdkyTAQAArpm0FastPR7wtKZK+liDh+ttKeM+tFEjRskAAABA7rBaNWCAVq6UJH9/rVqlm292JI8d06OPOnYZxo41D6Br3VrVq7tECjamyQAAANfG2VXrPTp2KWJLljRXfR7Th5LFw0Pe3goI0FNP6fbbzUsAAAAA5ACbTcOG6bPPJKlIEUVEqEED5/zQjFdiu/jvP5dtjRpautQlUuAxTQYAALgWfvzRu0tHb9s5SQvVbaBmWeUp6ZVX9OKLZi0AAACAnDR2rN57T5I8PbVggVq2NPIbNxqBzI0cqaJFzWDB5mEGAAAAkNt++cXWtp13YoKk5Wr/oD5LO/87/kaNXAoBAAAA5LD33tMrr6SvZ85USIhzUlJ4uI4eNWKZqFpVXbuawQKPZ5MBAACurl9/TWsd7BkXK2mt7uumRSnykVSjhvr1U9u2ZjkAAACAHPPZZ3ryyfT15Mnq188lK8XFqVs3l8imTbrxRm3cqMTEjGDx4mrRQqVKZUQKCabJAAAAV9Gffyow0PPkcUkbdXdnLUlSEUmPP57+TTsAAAAAuWXlSvXvn75+/nkNH+6SlSTt2uWy9fVV/fry81OXLi7xQouTLgAAAK6Wf/5RYKD9zR2b1aiDlp9RcXvmrrtcCgEAAADksO+/V7duSk2VpEcf1bhxZoF05IhatHCJjBkjPz+XSCHHNBkAAOCqiIlRYKAOHJC0U/XbalW8Stozr7yiXr1cagEAAADkpJ071bGjzp2TpB499P77sljMGmnCBJdtyZJ69VWXCDjpAgAAIPcdO6bWrfX335J+U80gRZ1UGXtmyhQNG+ZSCwAAACAn7d2rNm0UGytJQUGx7849HeNp1kiSNm922QYFuWwhpskAAAC57tSppFZBvnv2SNpnuaG1bc1RVXAkjW/SAQAAAMhJ//2noCD7cXPWO5sMLBE+5zpfs0wN7qYAACAASURBVMaNF14wI+CkCwAAgNwUH3+2ZVvfPTskHVDl+2xrD6myPVOunObNU8OGLuUAAAAAckxsrNq00d69klSnztrhy+eEp7+5JEuLFum228wgeDYZAAAg15w9q44di0X/LOk/VQjU2v26wZHcvl0VK2bUAgAAAMhJZ8+qY0ft3ClJ1aodmhU5Y3L6cXPZceutZgRimgwAAJBbEhPTQu73/O47SSdUurXW/KlbHMnatXX99Rm1AAAAAHJSSop69ND330tSuXIvNol8rUkls8aNYsX0zDO66SYzDjFNBgAAyBUpKXrgAc+1UZLi5B+syN2qJ+nGG1WtmqpX1wsvZPoSaQAAAABXzGrVwIFasUKSSpQ4NGPVayEZD3bY9e+vd94xYumKFpW3txmEHdNkAACAnJaWpj59FBEhKUF+7bRym+6wZ0aN0tChLrUAAAAAcpLNpqef1vz5kqw+vj+Mifh2RybvKmnSRP7+ZhBZYpoMAACQo6xWDRqkL7+UdE5FQrR0k+6yZ7y9FRjoUgsAAAAgh732mt59V1KqPLsmfxnxQisjX7q0unTRww8bYWQL02QAAICcY7Pp8cc1e7akZHl3Vfg63WfP9O+vAQN0880u5QAAAABy0gcf6KWX7MtBmhGhENe0mjTRjz8aMVwCpskAAAA5xGbTqFGaNk1Sqjx76YtVamfPVKmiTz91LgUAAACQ0z7/3PbEE/a3k8xvGDZnW38jL6lZMzOCS8I0GQAAIIe8/LImT5Zks1j62eZ8ra6OzP33Z1QBAAAAyHmrVqlfP4vNJul1hT6/bYQjU6yYrr9enp5q3lxjx2ZcgcvANBkAACAnTJyocePsy8G2Tz7Xg45Mnz4KC3PsAAAAAOS0H35Q165KTZX0sQY/r/HOyfvvt7+TDznAwwwAAADgUr3zjkJD7cuvWrwzQ4Ock+PGydvbOQAAAAAg5+zaldaug86dk/SVuj+mDyX7cRfp7kt/lQlyAM8mAwAAXJnp0zVsmH35c9eJD4Q/6Zxs3FjVqjkHAAAAAOScfftSW7fxio+VFKXWfTTPKk9Jnp666y75+Kh9ez38sHkRLhvTZAAAgCswf76GDLEvf277YpPwMc7J8uW1apUsLg9GAAAAAMgh//2noCCvo4cl/aQ7u+jrZPnaM5UqacMGl1rkCE66AAAAuFzh4erfXzabJI0c+ZL1VSM/aZJKlzZiAAAAAHJCbKzattXff0v6VbU7aPkZFXckO3bMKEQO4tlkAACAy7JihXr1UlqaJNvQxz6oPml1mMtDyGXLqm1b5wAAAACAHHL2rDp10o4dkv5R1WBFnlBZSbfcogYNdPvtGj7cvAI5gmkyAADApfvmG3XrppQUSerff/rt7z0x1GWUfNddmj9f5cs7xwAAAADkhJQU9eypjRslHVW5YEUeUmV7pm9fvfCCSy1yFiddAAAAXKIfflBIiBITJemBBzRjRuQa857qrbdUvboRAwAAAHDFrFY9/LCWLZMUrxLttPIP1bRnfHwUEuJSixxnfvIBAADAxWzdqnbtdOaMJIWEnPtk3jOhngsXupTUr6/GjV0iAAAAAHKAzaYRIzRvnqRE+YZo6Tbd4Uh+/71uvTWjFrmBaTIAAEC27dql4GDFx0tSUJAWLHjuZe9Jk1xK7rtPGzbIi+PEAAAAgBw3frymTpVk8/DopS/W6x5HZuhQNWrk2CG38EEHAAAge37/XUFBOnlSklq21OLFKlLk22+NIj37rEqVMoMAAAAALsnKlZoyRSdOZES6Hfsw9N8X7evQstOXHL3fkfL21kMPOXbIRUyTAQAAsmHfPgUG6sgRSbrzTi1bdjiu2IhB2r7dpapePbVs6RIBAAAAcKliYtSpk9LSMiIPaMEYPW5fj9KksKMDM3LS1q2qX985gNzCSRcAAABZOXhQgYE6dEiSbr9dq1apRIlBg/TFFy5Vw4frhx/k6+sSBAAAAHCpNm1yGSUHa/Vc9fWQTdJEjQnTqIycFBLCKPnqYZoMAABwUUeOKDBQ+/ZJUu3aioxUQICkjRuNOg0bphIlzCAAAACA7IuL00MPqXv3jEgT/Riurj5KkfSJHgnVhIyc5OWlxx5zDiB3cdIFAACAeydOqHVr/fGHJN14o9asUblyhw9r8GCdPu1S2L27qlVziQAAAAC4VC+/rM8+y9jWVfRqz/Z+aWcl/dOoa5HHp832sDiynp5q0kQ33ZRRj9zGNBkAAMCNuDi1aaPoaEmqUkVr16piRUmPP67ly10Kv/pK92e8AgQAAADAZfr554x1de2LVHDJtFOSFBhYbflnfX09M9K4FjjpAgAAIDMJCWrfXlu3StL11+ubbxzPHv/0k3Od/PzUubO8+B09AAAAcFnef1/XXScPD3l4aNOm9GB5HYlUcEUdlqRGjfT117yiJC9gmgwAAHCBc+fUubN++EGSypbVmjX2r8999ZVq1VJMjEvtmDHy9naJAAAAAMimgwf1xBM6ckQ2m2y29KC/4lap7c36S5Jq1dLKlbyiJI/gKRoAAABXycnq3l3ffCNJpUopMlJ16kiKi1OfPkpOdqmNiFDHji4RAAAAANmUmKg1a8xgEZ1bqpAG2i5JVaooMlJly5pFuEZ4NhkAAMBJaqp699aKFZJUvLhWrVKDBvbM7t3mKNnHR/fc4xIBAAAAkE0vvKCSJTVwoEvQSykL1LOVNkhS2bKKjFSVKi4VuKaYJgMAAJyXlqYBAxQeLklFi2rZMjVpImnHDt12m+6+26jWs8+qeHEzCAAAACBLf/+t8ePNxzXuaGA92mlQiCIkqXhxrVypWrVcKnCtcdIFAACAJMlm09Chmj9fknx8tHixWrWyZ554Qjt3OpdK0sGDqlTJDAIAAAC4uCNHdPiwNm4045JtYsrIgIi5kuTjoyVL1KiRWYJrjWkyAACAZLPp6ac1fbokeXnpq68UHGzPJCRkcqfbtSujZAAAAOCSjRypyZPNoN3U6ya0jp4iSR4e+uIL3XefWYE8gJMuAABAoWez6bnn9M47kuThoXnzFBIi6ddfVbt2Ju+OLltWzz9vBgEAAABc3KFDmY+S69bVmckfPfXf+ZvsTz5Rly4uFcgzeDYZAAAUeuPHa+LE9PXMmerZ074MDdVvvzmK0n3zjZo3l7e3GQcAAABwEX/9pRkzzKDdyKpfFRv5WPrmzTf18MMuaeQlTJMBAEDhNnmyXnwxff3BB+rfX9LJkzp7Vjt2ONdJUkCAWrSQFzdQAAAAwKWYNEnPPGMGvb3l5aXhdSMHrHlINpskPfOMRo8265CX8GEIAAAUYtOmaeTI9PVbb+mxxxIS1LWroqJcquyKFdOUKYySAQAAgEtjtWr8eDPYoIG2bZN+/FGBXZSSIkmDBmV8ZRB5FZ+HAABAYTV7th47/326sWPtY+Uvvsh8lLx0qdq0kY+PGQcAAABwcYcOKS7ODDZpIu3erQ4ddPasJHXpomnTZLGYdchjmCYDAIBC6csvHcexHRs05miXF7Rbkn74wbkona+v7rmHUTIAAABwyVJSPG67zWUCWbasgoI0ceh+BQfr5ElJuu8+ffYZXwPMF/hHAgAAhU9EhO2hhyxWq6R39OSwGRM0w+1DEKVK6c03VaKEGQcAAACQpejoMgkJGTfbXl46elSWY0fVPFgxMZLUqJEWL1aRIo4a5GVMkwEAQCETFaXu3S2pqZKma9DTmiJlPkp+9lmFhsrPT56eZgoAAABAdmzZcp3ztlUrWeLj1Lat/vxTkmrW1IoVPLuRjzBNBgAAhcmGDercWcnJkubrwUf1kU0eZs15d94pf38zCAAAACCbvv3Wsnx5DefIvE/OKSREv/wiSZUrKzJS5co5FyCPY5oMAAAKjZ9/VocOOndOUri69NdsqzJ/6tjPT/36qVMnMw4AAAAg+z7/3OXRjV7dU697upc2bJCkMmUUGamqVZ0LkPcxTQYAAIXD9u1q00YJCZJWqF1vfZ52/kaodWtFRbnUAgAAALhCycmaNStjmmyRddzhR/T9UkkqXlwrV6p2bUcW+YXbr3YCAAAUHHv22IKCFBsr6Rvd202LkuXrSDZsmFEIAAAAIEf873/OO9uc8qNv+n62JPn4aPFiNW7snEZ+wTQZAAAUdH/9lXZvoOX4cUk/qFmIliaqqCPZvbueey6jFgAAAECOWLgwYz1Gb/Q5OlmSPDz0+ecKDMzIIV/hpAsAAFCg/fuvAgM9jxyWtFUN22nlGRV3JFNS5MXdEAAAAHDF9u/X22/r4MH0rc2muLj09WB9PFGh6ZuPPlLXrulr5EN8fgIAAAVW2sHDyXcHFj34r6RdqhesyHiVdGTvuINRMgAAAJADrFYFBemvv8y4pG5aOE1D0zcTJ+qRR1zSyG/4CAUAAAqoY8cO121dOf4vSb/rliBFnVQZScWLKyBAtWrpnXfMKwAAAABchr/+ynyU3FpRn+lBD9kkadQoPfOMWYH8hnOTAQBAQXTqVPK9wZXjf5W0T9Vba80RXWfPDBumf/9VZKRq1XK5AgAAAMClOnJEgwapZk0zLqmxfv5aXXyUIkkDB+rNN2WxmEXIb3g2GQAAFDinTye0bFd893ZJB1UpUGsPqooj2aJFRiEAAACAK9GvnyIjXSIlS2rkSJU9tqf/9HbFzp2RlNopxOvjjxklFwxMkwEAQMFy9uyhhp0q/fWTpCMq31pr9qmGt7duuUV+fnroIQUHm1cAAAAAuAw2m7791gzWrKkX+/2ju4N07qSkY/XqlZo/jzeWFBj8QwIAgAIkKUldulT6a72kkwoIUtTvqiWpVi3t3GnWAgAAALhsH3ygt99WcrIZH9n3qIKDdeiQJFuDBj+PHh1cpIhZhHyLc5MBAEABYU1K+a9VT/sX7eLkH6zIXbrVnrr3XpdKAAAAAFdi82Y9/rj55r1Jk7Tju/gHZrXTH39I0i23pEZEpBYr5lKEfI5nkwEAQIGQlra9ft+Gfy6RdEbF2mvFVjWSVLq0Bg7UuHFmOQAAAIDL9uOPZsTfX8MfS/Ts2FnbtklS5cqKjFT58mYd8jmmyQAAIP+zWm2PPNLwzwWSEuUboqU/6G57Jjpa11/vUgsAAADgsn33nYYO1a+/mvHQ0amefXqnn6NcpowiI1WtmlJSjDLkd5x0AQAA8jmb7VC3Jy2ffiopWd7dtOgbBdoz9erpuuucSwEAAABcPptN/fqZo+Ry5fT7b7Zn9w7R4sWS5OenFStUu7ZLEQoKnk0GAAD5mc32e+dnakZ8IClNHr31+Qp1kBQUpBtvVGioLBbzCgAAAACXwWbTv/9q/34z/tSTtlumP6NZsyTJ21uLF+vOO80iFBRMkwEAQH726qs1I96SZJWlv2aHq5skLy+tWiUPvoIFAAAA5JAdO9S1q/buNeM1a+qpxDf11luSZLHos8/UurVZhAKEaTIAAMg3tm3TokVKSEjf3rf1zc7fv2pfD9W0+epjX7dvzygZAAAAyEnPPpvJKDk6WrU3fuIx9Nn0/bRp6t7dpQIFDtNkAACQP/z2m+6+W4mJ6dvH9V5njbGvh2nKJxpiX7/8skaMSK8BAAAAcOUSE7VqlRmsW1d1f1uk/w1N37/+uoak35OjAGOaDAAA8oeIiIxR8kDNfE9P2tehev0dDbOv167Vffel1wAAAAC4citXZvLAcZkymt1vrR58UFarJI0cqWfPP6GMAo1pMgAAyAciIvTMM+nrXvp8uh6xr1/T8xMVal9XqKBmzdJrAAAAAOSI557T2bMukbVrdY/fZo/W9ys5WZIGDNCkSbz/upBgmgwAAPK65csVEpK+vl9fz1VfD9kkrak//EDTcUMsklSunB5+WEWLZlwFAAAA4EqkpWnHDm3f7hIsXlx3BezxCGqX/j6TkBB98gmj5MKDaTIAAMjrli5NX7TRqgXq6aU0SXr00dYfhrXmthUAAADIBcnJCgrShg1m/PM3/i0SEqwTJySpVSt98YW8GDAWIvxjAwCAvOvffxUWpo8/lqRW+vZrdfFRiqRTHfsGfPABT0AAAAAAuWT9+kxGyf/tOlahe7AOHpSkBg20ZAlfDyxsmCYDAIA8ymZTmzb67TdJaqpNy9SxqBIlnQrqEfD1THl4GPUAAAAAcsThw5o0yQzWqnS6/IB2+v13Sbr5Zq1apZIlzSIUdEyTAQBAHrV/f/oouYG2rVLb4joj6VDDjpWWzePLdAAAAEAuiY5W8+aKi3MJtmqSuCS1s2XrVkmqVElRUSpf3qUChQOfxAAAQJ6zdKlmzVJMjCTVVXSkgksqXtIGn9b1Ir6Sj49RDwAAACCnfPqpOUp+8IHU+cm9tXidJJUurchIVavmUoFCg6+IAgCAvGXnTt1/vxYv1s8/62b9sUaty+qEpJgazW+KXly6YhHzAqCwWrly5YABA+rVq1eyZEkvL69ixYpVrVq1bdu2U6dOjY+PN6vdGzBggCUrCfaXtgMAgAItPl5z5igszAjbXjjwqBYvliQ/P61YoTp1jAoUHjybDAAA8pZ162SzSVI17V+rwOt0RFJ0scb1flkufz+jGCic4uPje/ToERkZ6Rw8d+7cgQMHDhw4sHr16vHjx4eHhzdv3ty5AAAA4CKsVt17r7ZtM+Mb73629vczJcnbW19/rSZNzAoUJjybDAAA8orYWN+HH/Z8+mlJqqhD3+i+KjooaYdu3TJulfz9jXqg0Bo+fLgxSjYcO3asS5cusbGxZgIAAMCN7dszGSX/1O3Nu79/U5IsFs2fr6AgswKFDM8mAwCAvOKddxps2+YhqbyOrFVgDe2TdLJCreQZUQM6lDargcIqOTl5/vz5jm3JkiXffvvtpk2bHj169KWXXtqwYYM9fvz48WXLlvXp08dRmR3fffdd5cqVzajk58c3AwAAKJiSkzVrln7/Xf/8Y6YGe8y4c9GY9M2HH6pHD5c0CiWmyQAAIK+Iji4jKUAnoxRUS79LOhlQo/TWNaUr8bZoIMPJkyeTkpIc25EjRw4cOFBS7dq1582bV7VqVUfq0KFDjnU2Va5cuXr16mYUAAAUXEOGaPZsMyhpcovwp78fkr4ZP16PPuqSRmHFSRcAAOAas9k0ebJuvdUrOdnLX3Gr1eZW7ZJ00KNK3KK1qlTJvAAo3MqXL1+sWDHHtkiRjFdTOq8lVbv0l6137ty5VKlSPj4+5cuXv+eeeyZOnHjy5EmzCAAAFBQ2mxYsMIOSht/2zfCfelusVkkaPlyhoWYFCiueTQYAANfY2rUaOVKSpZjOLFeHxtoi6Yz/dUVWra3crLpRDMDDw+Oxxx4LO/+29alTpzZp0qRx48bHjh0bNWqUo6xSpUqdOnVybLNp586d9sWxY8fWr1+/fv36sLCw+fPnBwcHuxYCAID8JypKCxbozJmMSFqaEhMztnZ3aMvE3zorOVmS+vXTW2/JYjGLUFgxTQYAANfYpk2S5KvEJercXN9LOqEyJTes8bvtZqMSgN3rr79++vTpTz75xGazHTp0qFWrVkbBzTffHB4eniOHHR8/frxz584bN2684447zJwkKSkpyXHyRnx8vKSUlJSUlBSXopxm//m5/afkR3TGHTrjDp3JFG1xh864ky86s2WLpW1bT6v1YnPhPn2s1RP3PL+qnU9CgiRrhw5pH36otDSlpZml2ZMvOnNN5P3O2Gy2TP96TJMBAMA1k5ys4cP1wQfyVvJCdW+ttZJiVXLhkMhHb6trVgM4z8fH58MPP6xfv/7w4cNTU1ON7AMPPDBjxozixYsb8YuoWbNm165dW7RoccMNN5w+fXrLli3jxo07fPiwPZuYmDhixIj169e7XpRuwoQJr776qnMkMjLS+SyO3BMVFWWGIInOuEdn3KEzmaIt7tAZd/J4ZxYsuMVqrW1GnXh7pz3UclbL50KLJByXdLxu3U39+llz4r9UHu/MNZSXO2Oz2c44P8d+HtNkAABwzXz8sT74QJ5Kna+HOmq5pARL8RNzVw15sKFZCsDJ/v37u3Tpsn37djMhSfryyy+/+eabefPmtWnTxsxlZvz48ZVcDyhv3LhxSEhI/fr1T506ZY9s2LAhJiamYsWKzmV2oaGhI0aMsK/j4+OrVKkSHBzs7+/vWpXDUlJSoqKigoKCvL29zVzhRmfcoTPu0JlM0RZ36Iw7ebkz4eGWOXM8EhK0d+/FnkqW9Gi3E23C3rIcPy7JdtttJdesaVuypFl0ifJyZ66tvN8Zm80WGxtrRpkmAwCAa+jnn2WRdaYe7qGFks6pyMr/LenxUFOzDoCTtLS0Dh06/Prrr/Zt1apVJ0yYcPvtt584cWLq1KmLFi2SdPz48Q4dOmzduvW2225zuTgzxijZERw4cODkyZMdke3bt2c6Tfb19fX19XWOeHt7X53PRVftD8p36Iw7dMYdOpMp2uIOnXEnD3bml1/Uq5cZlNSsmQIDXSJ1q55+4KMOlt9/l6SbbrKsXu1dtqxLxRXIg53JI/JyZ2w2W6Z/N6bJAADgGoiI0MiR+vNP2zQ91k9zJSXJ55Eyn016roVZCsDVqlWrHKNkSfPmzWvRIv3/ce666666dev+/vvvktLS0t54443PPvvMUXmpatSo4bzN9OEUAACQl61bZ0bsunfX+W8WSZKSktT+fm3dIkkVKyoqShUqOKWBDEyTAQDA1ZaUpD59FB9vm6wRj+pjSany/KDVF12e8CxXziwGYPjtt9+ctw0bZpwM4+npWb9+ffs0WVJ0dLQjdRn27t3rvC1durTzFgAA5EHLl2viRB09mr49ccIla1e2rLp1c9qnpenBB/XNN5IUEKDVq1W9ulMacOFhBgAAAHLZn38qPl7j9OJwTZFklaWP5t08qpO3t80sBXAB4yuHv/zyi2Odlpa2a9cux9bT09O+2L9/v8XJt99+66hZvXr1c889FxcX54jYxcTEzJo1y7G1WCzOY2sAAJAHnTypLl20caP++CP9/5ynyS1a6P339emn2rFD1aqdj9psGjpU4eGSVKyYVqxQvXoZ1wAXYJoMAACunpMn1aaN6tdXqF5/QePtwUGaEdum1733MkoGsqVx48bO2759+37xxRd79uzZuHFj7969HQ8m64LKTJ07d27ChAmVK1cePHhweHj47t27t27dOm3atMaNGztewSepffv25cuXd7oOAADkOVu2KCXFDDoEB+t//1P//nJ5D8Jzz2n6dEny9lZ4uJryChNkgZMuAADA1TNliiIjNUxTXtfz9sjjeu/FvwfecINSU11LAbjRtGnTli1bbtiwwb7dv39/7969XUskycfH5+mnnzajbiQkJEyfPn26/cPkBcqUKTNlyhQzCgAA8pLdu9WmjRl0uP569eljBvXWW5o4UZIsFs2de7HrgfOYJgMAgKvn++81WB9P0XD7drTe3HPv464v+gKQBYvFsnDhwvvvv/+HH34wc+cFBATMmTOnTp06ZuICfn5+Hh4eVqvVTJxXp06dzz///KabbjITAAAgLxk82GVbq5Zefz19XbSomjVTyZIuBZo5U6NHp6/ff189e7pkATeYJgMAgKshNlZdu6rSurnTNNQeeVmvzCw9euk41zoA2VCuXLmNGzdGREQsXLhw27ZtBw4cOHPmjI+PT5kyZerUqdOmTZsBAwZk86V5QUFBBw4cWLp06YYNG6Kjow8cOHD69GlfX98KFSrccccdXbt27d69u3FSMwAAyGtsNm3a5BJp2FBdurhEXCxenDF+HjdOjz3mkgXcY5oMAACuhk8+Uel1Cz/VAA/ZJL2p0ZaXXjryory4GQEui8ViCQkJCQkJMROZqV69us3m9mjyihUrDh06dOjQ9N/0AACA/CUyUv9n776jq6rSN44/NwmBhBJ67yBIUUREOpGSUA0C0ot0RVREQcSuIyJCaD9EioAg0oN0SALSVERApQgoIj1opKVASD2/P3K5ueeYJiQhwPezZs3a+9nvdZizRmfnzb77dO9uDUeOtCZJtm1T9+5K/GbS8OF6034HHZAe/AAHAAAyXWys/lmwYYl6uCpB0nQNG63xe5+00UoGAAAAbodh6Lnn5PTqXEk6c0ZlypiSJPv3q0MHRUdLUp8+mjRJNpu1BkiZizUAAADIUEFBejr/lg9+7ZxDcZLmqf9Lmvbii7Y6dayVAAAAAP6T69d18qQpKVxYJUuakiS//abWrRURIUnt22vuXLnQG8R/w/9iAABA5loy7NvF1zvkUrSkJeo+WHPGf+IybRpnIAAAAIDbcuKEChe2hlOmyNXVGkrS2bPy8dHFi5LUpImWLxevRsB/l426ybt37x48eHD16tXz5cuXM2fOUqVK+fn5ffnll6m8YDoVkZGR/v7+3t7exYoVc3d3L1asmLe3t7+//7Vr16ylAAAg04Rt2Tv1j7a5dV3SanXoq4UJcn38cWsZAAAAgP/K3183bpiSa9fUq5cpsbt4Ub6+OntWkmrV0tq18vCw1gDpkC1uK4yOjh4yZMjChQudw5CQkJCQkHXr1k2ZMmXdunUlUzyjn4zdu3d37tz5woULjiQ0NDQ0NHTnzp2TJk0KCAioX7++UzkAAMgUS9846DuuVUFFSNqsVt20LE45Xn5ZTZpYKwEAAACk6do1HTiguDj7dO9e02r16vL0NCV2ERFq21bHjklSpUravFn581trgPTJFt3kPn36rFixwpre9NNPPzVt2vTnn3/OmzevdS05hw8f9vX1jYyMtC5IkkJCQnx8fHbv3l2zZk3rGgAAyDixh461+LhlQV2RtF3enbQqRjnPn0/5EjcAAAAAKTt4UM2a6fJla+4wc6Y1kaToaHXqZG88lyih4GAVL26tAdLtzt90sXXrVudWcosWLbZv33748OFZs2bly5cvMTxx4sTrr7/uqEndgAEDHK3kAgUKfPXVV0ePHl20aFH+m791iYyMHDhwYNIHAABAxjEMnTihH746EfdEiyLGP5J2q/6TWhclz5Il2bgCAAAAxmw5qgAAIABJREFUt2jq1NRayatWJfcVwPh49e6tLVskKX9+BQWpQgVrDfBf3PmzyStXrnSMc+fOvWrVqsQmco0aNS5fvjxmzJjEpfnz53/44YcFChRwFCdr586de51O+fv7+/fs2VPSgw8+eP369SFDhiTmP/74465du5ok8zcZAAC4LaNGaZn/2V1q4aEQST+pdhttilTeypU1axavjAYAAAD+g0OHdOSIffzjj6Ylizp1rIkMQ0OHKrHz5umpjRvFN/Vx2+78j3SnTp1yjMuVK+c4jyypVq1ajnFUVNSmTZsc05Q4H3O22WydO3d2TLt06WJzenl8KndrAACAW3PlipZM/murWpTXaUm/qrqvgsKUP08eHT+u5s2t9QAAAABSMmmSHn5Y3bvb/3X4cNJS7twqWND+r6pVNXeuypZNWrV7803NmSNJbm4KCFCDBtYC4L+7893kXLlyOcbnz5+PiYlxTP/880/HWJLzoeOUONeUKVPGuTedP3/+UqVKOabp+asBAID0u3RJX06+GJjQsoqOSzquyi215ZIKS6pb11oMAAAAIHX+/tbEYckSXbpk/9exYxowwFogf3+NGydJNpu+/FKtW1sLgFty57vJ9erVc4zDwsKGDBly5syZ69evb9myZezYsU6FOnfunPM0WSdPnnSMixYt6rRiTZwrAQDAbTp4UI9WvNr4f7419aukUyrXUlvji5QoUkTNm2v2bGs9AAAAgFTs2qWQEGuYyNVVTu205HzxhUaOtI8//VTdu5tWgdtw5+9NHjRo0IQJEy7fvEV8wYIFCxYsMJfYhYWFWaN/ca7x8PBwWpEkT09Px/jq1atOK0mio6Ojo6MTx+Hh4ZJiY2NjY2NNRdlJ4p8tO/8J7zgeUZp4RGniEaWJR5Sme/4RzZt6bWl4m0f1s6TzKtlCW13Klzn/e9J/3zT/q9/zj+j28YjSlMojMgwj2RwAACAbmjNHN1/+ZVe1qtzcJKlIEb36qv51hNLJmjUaNMg+/uADDR1qWgVuz53vJhcuXHjNmjV+fn5XrlyxrkkuLi4JCQmJY+c7MdLDMIw0k38bN27c+++/75wEBQU5t6Gzp+DgYGsEMx5RmnhEaeIRpYlHlKZ78hHFxdl++yVPh3n/a6AfJIWqSEtt+VOVmpQ5t3Hjfmt1Wu7JR5SxeERpSvYRGYZx7do1awoAAJAt/fu7fT/9pHR1p7ZvV7duio+XpJde0ltvWQuA23Pnu8mSGjdufPjw4fHjx69atSrxOgsXF5dHH310+PDhU6dO3bdvX2JZoUKFTB9LjpeXV2hoaOI4KirKvGhK8ufP77SSZMyYMa+88kriODw8vEyZMr6+vs73L2c3sbGxwcHBPj4+OXLksK5BEo8oHXhEaeIRpYlHlKZ7+BF17xg3aEOnZtou6bIK+Cj4mKp17ZowZUqxwoXbWqtTdg8/oozCI0pTKo/IMIyUvpoGAACQrQQH62YzzK5Ro/S1kn/6SX5+SvzOfa9emjxZNpu1Brg92aKbLKlkyZJTp06dOnVqeHh4REREgQIFPD09b9y4McTpWP/DDz/s9InkVahQwdFNdgwc/v77b8e4QoUKTitJcubMmTNnTuckR44c//6BJLu5K/6QdxaPKE08ojTxiNLEI0rTvfeIzpyI7b2hZxttlhSuvK21+aBqLVmi7t1dbu31DPfeI8pwPKI0JfuIDMP4dwgAAJDdLFtmveW4dm2tWGFKkvf772rdWhERktSunebPl8utbMiB1GWXbrJDvnz5HAeBAwICnE8TN2vWzDFOSd26dffs2ZM4PnfuXFhYmJeXV+L0ypUr58+fd650jAEAQPpdu6ZNm/TXX7IlxDf47JmOWi3pujzaacNePe7iokaNrB8BAAAAkB5Ll1qTZctUooQ1tDp3Tj4++ucfSWrcWMuXi9+jI3Nki99R/JP4v3Wzs2fPjho1yjGtX7/+I488kjg+deqUzcn27dsdZV26dHGMDcNYuXKlY7p8+XLHWOZKAACQToahVq3UpYteejEh1/Ahjx5bIumGcvpp7bdq4uOjNWtUpoz1UwAAAADSdOqUVq82JdWqqXJlU5KMS5fUqpXOnJGkhx/WunXpuxcDuBXZ4myyv7//xo0be/bs2bhx42LFioWFhW3btm3ChAmOLrOLi8vHH39s/lDymjZtWrdu3b179yZOR40alStXrscee2zfvn2jR492lD3++ONNmjRxTAEAQDr9+qu++06SMVXDB2qepFi5Pa2VW9WyVi0FBVnrAQAAAKRHXJyaNjUllSopODitq48jI9WunY4ckaRKlRQYqBReFQZkiGzRTZZ06NChMWPGWNObxo0b5+3tbU1TMG/evPr16ye+s/vKlSu9e/e2FOTJk2fu3LmWEAAApOKPP7R+va5d04kTkoyP9fqLmi4pXi49tXiD2ktq0cLyIQAAAADpdeCAzp41JXPmqFQpU2IVHa1OnZR46Wvx4goKUvHi1hogQ2WXbnJK8ufPP2XKlGeeeca6kLKaNWsGBwd37tz5woUL1jWpRIkSAQEBNWvWtC4AAIAU/PGH6tRReLh9+rb+N1qfJI4/qTb/UvEuLVxUr57eftvxCQAAAAD/QXy8nC58laSyZdWwoSmxio9Xnz4KDpak/PkVGKiKFa01QEbLFt3kZ555xsPDY8eOHSdPnrx06VJ0dHShQoWqV6/eunXrgQMHFihQwPqBtDRo0OD333+fOXPm2rVrjx49evXq1fz581erVs3Pz++5557LkyeP9QMAACBlX3+d1Ep+VRM/0LuJ4wmVZo450jfF7xYBAAAASJ/Jk7VtmynZvVs5c5oSE8PQsGFasUKSPDy0fr0efthaA2SCbNFNrlat2rvv2n8uTY/y5csbhmFNzfLkyTNy5MiRI0daFwAAQPrExurLL3XsmHbssCdDNWOi7EcmRmhSoX7POooBAAAA3LItW0zTFi1UsqQpsXr7bc2aJUlubgoIUKNG1gIgc2SLbjIAAMiGhg6V84sG+mn+DA1LHC+u/mHZQSNeeilpFQAAAMCtuXpVgYGmZPBg09Rq8mSNHStJNpsWLlSbNtYCINPQTQYAAMkwDC1ZkjTtpqWfa5B9MmZMz4/eTFoDAAAAcBteftk0HTNG3bqZEpOFC/XKK/bxtGnq0cO0CmQyuskAAMBk7VoFB+vGDV2/bk/8tGaRersqQVJoj+FFE89BAAAAAMgI331nmj71lGlqsnatBgywj997Ty+8YFoFMh/dZAAAkGT5cus5CF8FLldXN8VLCmk/uORXk2WzmSoAAAAA3KrNm/XHH6bkscdM0yQ7dqhrV8XHS9ILL+idd6wFQOZzsQYAAOA+tmqVadpUO1brqZyKkaTevUuu/oxWMgAAAJBRbtxQ166m5Icf5JJsu+7nn+Xnp+hoSerZU1OnsjPHHcHZZAAAoMhITZqko0e1Y0dSWE8/rFd7D92QpM6dNX++XF2TlgEAAADcnuPHFRGRNLXZVLly0jTJ8eNq3Vrh4ZLUpo2++CKFljOQ6egmAwAADRigFStMySP6eYtb6zxxkZLiW7d1XbxYbmwbAAAAgIz0+uum6csvq1AhUyJJ58/Lx0ehoZLUqJFWrlSOHNYaIKvwewwAAO53hqH1601Jdf0aJN88cWGS1Ly569cBcnc3VQAAAAC4PX/+qY0bTcmkSaapJF2+LF9fnT4tSQ89pHXr5OlprQGyEIeMAAC47xw7Jn9/hYTYpwkJiopKWq2s41vUsoguSlKjRlqzRrlyJS0DAAAAyAiHDpmmvr6mqSRFRqptWx05IkkVKigwUAUKWGuArEU3GQCA+0tcnFq0SGolW5TV6R/ztigQ8ZckPfaYNmxQnjzWIgAAAAC3JzZWTz1lSt5/3zRVTIw6d9aePZJUvLiCg1WihLkCuAO46QIAgPvLkSMptpJLKGSbrXmBiLOS9NBD2rxZXl7WIgAAAAC3LTjYNPX2Vv36TvP4ePXtq6AgSfLyUmCgKlVyWgbuGM4mAwBwXzh1Su++qxMn7C+C/rciCt2qFhWNPyWpalUFByf3BhAAAAAAtys0VAsWmJJatZwmhqEXXtCyZZLk4aH16/Xww07LwJ1ENxkAgPtCx4765RdrWLiwXntNknJdv9xtlm/RC8ckqUIFbdmiYsXMtQAAAAAywPTpevFFazh6tNPknXc0c6Ykublp5Uo1buy0BtxhdJMBALj3XbmSTCtZUvXqGjVKCg+XTxtdOCBJpUtr61aVLm0tBQAAAHDb4uP19tvWcNAglSx5czJlij780D7+4gu1bXtzAcgW6CYDAHAvW75c06crNNSaJxo6VLp2Te3b68cfJalYMW3dqgoVrHUAAAAAbo9h6PBh7dmjq1etS7Vr3xx9+aVGjLCPp01Tr143F4Dsgm4yAAD3rOPH1a2bNXRz0/TpcnHR44+rVtUb8uuoXbskqVAhbdmiKlWsHwAAAABw295/X++/bw1z51aPHho4UJK0bp3697cvvPtuMtdhANkA3WQAAO5Z339vTSSVLatnn5Ukxcaqc1f7y6Tz5VNgoGrWNJUCAAAAyAhxcZo40Rq6uysiQjabJGnXLnXtqvh4SRo2TO++ayoFsg26yQAA3Gv+/lvDhmnfPoWHW5ckvfqqJCkuTr16ad06ScqdW5s2qU4dUx0AAACADLJrl65ds4YNG95sJf/yi9q3140bktSjh6ZNu7kAZDt0kwEAuNcMH66AAGtYv76GD9dDD6lGDSkhQQMHasUKScqVS+vWqWFD6wcAAAAAZIRNm6zv0itbVo8+qilTJEnHj6tVK/tJkNat9cUXcnExVQPZCd1kAADuNXv2WBNJDRuqe3dJkmFo2DAtXChJOXJo1So1a2YqBQAAAJBx5swxTT08dPr0zUlIiHx97W/NbtBAK1fK3T2pFMh++F0HAAD3iGnTVLGi8ufXqVPWpSJFNHiwJMkwNHKkZs6UJFdXLVumNm1MpQAAAAAyzubN+vprU9K8+c3R5ctq1cq+fa9ZU+vXK3duRxmQPXE2GQCAe8Gvv2r4cGsoacYMVamiunWVL58k6d13NWmSJNlsWrhQHTuaqgEAAABknFmz9NxzpqRwYS1YIEm6dk3t2+vwYUmqUEGBgSpY0FQKZEt0kwEAuBfs329NJLm6qnt3FShwcz5unP73P/t4zhz17HlzAQAAAEDGW7TImixbpkKFpJgYPf20du+WpGLFFBSkkiWtpUC2xE0XAADc3WbMUPHieuYZay5p5EinVvLUqXrjDft42jQNHHhzAQAAAEAGCw/Xxx/r229NYaFCql9fio/XM89o82ZJ8vJSYKAqVzbVAdkYZ5MBALiLhYTohRdkGKbQ21tjx6pMGZUtezOaM0cvv2wff/yxXnzx5gIAAACAjNetm71d7FC9ulaulKeHoRde0tKlkpQrl9atU61apjoge6ObDADAXWzPHmsrWdLjj6tRI6f5okV69ln7+J13NHq00xoAAACADHb9ugIDreGSJapWTXr3Pc2YIUmurlqxQk2aWOuA7I2bLgAAuCv9+aceeUSdOlnzSpU0bJjTPCBA/frZW86vvqr33nNaAwAAAJCRDEMzZsjb23rmo3p11awpTZumDz6wR198ofbtTUXA3YCzyQAA3JXefVcHDpiSfPm0d68qV5aL45fFGzeqRw/Fx0vS0KGaMEE2W9IHAAAAAGSozz83n+2QJI0bpwED5LLkKw0fbo+mTlXv3qYi4C5BNxkAgLtPfHwyX517+mlVqeI037pVnTopNlaS+vXT9Om0kgEAAIBM9e9detGiev11acOGpBdnv/22XnrJVATcPbjpAgCAu8yOHSpeXP/8YworV9aYMU7z776Tn5+ioyWpWzd9/rnTiWUAAAAAGSwwsFyzZq4BAdZ84EBp1y49/XTSVwbff99aBNw9OJsMAMBdZtQoXbxoSpYuVdeuTieP9+1T27a6fl2S/Pz05ZdydU2qBgAAAJChtm2zffbZI5awZk2NH682JQ/oiSd144Ykdeum//s/vjKIuxrdZAAA7iYXL2rvXlPi4qJmzZx2pIcOqVUrhYdLkq+vli1TjhxJ1QAAAAAy2q5dyTSIp05V83In1KiVwsIkqVUrLVzIOQ/c7fjSKwAAd42XX1aRItZw4kQVLXpz8ttvatlSly9LUtOm+vpr5cqVVAoAAAAg41y/roEDVbasJk2ydtgefVSNK12Qj4/+/luS6tdXQIDc3S1lwF2Hs8kAANwdTp7U1KnW8MwZlSlzc3LypFq0UGioJNWrp/Xr5emZVAoAAAAgQ/n7a968xGHS2eSiRTV/vp6odcW9TSudPClJNWpowwblzu2oAe5edJMBALgLGIbWrrWGRYuqZMmbk3Pn1Ly5zp+XpEce0aZNyps3qRQAAABARvvxR2si6e231db7mnzb69AhSSpfXoGBKljQWgfcnegmAwCQ3cXEqE0bffONKSxfXp9+evPWtb//VosWOnVKkqpVU1CQChRwLgYAAACQUY4dU69e+uknay6pShV16xijp5/W999LUtGiCgpSqVLWOuCuZb3VBQAAZDdbt1pbyfXr6+RJtW0rSbp0SS1b6vffJalSJW3dmszlygAAAAAyyCuvJNNKfvrp33fujDv4S0KRUf20ebMk5cunzZv1wAPWUuBuxtlkAACyndhY7d9vf/OzpI0bTauS6tS5OQoLU6tWOnxYksqW1datKlEiqQ4AAABAhrp40d4rtqhX70L9euVzvDpCS5ZIUq5cWrdOtWtb64C7HN1kAACyl6goeXtr715r7uDnp/fflyRFRqptW+3fL0klSmjrVpUrZyoFAAAAkEHOnVP79jpwwJpL6tkzoXLlqy4ffqjp0yXJ1VXLl6tpU2sdcPejmwwAQPYSFJRaK7lvXy1YIEmKipKfn/06tsKFtWWLKlc2lQIAAADIOP7+ybSS169XnToqVCj+6PPrXT//3J7Om6cnnzTVAfcKuskAAGQjR49qwgRr6OzxxyVJ0dHq3FnbtklS/vwKDlb16qY6AAAAABknIkKLF1vD3LnVvLk8PBS3YPHDjlby5Mnq29dUB9xD6CYDAJBdzJ6tZ581JR4eKlTIPs6ZU+3ba8gQKS5OPXtq0yZJypNHmzfrkUecPgQAAAAgI61apR49FBNjCvPl0+TJ8vCQNm50HTTInr75pl5+2VQH3FvoJgMAkF34+1uTHj00d645io9X32e0apUkeXhowwbVq2euAAAAAJCR3nrL2kqeOVMDB8rNTfruOz39tC0uTlL84MGu//ufqQ6459BNBgDgzouKUnCwfv/dmjdubJ4bhp57zv4VO3d3rV7Nmz0AAACAzBMTo717dfSoNW/eXG5u0sGDat9eUVGSzjdqVHTaNFebzVoK3FvoJgMAcIcZhnx99e23pjB3bo0apWeecYoMQy+/rMTr2NzctGKFfH2dlgEAAABkpKgoeXsn84rsSZP0wAPSn3+qVStdvSopwcdn/5AhbVxdraXAPYduMgAAd9gvv1hbyZJOnlSRIk5zw9Abb2jaNElycdGiRfLzc1oGAAAAkMG2bEmmlXzxogoVki5ckI+P/vpLkurVi1+2zNi501oK3IvoJgMAcCddv57Mdck1aqhwYXM0dqw+/tg+njdP3bqZVgEAAABkHMPQrl16+21rXrmyChaUrlxRq1b6809Jql5dGzYoTx5rKXCPcrEGAAAgqxiG2rXTV1+Zwl69tGaNTPetTZqUtJOdMcN8/wUAAACADPbGG/L21oEDprB5c61cKVvUdT35pA4dkqRy5RQUpEKFTHXAPY2zyQAA3DEnTmj7dlPyxBNatMiU6LPP9Oqr9vHEiRo61LQKAAAAIEMZhj791Bo+84y++EKKjdVTXfTdd5JUpIiCg1WqlKUSuLfRTQYA4A74+28tX66ff7bmPj7m+YIFev55+/iDD5LaygAAAAAyQXCwtmxRRIQ1f+IJKSFB/ftr40ZJypdPgYF64AFLGXDPo5sMAEBWi45Ww4b2a9acjR9vbhcvX64BA+zj0aP11ltOawAAAAAy2GefJZ3lcHjkEfXqpWf6Gnr5ZfstdTlzau1a1a5tLQXuA3STAQDIat9/n0wruU4dvfaa03zdOvXqpYQESXrxRY0bZ75KGQAAAEAGW7DAmri5af9+ubhIH/xP//d/kuTqquXL5e1tLQXuD3STAQDIIufP5/7f/1zCw3X8uHVJUrt2TpPgYD39tOLiJGngQE2ZQisZAAAAyFQ//KA9e6xh69ZycZE+/VTvvmuP5s6Vn5+pCLif0E0GACArXLyo0aObRka6WvIiRdSiherX1wsv3Ix27lSHDoqJkaSePTVrllxckj4AAAAAIKP98ouaNjUlhQtr8GCNHi0tWaIXX7SnkybpmWdMdcB9hm4yAABZYetWW2RkDmsqNWyoJUuc5nv2qF07RUVJUseOWrBArtYGNAAAAICMtXatYmNNya5devBBafNm9e0rw5CkN97QiBGmIuD+w1knAAAyV2ys/u//1KdP8r/B7dTJafLLL2rdWpGRktSmjZYskVvynwIAAACQUX7/Pekei0Q1a6pqVen779Wpk/0CuiFD9OGHpiLgvsTPqAAAZK7XXtOUKaakQgW1bKkcOdS8uTp3vpkeOSIfH129KknNmikgQDlzJn0GAAAAQCaIi1OzZtZw61bZDh9K+tbg009rxgzeZQKIbjIAAJltzRpr0rKlZs82R3/8oZYtdfGiJDVooLVr5eFhrgAAAACQ8Q4dUkiIKZk4UUUj/1SrVvajHi1batEiLqADEtFNBgAgsyxZorVrdfKkKbTZ1LWrKdGZM2rRQhcuSFKdOtq0SXnymCsAAAAAZIrFi03TfPnUudFf8vW1788ff1xff823BgEHuskAAGSKNWvUs6c19PNLGDnSpUkTpygkRM2b68wZSapZU4GB8vJyWgYAAACQWUJCNHGiKfl529XyA1rrxAlJqlZNGzdy1ANwRjcZAIBMsWmTNZE0a1Z88eJOr8D95x+1bGnfqlapouBgFSqUtAoAAAAgM333nWnauun1isOf1IEDklS2rIKC2J8DFk4/0AIAgIwQFqYRIzRrljWvW/eCaS965Yp8fXX0qCSVL6+tW1W8uNMyAAAAgEwUE6O+fZOmboqdF9lV334rSUWKKDhYpUsnLQOQxNlkAAAy3ODBWrHClBQoIH//uNy590mt7VFEhNq00S+/SFKpUtq6la0qAAAAkJVmzNCNG/axTQnLPAeU+GmDJOXNq02bVKWKUy0AO84mAwCQwbZssSaffabevY2cORPs8+vX1b699uyRpKJFtXWrKlZ0KgcAAACQ6RL345IkY7JGdLq+SJJy5tTatapTx7EGwBlnkwEAyBhLlujzzxUeritXTHnZsvL1dZpHR6tjR+3cKUkFCyo4WFWrOi0DAAAAyHQTJmjpUvv4TY0drmmS5OKiZcv0xBNJdQDM6CYDAJABfv5ZPXtaQ0ljx2rwYBUooNhYSVJsrHr0UFCQJOXLp8BAPfyw6QMAAAAAMtnRo3rtNfv4OX32od62Tz7/XB063KwCkAy6yQAAZIBdu6yJJHd3vfKKcuW6OY+Pd+3XT2vXSpKnpzZu1GOPJVUDAAAAyDRxcQoLs48T37QnqZuWfqph9snEierf3z4GkAK6yQAA3IpNmzRunP7+2z69dMm0mujZZ51ayQkJtT/91OWbb6Sbd7E1apRUCgAAACDTzJ6tkSMVEWEKW2nzl+rjIkNSwmuvu7z6qmkZQHLoJgMA8J9dvaqnnlJMjDVP5O2tfv1UqZJTu9gwXIYPL5vYSs6RQ6tWqUWLpA8AAAAAyDSRkRo+XDdumML62h2gzjkUJ0mDBrl8/JFpGUAK6CYDAPCf/fRTiq1kSU88oX79nOaGoVGjXGfNkmS4uNiWLFHbtk7LAAAAADLR3r3WVnINHd6gdrl1XdLBKp0fnjlTNpupAkAKXKwBAABIQXi4evVS6dLq1Mm65FCsmPr2NUfvvSd/f0mGzRY/d646dzYvAwAAAMgso0apeXNTUl4ng+RbUFck7cnbovDmr+TqaqoAkDLOJgMAkF4ffKDFi63hAw9o/Hj7OFcuNWig/PmdlseP1wcfJA4PDB1ao1cvpzUAAAAAmej8eU2caEpql/z7x5y+bicvSIqrXbfejq+VN6epAkCq6CYDAJBeP/5oTSTVrq2OHa2h3f/9n15/PXEY7+9/ulKlGuZ1AAAAAJnn229N03wKW3mttVvIH5L04INuQRuVN6+pAkBauOkCAIDU7NmjWrXk4SEPD+3aZV3Nk0evvGIN7ebO1Usv2ccffZTw4oumVQAAAACZadkyde+eNM2lqO15nqwY9osklSmjoCAVLpy0DCB9OJsMAEBq+vfX0aPWUNJHH6lBA9WuLS8v65IkLV6swYPt47fe0pgxio01FQAAAADITB99lDR2U+xmr261w3ZJUuHCCg5WmTJJywDSjW4yAABWCQmKj5ek6OjkW8mSOnbUgw9aQ7uvv1bfvjIMSRoxwnFvMgAAAICs8ddfOnjQPrYpYa4Geoetk6Q8ebR5s6pWdaoF8B9w0wUAAEni4/Xii8qbV+7ucndP8Ra1/v1TbiVv2qRu3ezd6Oeek7+/bDZrDQAAAIBMc/SoqlRxzAx/vdpXX0qSu7vWrlWdOo41AP8VZ5MBAEiyZYumT7eGDj/8IFdXFSuW8rfitm1Tp072Sy369tWnn9JKBgAAALLYwoWKiLCP39BHIzRFklxctHSpmjVzKgTwn9FNBgDALipK33xjDR3Kl1e9etbQ5Pvv9eSTunFDkrp00dy5cuE7QAAAAECWunxZH39sHz+rmWP1ln0yZ446drxZBeAW0U0GAEAJCRo+XLNmpfiqPA8PTZxoDU3271ebNrp2TZLat9eiRXLj/2QBAACALBUbq8aN7eMuWj5Dz9snn3yiAQNuVgG4dfygCwCA9u5N5oIyV1p6AAAgAElEQVSLnj317rv2cblyypnTtGpy+LB8fRUeLkktW2rFCrm7W2sAAAAAZLIffrC/RttHQYvU20WGJI0erVGjzIUAbhHdZADAfS06WufPa8cOay6pQQPnd3ek7Pff1bKlLl+WpMaNtXq1cuWy1gAAAADIZCdOaOhQSaqnH75WR3fFSgp7eqDXuHGWSgC3jG4yAOD+tXixBg60X3Rs4eOjvn2tYTJOnVKLFvr7b0mqW1cbNih3bmsNAAAAgEx25Yrq19fFi6quXzeoXW5dlxTauFPRJTN5MzaQgXg7EADgPpWQoBEjkmklN2miq1cVFKR8+axLVufPq3lznTsnSQ8/rM2b0/EZAAAAABlv2zZdvKhyOhUk30K6LOlAoeZFg7/idSZAxuLvKADAfefiRZ09q4gIhYZalyS1bCkvL2uYjL//VosWOnlSkh58UMHBKljQWgMAAAAgk0VGyt9f772novo7WD6lFCJprx47+v7qWtxBB2S09HaTL126dPLkyQsXLly7dk1S7ty5ixcvXqFChcKFC1tLAQDIxsaP1+uvW8NELi5q2VIvvmjNk3H5snx89NtvklSxorZsUdGi1hoA9zf2zwAAZI0BA7RihfIpbJPaPKA/JB1T1ZA5G/sOymstBXDbUusmh4SErF+/PigoaM+ePSEhIdZlSVKJEiXq1avXqlWr9u3blyxZ0roMAEB2cu2a3n3XGkrKkUNhYXJzU44c1qVkhIWpVSsdOiRJZcpo61aVKmWtAXBfYv8MAEAWMwytX69cilorv0f1s6QzKjOnS7D/oCLWUgAZIZlucnx8/MqVK+fNm7djxw7DMCQl/nuyQkJCVq9evXr16ueff97b23vw4MFdunRxdXW11gEAcOdER+vnn3Xjhs6fV3S0dVVS7dry8LCGybt2Te3aad8+SSpeXFu3qnx5SwmA+018fPzy5cs///xz9s8AAGSlNWs0bZpiouIC1N1bOyVdVKHWtqCpg8tYSwFkENNb+G7cuDFlypRKlSr17dt3+/btCQkJhmEYhmFLVWJNQkLC9u3be/XqVa5cuUmTJt3491uNAAC4E86dU9WqatBAzZqpd2/TUo4cypFDtWtr1ixTnqIbN9Shg777TpIKFdKWLXrgAWsNgPvJjRs3/P39y5Ur17t3b/bPAABkpV9/VceO2vZNwuca1EFrJUUoz8Lum+Z9/6CPj7UYQEaxd5MNw5g/f3716tXHjBkTEhJi2QSbP2Jl2RaHhISMGjWqYsWKc+bMMVI+lAEAQNaYP1+nT1tDSSVKKCZGMTH66Sc98oh1NRkxMXr6aW3dKkleXgoOVo0a1hoA9w3DMGbPnl2xYsXXXnuN/TMAAFlvxw4ZhjFRI/tpgaRouXdzX/3Sl3Xr17dWAshA9psumjZteuTIkcTNq2X7m54dbeJHHB80DOOvv/567rnnZsyY8fPPP5tKAQDIEkeO6I8/JGnXLutSoscesyapiYtTz57asEGS8uTR5s2qXdtaA+B+Urt27UOHDrF/BgAg682apdmz9dNPel0fv6LJkuLl0kNLqgxt4ZbMla4AMpL9b7Jff/018XyEYyFxE5w3b96GDRvWqlWrevXqpUuXLlKkiKenp2EYUVFRoaGh586dO3LkyIEDB3bv3h0RESHzttgwjIMHDzr+ggAAZJkPPkj+bXuenvL0lM2m2rU1fbp1NUUJCerfXwEBkpQrl9avFwcegPvewYMH2T8DAJD19u3Tc89J0mDNHqc3EsMhmv18cKfmzZ0LAWQK669sEjfBVapU6dy5c4cOHR577DEXF9PdyslKSEjYu3fvmjVrAgICjh8/rn8d0AAAIMvExWnCBGuYaNw4vfSSNUyDYWjoUC1aJEnu7lq9Wt7e1hoA9zH2zwAAZKXduyWps1bO1HOJyWsaX/KtgS1bOlcByCxJ3WTDMNzd3bt16zZ48OAGDRq4uLikf0fr4uJSr169evXqffTRR99///2sWbOWLVsWExNjrQMAIJPFxSkgQJGR1jxRgwbWJA2GoREjNHu2JLm6avlytWplrQFwv0rcP/fo0WPIkCEN/uM/X9g/AwDwXy1apPfe04kTaqngxerpIkPSJxq1oOhr3z1jLQaQSeznJjw8PEaMGPHbb7/NmTOn/u19e7dhw4YLFiw4ffr0yJEjPTw8rMsAAGSm7t3VvbspqVhRlSqpdm3NmKG6dU1LaXvrLU2dKkk2mxYtUocO1gIA9ytPT8/Ro0efPn16/vz5/7WVbMH+GQCANF26pH79dOKEHteer9XRXbGSFrkPeHjj+N9+U+XK1noAmcR+NvnAgQPFixd3dXU1r966YsWKffLJJ6NGjbIuAACQac6etV9u7ODhoRMnTMl/MHasPvrIPp4719qlBnB/O3nyZJEiRazpbWD/DABASuLi9P33io9XNR3ZqLZ5dE3S13rq9BuzerdJ7xfrAWQI+9nkwoULm/OMkbE7bAAAUhcYaE2aNrUm6TV5st56yz6ePl39+5tWAdz3Mmmjm0l/WQAA7l7+/ipYUH5+KqvTQfItpMuSvlGzNyss6T/Y+j4wAJmNv+sAAPeITZs0eLAp6dNHn3xiStJr1iy98op9/MknGjbMtAoAAAAgS1y4oFGjZBgqotAg+ZbWeUn7VKfIt6sP1svlRlsLyHL8bQcAuEfMnWuaPvSQFi40Jem1cKGGDrWP33tPfOscAAAAyFoJCTp1SnFx2rNHhqG8Ct+kNlX1u6TfVOXzTptmNspn/QyALEE3GQBwLzh50npjcvPmpml6rVih/v1lGJI0apTeecdaAAAAACAzHTsmX1+dPWuf5tSNNepQRz9JOqvSA0oHf/4hF0MBd0x6u8kJCQlHjhw5ffp0WFhYXFycddmsb9++1ggAgExz+rTq1DEllSrp449NSbqsX6+ePZWQIEnDhmn8eNl4pweAW8T+GQCAWzN+fFIr2VVxS9W9mbZLumQr5P5N0LfeZdmkA3dQ2t3kc+fOffDBB8uWLYuMjLSupYDdMAAgK61dqytXTMmsWcqVy5SkbcsWde6sxI7PgAGaNo1WMoBbw/4ZAIBbcPmyDh+WYWj/fkdmzNHgp7RGUqRyf9Z+41tPVEv6AIA7IY1u8jfffNOpU6eIiAgj8Tu/6WDjZ28AQBaKjtaHH5oSLy/Vq2dK0rZrlzp0UEyMJPXoodmz5eJirQGAdGD/DADALVi/Xp06KTbWOTMmaFR/fSEpWu5vVFs96tPHnZcB3BGpdZMvXLjw1FNPJR6pSOceN/2bZgAAMsSAAQoNNSU7dihPHlOShh9/VLt2un5dkp56SgsWyNXVWgMA6cD+GQCAWzN2rKWVrNf0yUj5SzJcXNyWLJ7WtaVpGcAdktrBK39//8jISJvNls6tMAAAWSw2VitWmJK331atWqYkDQcOqHVrRURIUuvWWrpUOXJYawAgfbJ4/7xp06Z+/frVrFnTy8vLzc3N09OzbNmyrVu3njp1anh4uLU6LZGRkf7+/t7e3sWKFXN3dy9WrJi3t7e/v/+1a9espQAAZJzfftOyZfrhB1M4SHPG6/XEsW3mTNeunU3LAO6c1M4mb968OXEfbBiGY2AtAgDgDomO1kcfWY8wtGtnmqbh6FH5+NgvXX7iCQUEKGdOaw0ApFuW7Z/Dw8O7dOkSFBTkHEZFRZ09e/bs2bOBgYFjx45dtWpV48aNnQtSsXv37s6dO1+4cMGRhIaGhoaG7ty5c9KkSQEBAfXr13cqBwAgYyxapD59rGEfz4CZ15+zT8aN0+DBpmUAd1Rq3eQzZ844xoZhlCxZ0sfHp2TJku7u7k5VAADcGc8/r3nzTMn69f/lxuQTJ9Sypf75R5Lq19fatfL0tNYAwH+RZfvnESNGWFrJFv/880/Hjh2PHz+eP39+69q/HD582NfXN6V3BoaEhPj4+OzevbtmzZrWNQAAbs/kydakhbYsiO1pU4IkvfqqRo+2VgC4o1LrJru6uurmwYrmzZtv2LAhw/fBAADcsoAA0zR37v9yMPnMGbVooZAQSapdW5s2KW9eaw0A/EdZs3+OiYn56quvHFMvL6/JkyfXr18/NDT0nXfe2blzZ2J+8eLF9evX9+7d21GZkgEDBjhayQUKFJg+ffqjjz66f//+F1544erVq5IiIyMHDhy4Z88e08cAALhVcXHauFEnTuj4cVNeVz+usT1li42RpP79NWGCsuTyKADpl1o3uWLFir/88kvieNiwYZmxFQYA4BYYhubMUViYKezSxTRNzYULatFCp09LUo0aCgpSOs7uAUCasmb/fPny5ejoaMf01Vdf7d+/v6Rq1aotWrSobNmyjqXz5887xinZuXPn3r17HVN/f/+ePXtKevDBB69fvz5kyJDE/Mcff9y1a1eTJk0clQAA3LIhQzR/vjV8UEeDc7TNHXtNkjp00OzZtJKBbCi1t/B16tTJcdGbi0tqlQAAZKU5c/Tss6bknXc0c6YpSdHFi2rZUn/8IUkPPKDgYBUubK0BgFuSNfvnokWLejrdzJMrV65kx5LKlSvnPE3WCqeXmdpsts6dk15z1KVLF+fXCTpXAgBwy6Ki9OWX1rCMzhwq4esVe0mSvL21dKncUjsBCeBOSW2P++yzzxYpUiRxBzl37lzrMgAAd8i6daZpjhx68830vT/v6lX5+urIEUkqV05bt6pECWsNANyqrNk/u7i4DB061DGdOnXqzp07o6Kizpw5M2zYMEdeqlSpJ5980jFNifPB5DJlyuTLl88xzZ8/f6lSpRxT50oAAG7N2bN67TXFxZnCwvpnWw5ftwvnJOnRR7V2rcy/HwWQfaTWTS5cuPCSJUvc3NwMw1i/fn23bt1OnjxpLQIAIAsZhmbP1vr1prBrV6Xr2+QREWrTRj//LEklS2rrVpUpY60BgNuQZfvnjz76aMiQIYlt6/Pnz3t7e3t6epYrV85xfPiBBx7YvHlz7ty5TR9LjvOfsGjRok4r1iST/rsAAO4f166pfn1Nn24KOzQL31u4TaXY3yTpgQe0aZOcfrUJILtJ41sDzZs3Dw4O7tq1a2ho6MqVK1euXPnggw9WqVIlX758ie8Y+TebzZZ5BzEAAPe5L7+03nHRtq3mzTMlybt+XX5++uEHSSpSRFu3qlIlaw0A3Las2T+7u7t/9tlnDz300IgRI+Is57ukrl27zp07N0+ePJY8WWFOl9B7eHg4rUiS85UaiW/k+7fo6GjHPc7h4eGSYmNjY2NjTUUZLfGvn9n/KXcjnkxKeDIp4ckki8eSktt8Mtu22UJCTJ2oEgWiVhkdXC7ul2SUKhW3caMKFNCt/vXvoNt8MvcwnkxKsv+TMQwj2T9eGt1kSWFhYe7u7jabLfEOuKNHjx47dsxadFPiC6z/624YAIB0Cgy0JqNHp+NgcnS0OnXS9u2SVKCAgoP14IOWEgDIKFmwfz516lTHjh0db/yzWL58+TfffLNo0aJWrVpZ11LluPQ5leTfxo0b9/777zsnQUFBzm3ozBMcHGyNIIknkzKeTEp4MsnisaTkFp5MTIzL+vUVFy6s4Ry6Km6521Mu27dLismb99vXX4/49Vf9+qtzzd3lFp7MfYInk5Ls/GQMw7h27Zo1TbObPHPmzMTL1xK3uYmD9OwpAQDIWIahTz/V4sWmsFo1NWhgSpIRG6vu3e196Lx5FRioWrWsNQCQQbJg/xwfH9+uXbsjiVfAS2XLlh03btwjjzxy6dKlqVOnBgQESLp48WK7du32799fK61/4nl5eYWGhiaOo6KizIumJH/+/E4rScaMGfPKK68kjsPDw8uUKePr6+t8/3JmiI2NDQ4O9vHxyZEjh3Xt/saTSQlPJiU8mWTxWFJyy09m0CDXhQstt60aPz025OF9QZKM3LldNm1q8vjj5oK7yS0/mXseTyYl2f/JGIaR7FfTUusmHz58+MUXX3TsfRMHzq91/reM3SgDAOCwfLlefNGUNGyodeuUxv/zxserb1+tXi1Jnp7auFF161prACCDZM3+efPmzY5WsqRFixY1adIkcdywYcMaNWr89ttvkuLj48ePH7/Y8lu4f6lQoYKjm+wYOPz999+OcYUKFZxWkuTMmTOn+UWoOXLkyJqfi7LsP+iuw5NJCU8mJTyZZPFYUnILT8byGm1Ja6qOfnjffEnKkcP29ddujRpZK+5Ct/Bk7hM8mZRk5ydjGEayf7bU3sI3adKk+Ph4m82WuAN2DAAAyHrffGNN3nxTBQtaQ5OEBA0erKVLJSlnTq1Zo8aNrTUAkHGyZv9suTfj0UcfdYxdXV0feughx/Tw4cOOcUrqOv2O7dy5c87XKF+5cuX8+fOOqXMlAADpNH++2rbVlSumcJQ+8fttgiTZbPrqK/n4mJYBZGOpdZO//fbbxO1v4tf0Er+jlzrrXwIAgNtjGJo+XQ0aaPZsU16tmpo1MyVWhqGXXtL8+ZLk5qaVK9WypbUGADJU1uyfLYdEfv75Z8c4Pj7+0KFDjqnjvX+nTp1KbG0n2p54j7wkqUuXLo6xYRgrV650TJcvX+4Yy1wJAEB6rFunAQO0aZMpnNfw80802j6ZOVP8/wtwV0ntpotz5845xoZhdO/evWnTpiVLlvT09Ez2nDMAABkuKMh6wYWkevUUGCgPD2uexDA0erQ+/VSSXFy0eLHat7fWAEBGy5r9s+WMcJ8+fcaNG1erVq1Lly5NmzYt8ZqLROk5Tdy0adO6devu3bs3cTpq1KhcuXI99thj+/btGz365o/60uOPP+64TwMAgHTassWadHFd1e+HZ+2Tjz7SkCGmZQDZXmrd5IIFC164cMEwDJvNNmLEiIkTJ1orAADIZN9+a00kvfKKvLysockHH2jCza/OffEF5x0AZI2s2T/Xr1+/adOmO3fuTJyeOnWqR48e5hJJcnd3f/nll61pcubNm1e/fv3Ed3ZfuXKld+/eloI8efLMnTvXEgIAkIpdu/TBB9ZucjN985XRw5aQIEmvvKLXXzctA7gbpHbTxaOPPur48p2vr695EQCAzBUbqxEj9OGH1rxaNbVubQ1NJkzQe+/Zx599pj59nBcBIPNkzf7ZZrOtXLmyYcOG1gUnBQoUCAgIqF69unUhOTVr1gwODi5RooR1QZJUokSJoKCgmjVrWhcAAEhBVJTatbO2kn0L7gvy6JAjIUaSnnlGEyYoE94uACCzpdZN7t+/v26+hPrChQvWZQAAMtNnn2nKFFNSurQ2bNCPPypfPlNu8umneu01+3jyZD1782t0AJD5smz/XKRIkW+//XbNmjV9+vSpUaNGvnz5XF1dPTw8Spcu7evr6+/v/8cff7T/Lzf8NGjQ4Pfff58wYUKTJk0KFy7s5uZWuHDhJk2aTJgw4ffff2/QoIH1AwAApOzwYUVEmJKqOrYmto1bVKQk+fnp88/lklpLCkC2ldpNFx07dmzbtu3GjRttNtsnn3zSqVOnvHnzWosAAMgce/ZYk9Gj1batNTSZP18vvGAff/ih0vcVbwDIKFm5f7bZbH5+fn5+ftaF5JQvXz7NN/7lyZNn5MiRI0eOtC4AAJBuUVF64QXNm2cKy+jMNjefXBEXJalpUy1dKrfU+lEAsrM0fhG0ZMmSpk2bGoZx7NixRx55ZP78+aGhodYiAAAylGFo4kQtXmwKK1dW166mxGrpUg0caB+/8YbefNO0CgBZgv0zAOB+9umn1lZyYf1zpLRvibhzklS7ttauTfVt2gCyu9R+F1SxYkVJMTExkgzDOHny5KBBgyTly5fPy8vLJYWvJNhsthMnTlhTAADSbf9+jRplSnr10pw5qW47V69W795KPHk3fHgy1y0DQOZj/wwAuJ8lJOj7701JHkV859U2z7nfJOmBB7R5c1pv0waQ3aXWTT516lTipW+6eftb4vfjwsLCwsLCnCudOT4CAMCt2b/fmvTrl2orOTBQ3bopPl6ShgzR5Mm80APAHcH+GQBw3/L314cf6urVpMRd0etcnqoStk+SSpZUUJCKFk1aBnB3Sq2bnChxB2wYhs1mS3Onm+Z1bAAApG78eL3+uilp2VLe3qbEZPt2PfWUYmIkqXdvffYZrWQAdxb7ZwDA/ebsWVku3ndV3Hdlez525htJKlBAQUEqX95UAeDulHY32WazOTbEjsRUAQBABjlyxNpKfuQRBQWl3B/+4Qe1b68bNySpc2fNn8+7oQHcceyfAQD3j4QEnTunbdsssTFTzz12ZpUkeXpq40bVqGGpAHCXSteP3ImnKhysyxlk06ZN/fr1q1mzppeXl5ubm6enZ9myZVu3bj116tTw8HBrdcr69etn+QP/W2RkpPVjAIBsYM8ea+Lnl3Ir+aef1Lq1rl2TpHbttHgx74YGkE1YNp/WZQAA7gk//aTSpVWunPr1M+XjNGaQ5kpSjhz6+mvVr29aBnA3S+On7qz55l14eHiXLl2CgoKcw6ioqLNnz549ezYwMHDs2LGrVq1q3LixcwEA4F5y6ZK6dLEeaqhaVc8+a0qS/PqrfH2VeA9pixZauVLu7tYaAMhyWbN/BgAgO3jnHV24YA3fzzvh9YjxkmSzadEi+fpaKwDczVLrJickJFijzDFixAhLK9nin3/+6dix4/Hjx/Pnz29dAwDcE6ZOTaaVfORIChdXHD+uli116ZIkNWqkNWuUK5e1BgCyXJbtnwEAuLMMQ3/+qQ0brHl/zXsn4jX7ZMYMde1qWgZw90v2Z/QsFRMT89VXXzmmXl5e8+bNO3LkyPbt25s2berIL168uH79esc0nXbt2nUyOblz57aWAgDukIgInT+vffusefv2KbSST51Sixb66y9Jeuwxbdgg/qkOAAAAZBXDUK9eqlzZmnfQ6jkabJ98+KGee860DOCekNrZ5Kxx+fLl6Ohox/TVV1/t37+/pGrVqi1atKhs2bKOpfPnzzvG6VS6dOnyvDMUALIrw9Dzz2v2bP37MF/Nmnr5ZWsoSefPq0ULnT0rSQ89pMBAeXlZawAAAABkmiNHtGSJNTw0bVuNkd1sMQmS9PLLeuMNawWAe0Kyh76yVNGiRT09PR3TXE5fVXYeSypXrpzzND06dOiQP39+d3f3okWLPvHEEx9//PHly5etRQCAO2TfPs2cmUwr+eOPdfCgSpe25goNVcuW+vNPSapaVcHBKljQWgMAAAAg08TGuixcaO0mNcq5r8YbfraYGEnq00f+/im/ShvA3c3693/Wc3FxGTp0qGM6derUnTt3RkVFnTlzZtiwYY68VKlSTz75pGOaTgcPHgwLC4uNjf3nn3927NgxZsyYqlWrpn5HMwAgayQkKKUbjFq2TG7zefmyfHx07JgkVaigrVtVrJi1BgAAAECmiY3VW281mjzZ1TlsU/G3rTnb2CIjJenJJzV3bgo31gG4F6T3pou9e/fu2bPn/9m7z7iorq0N4M8ZBJQmNiygYjfWqDEajYgXAUHF3mNvWKPGEo2vJbHEKCZq0BjRaOwFCzaKWFBjj42IGnvDhtKkDcx5PxwY5hxhQKO0ef4f7m/vtdcQ7v6Ai8U++9y/fz8qKio5OVm5rEMQhNWrVyujes2bNy8mJmbVqlWiKD5+/Lhly5aKhGrVqu3cufODXHb88uXLDh06nDhxolGjRso1IiLKKffuwdkZt24p46amGDUKDRsq44iORps2uHIFAOzsEBwMW1tlDhFRXvJR62ciIqJcceKEcOOG7OnArk0ebn/ijOiXANCiBbZuhbGxbgIRFTBZd5P9/PwmTZp06+3f+DMiiuJ7VMMmJiYrVqyoW7fu+PHj3y61u3fvvnr1agsLC0Vcjxo1anTu3LlFixaVKlWKiYk5f/78Dz/8EB4eLq0mJCRMmDDh2LFj8g+lSkxM1N7jHB0dDUCtVqvVallSXiJ9b3n5O8x13KIscYuyxC3K0rtu0S+/qG7dkp1ocHfXrF2bYmYGExMo/yl488aoXTvVuXMAxNKlk/39YWeHbP+38oh33SIDxC3KErcoS3q2SBTFDOMfQw7Uz0RERDnv5UssWCA7dFwCL71vuSDiIQDUr4+9e1GkiG4CERU8WXSTFyxYMG3aNACiKCrXPpx79+516tTp0qVLygUAwLZt2w4fPrxhwwZXV1flWkbmzp1rKz+w1rhxYw8Pj7p1675+/VqKhISEPHnypFy5crppkvnz58+ePVs3EhgYqHuzc94UFBSkDJEctyhL3KIscYuylM0tSkgwWru2NSDrJltZ3fzrrxu6EYkqKanJ3Lk2ly8DSLS0PDltWsytWxmcas4nsrlFhoxblCVuUZYy3CJRFN+8eaOMfgQ5Uz8TERHlsMhIfPYZ7t9P7yZbIOa8jbvN8+sAULUq349NZCD0dZMvXLgwbdo06biEkMEFlhl4j6I5JSWlbdu2165dk6YVKlSYP3/+p59+GhERsWTJEl9fXwAvX75s27bthQsX6tevL/twRhStZG1w4MCBixcv1kYuXbqUYTd56tSpEyZMkMbR0dHly5d3cXGxsrKSZ+UharU6KCjI2dnZmM+SZIJblCVuUZa4RVnK/hadPCl89ZVRbKzsnxV3d83SpVWsravoBgEgKcmoe3fV5csARCsrVWBgiwxuwcgfsr9FBotblCVuUZb0bJEoipGRkYrgB5cz9TMREVHO8/fH/fvpUxMknrTpZP/8HACULYvAQL7UhMhA6OsmL126VCqFkfYInjLjQ/D399e2kgFs2LChRYsW0rhZs2a1a9e+ceMGgJSUlAULFmzatEmb+a4qV66sO83s1wlTU1NTU1PdiLGx8du/kOQ1+eKbzF3coixxi7LELcpSdrZo0SJI7+fQ2rgRvXurMngxbHIyBg7EgQMAYG4uHDxo3KSJMie/yc4WGThuUZa4RVnKcItEUXw7+MHlTP1MRESU8zZvTh+rkLIRfeo9DwaAYsUQGIhKldKXiahAe+tXdx0hISG6pbCYDcovkQ3Xr1/XnTbUOUfHAOYAACAASURBVHRmZGRUt25d7TQ0NFQ7fg937tzRnRYvLrs2noiIPrb4eJw4gf37lfGMTxtrNBg0CNu3A0Dhwti7F82aKXOIiPKYnKmfiYiIctjOnfDz087EFRjRFb4AYGaG/ftRp452jYgKPH1nk58+faodi6LYpUuXdu3alStXzsTERCfrv1IcErl48eKXX34pjVNSUq5evapdMjJKvWHz3r17lXT+6nXkyBFHR0dpHBAQcOzYsSlTphSVX9bz5MmTP/74QzsVBEG3bU1ERB/bs2do3hy3byvjS5agZk1lEKKIkSOxfj0AGBtj5060aqXMISLKe3KmfiYiIsphGzakj+fiu2FYBaQV6l98kb5GRAZAXzfZ2tr6+fPnoigKguDp6ent7a3M+BAaN26sO+3bt+/8+fPr168fERGxdOlS6ZoLiSIzQ/Hx8fPnz1+2bFnPnj3d3Nxq1KiRkJBw7ty5H374QfsKPgDu7u42NjY6nyMioo9ry5YMWslnzyKDH+2iiG++wcqVAGBkhK1b4eamzCEiypNypn4mIiLKSTEx2LUrdTwBXtMwHwAEAX/+CVdXnUQiMgj6usk1a9Z89uyZNPbw8JAvfjBNmzZ1cHAICQmRpvfu3evVq5c8BQBMTEzGjRunjGYiNjbWx8fHx8dHuQAAKFGixC+//KKMEhHRxyGKuHQJCxcq42ZmqFVLGQSAGTPw889AWoXaqZMygYgor8qZ+pmIiCgn9emTOhiAP7wwMXXi7Y2ePdNSiMiA6Ls3uX///tqxtiz+4ARB2LFjRzO9t2EWK1bM19e3VsZdBxlzc3OVSt//qVq1ah0+fLhq1arKBSIi+jj+7//QsCEeP5YFGzeGry/MzWVBAJg/H3PmpI5XrULv3rJVIqK8LWfqZyIiohyTlJT64pMO2O2DIVIwZeZMjBihm0ZEhkNf47V3794NGjSQXiSycOHCmJgYZcYHUqpUqRMnTuzZs6dv3761a9e2srIyMjIqUqSInZ2di4uLl5fXrVu32rVrp/xYRpydnR8+fLhixYpevXrVrVvX2trayMjIzMysUqVKXbt23bRp06VLl+rVq6f8GBERfRzJyXj7aZDvv8fZs2jTRhnHkiWYNi11vHQpBg+WrRIR5Xk5Vj8TERHljP37odGgJY5uQU8jaADcdGuv0RbtRGR49N10YWJi4uvr6+Dg8OjRo2vXrjVs2HD69Onu7u6lSpVSpv5ngiB4eHhk83lAe3t7Pe+/LleunKenp6enp3KBiIhy1pMn2LoVb94o42kvW5VbtQraG40WLMCYMbJVIqL8ICfrZyIioo/t6VN07owG+NsPHoWRCCCqfe+wgV0rCYIylYgMhr5uMgB7e/sLFy64uLhcvnz59u3bgwYNAmBlZSUdH1ZmAwAEQbj99ouWiIjIwNy4gaZNERkpC9avj6FD0aqVLAgAGzZg+PDU8YwZmDxZtkpElH+wfiYiogIjJATVcNMfbawQAyCgUNv/bVmFoCBlHhEZkiy6ySkpKT/++GNoaKj0vJ50IjgqKioqKkqZmkbKJCIiA7dpk7KVXKQILl2SRVL5+qJ/f0gPnUyciFmzFOtERPkI62ciIioY7tzBhB6PTsLZBi8AHMeXx0Zt+5+xsTKPiAxMFt3koUOHrlu3DoAoioIgZFnp6rmAgoiIDMeRI/j+e2XQ0VEZAYD9+9GrFzQaABg5Ej/9hKz+rSEiystYPxMRUcEwtHNEIFwq4gGAy6jXHntfLTZLSVEr84jIwOh7C9/BgwfXrl2rnYpp0jOIiIjesngx/vc/ZXDwYKxbpwwiOBhdukCtBoABA7BsGVvJRJSvsX4mIqKCIe557LzL7rUQBuAWqrgioMcwa5W+HhIRGQp9Z5O9vb214yxPVRAREUlWrVJGlizB2LHKIE6ehIcHEhMBoEcP+PiA9SkR5XOsn4mIqAA4dTRR7dbZAWcBPEFZZwQ9Q5mhQ5VpRGSY9HWTr1y5or3uTRAEnqogIiL97t7Fvn24fl0WVKkyOKqM8+fh5oa4OADo0AHr1yOTl1MREeUjrJ+JiCi/06hTXrr1bZ8QBOA1rF0RcA+V7t9HhQrKTCIyTPpOgb18+VI7trCw+O23365duxYZGZmUlKTJXEpKis7XICIiQ/H6tWmzZoW++UYWrFkTe/eiTh1ZEFeuwMUFMTEA4OKCrVvBt3kQUYHA+pmIiPI3UYwbOKp9wnYAcSjSFvtDUbd8ebaSiSidvrPJZcuWvXfvnnSwYs6cOcOGDVNmEBERpfn7b5uICOVj3YcPo2xZeej6dTg74/VrAHBwwK5dMDWVZxAR5Vesn4mIKP+6ehWnnaYPfbESgBqFusD3FJoBmDFDmUlEhkzf2eRWrVppn86rVauWfJGIiCjdmTOCt3cDRbBBg7dayXfuoHVrPH8OAE2aYN8+mJnJM4iI8jHWz0RElH+FdFw89MU8ABoI/fCnP9wAPHqEIUOUmURkyPR1k0eOHKlSqaSr3y5duqRcJiIiAgCcO4dWrYw0GtnB5IkTceCAbgB4+BBOTnj8GAA+/RQHD8LSUp5BRJS/sX4mIqL8SBQRvWzdqDupl9aNxq9b0AtAo0awtZVlEhHp6yY3bNjw22+/FUVRFMW5c+devHhRmUFERATs2oXkZFkreexYLFyIMmV0Qk+fonVr3LsHALVqITAQxYrpLBMRFQSsn4mIKN+5exdjKvqZjR0sTWdg9gqMBGBujnnzZJlERNB/b/KDBw+GDRt2+/btrVu3RkZGNm3atEePHu3atatRo0bRokVVqkw70RV4PTsRkcHYsQPz58sigoAOHWQRRETA2Rk3bwJA1ao4dAilSskziIgKAtbPRESU7+z8+tiih90LIQXAUoz5Af8HICAALVvy/SZElAF93WR7e3vpMT0AgiCo1eqNGzdu3LhRnqUkCEJycrIySkREBdGmTejTRxkMCMD//qczj4yEiwtCQwGgQgUEB791mzIRUQHB+pmIiPIRUcTjfReH7PUojEQAG9F7HH4BBGtrtGoFY2NlPhER9N90AUB6TE8aC4IgTbMk/xpERFRg7dmjjCxbBmdnnXlsLNzd8fffAFC2LIKDwfN3RFSg6dbDrJ+JiCjPSk7GCKebJh6uRREN4ADcBmCtCFWxYli+nK1kIsqUvrPJAKSzFVKNKwiC9qhFZlgKExEZjqNHsW2bLGJhIbZtq/MvRXw8PDxw6hQAlCyJQ4dQtWr6KhFRQcT6mYiI8oVzux9/e8TFBi8AnEDzrtiRDOP169G7NzK/mYmIKKuzyZLs1MFERGRQrl+Xn0EGSpd+c/x4cqVKafPERHTpgiNHAMDaGkFBqFUrPZuIqEBj/UxERHnZs7BXdoNd7HEfwGXUa4d98TAD0LIlW8lElIWsf0ikPX6XLcoPExFRAXXoEBSXfHp6Xq5dO22SnIxevXDwIABYWMDfH59+mp5KRFSgKUtkvZQfJiIi+siO7I29V9u9fPQ1ALdRuQ38o2BdvjyWL0f58spkIiIFfTddODg48EgFERG97do1jBkji9jbi7VqRaROUlLQvz927QKAIkWwfz+aNNHJJSIqsFg/ExFRXpeUZDWoSyPxDIBwlHFG0FOU7dZNeYUdEVFm9HWTjx49qgwREZHBS05W3nEB4Pjx5AsXNACg0cDTE5s2AYCJCfbsgYODPJeIqMBi/UxERHnZg7spmp59G70MBBCJoq4IuIvKAJo2VWYSEWUm65suiIiIdIWF4ckTWeS771C6NABAFDFuHHx8AKBQIezYkUHjmYiIiIiIctyVy2JQ9VH2Z7cBiEORtth/FfUAfP01Ro9WJhMRZUbf2WQiIiKFgAB06iSLWFigVy8AgCiqvvsOy5YBgEqFjRvRvr0slYiIiIiIcsmz4TMGJ68EoEahrtjxF5oDOHMGn3+uzCQi0oPdZCIiyq6nT9GunfLle5cvo3JlqNWovm2b0ebNqdE1a9C9uyyPiIiIiIhy3IkTCAlBo+O/uJ6ZI0X6Y91BuAOwtka9erJkIqIs8aYLIiLKrlOnlK1kBwdUrgwAqp9//kTbSl6+HP3762QREREREVEu2LEDLVog7Lv1rv7jpcgYLN2M3gC6dEFgIAoXluUTEWUptZs8a9asV69eyZf+q4iIiClTpiijRESU30RFYdAg1KqFkSNlcUHAqFEAgOXLjbQ/8L28MGJEehIRUQE1ZcqUiIgIZfS/Yf1MREQf1p9/oh32/oGB0nQWZv6KMQB8fLBjBxo3liUTEWVHajd56dKltWvXnjx58t27d+UJ7+PevXsTJkyoVKnSokWLlGtERJTffPst/vgDYWF4+lQWDw1F9+7A2rVpTWWkzJyJCRNkSUREBdTChQsrVao0fvz4O3fuKNfeHetnIiL6sHbswJgxiNwbsg3dCyEFwDKMno2ZAExM4OSkzCciyqb0my7i4uKWL19ep06dtm3bbt269c2bNzpp2RIfH799+3Z3d/dq1aotWbIkNjZWmUFERPnQX38pI0DqaWVs3YrBg6XIzS5dNNOmybOIiAqyN2/eLF26tEaNGm3atNmyZQvrZyIiyiN8fNCtG47/emkv2hdBAoBN6LWl6ZIuXYTBgxEcDHt75UeIiLJJ9hY+URRTUlIOHTp06NAhU1PTVq1aOTk5OTg41KlTp3AmV+kkJiZevXr1xIkThw8fDg4OTkhIACCKojKPiIjyoZQUTJuGK1eUcQsLjBgB+Pnhq6+g0QBIGT06zMmpkiAoU4mICjSpfg4KCgoKCmL9TEREeYSvL6ri3wC4FkU0gANwG4C1hxaoHByUmURE70rWTRYEAWm1bEJCgr+/v7+/PwCVSlWxYkU7OzsbG5siRYqIohgfH//ixYtHjx7dv39fo9FIH9cWwbpfh4iI8q8tW/DTT7LIvHmoUwdNmsDmUiC6dUt9K9+QIZpFi+DvL0slIjIArJ+JiChPOXkSPj647P/kJFxK4zmAk2jWFTtK25k0aaJMJiJ6D6nd5HXr1s2YMeP+/fuCIEi1LHTK2ZSUlDt37rx9pbKi3tV+EIAoivb29l5eXjrrRESUz5w9q4z07Qs7OyAkBB07IikJAHr3xm+/SSeUiYgMx44dOyZNmnT37l3Wz0RElEc8egQnJ5glvgqBSyXcA3AVdYaV3Td1hFn//jA1VeYTEb2H1HuT27dvf/78+Xnz5pUsWVL3iIQu8S2KBOlToiiWKlXKy8srLCysU6dOUpCIiPKdwEAsXSqLDB4MOzvgzBm0bYv4eADo3Bnr1sHISJZHRGQAOnfufO3atYULF5YqVUpk/UxERHnA0aMwSnyzH23r4B8Ad1DJFQE+vsX+7/9QoYIymYjo/aS/hc/U1PTrr7++cePG4sWLq1SpItW7OpnK4lhb/kqk/MqVKy9ZsuTOnTvjx4835Z+9iIjyreRk9Okji/Tpg1WrgEuX0KYNpPdEublh82YUkl2aRERkOExNTb/55ps7d+788ssvrJ+JiCgXiSJ++gmD+ib5ossXOA3gKUq7ILBYrXKNGyuTiYj+i/RussTMzGz06NFhYWGHDx8eMmRI6dKlpTJXS0pTBEuUKDFgwIBDhw7dvHlzzJgxZmZm8q9KRET5zOPHePlSFmnXDkLYNTg7IzISAFq1gq8vTExkSUREhsfMzGzs2LE3b948cuQI62ciIsoV69Zh6pSUP9GvDQIARKKoKwK+XVX1+HGe/SCiDyzTHyotW7Z0dHQEcPXq1dOnT1+6dOnu3btPnz6NjY0FYGZmVqZMmUqVKtWvX79Jkyaffvqp4qgFERHlX8nJ6NFDFmnWDB61bqF169Qec7Nm8PNDkSKyJCIiw9ayZcuWLVuC9TMREeW4Y0fFpRjbE1sBxKNwO+xzGF1/yBBlGhHRf5dpN1mrbt26devWVUaJiKjg2r8fZ87IIic23hdaOiE8HAAaNcKBA7CwkGUQEVEa1s9ERJST/voL9utmjcJyAMkw6oodl8y/XDpQmUZE9EEob7ogIiL6+2/ZtG2DJ0JrJzx4AAB16iAgAEWLyjKIiIiIiCg3pKRgf5ulM/G9NB2Ata+atr12DQ0byvOIiD6QrM8mExGRQfHywveptSgAlMSLrRGt8eA2AFSvjqAglCiRvkxERERERLknYsmGuTFfS+OxWLIRX/lNQ4UK8iQiog+HZ5OJiCjdixeYPDl9ao3XF0s4mz8IAwB7ewQHo0yZ9GUiIiIiIso9xybvL/7NAGk8GzOWYeznn6N1a1kOEdGHxbPJRESUKi4O/v7QaFKnloj2Rxu7iMsAYGuL4GDY2emkExERERFRrokLOP75wq6FkALAGyNnYRaAEydgbKxIJCL6kHg2mYiIAODXX2FtjX79UqdFELcP7ZrgLADY2CA4GJUr66QTEREREVHuuXzZpGv7IkgAsBk9x2AZIDRtylYyEX107CYTERHi4jB5MtTq1KkpEnajowOOA0Dx4ggKQo0aOulERERERJR7bt1KaOlaKDYKgD9c+2OdCJWZmez1J0REHwlvuiAiMnQJCThwAPHxqdNCUG9DdxcEAYCVFQICUK+eTjoREREREeWeJ09EZ+fCUc8AnELTLvBVwwTAy5coUkSZS0T0wbGbTERk0I4fR9u2iIlJnaqQsgFfeWAvAE0RM9WBA/jsM918IiIiIiLKNa9fw9VVuHcPwFXUaYv9cTAH0KEDW8lElEN40wURkUH74Yf0VrIAzWoM7oFtAGBqqtrrh+bNdXKJiIiIiCj3vHmDdu0QGgrgLuxdEfAaxQHY2WHOHGUuEdFHwrPJREQGKikJly4hKEgbEH/F6AFYBwDGxti5E05O2jUiIiIiIspNSUno2hV//QXgGWycERSOctLKgwcQBFkuEdHHw24yEZEhCg9Hixa4fVsbEBdi0kisACAaGQmbN8PdPT2biIiIiIhykUaDAQPg7w8gClauCLiNqtJK06ZsJRNRjuJNF0REhmj9et1WMmZh1kR4AYAgCOvWoUuX9DUiIiIiIspFooixY7F5M4AEoXB77L2MT6UVCwusWCHLJSL62Hg2mYjIgKSk4MIFPHuGY8fSg5OxYCa+T52sXIk+fdLXiIiIiIgod82eDW9vABqVUTfNtuNw0K7cu4cSJdITiYhyALvJRESGQhTRpQv27JEFR2PZAnybOlmyBEOHypaJiIiIiCgXLVuG2bOl4ermf+w73l67UrkyihfXzoiIcghvuiAiMhTXrytbyYOwehnGpk7mz8fYtDEREREREeW6jRu1JXqY5y/DjvfVXdy2jTcmE1EueIezyUeOHNmzZ09ISMiTJ09evXql0WhCQkKaNm366NEjbU7p0qVNTU11PkRERLnvyhVcuYLQUFmwFzatQtpJ5OnT8W3aCWUiIvpAWD8TEdH7O3AAAwakjqdPn3r1a93FMWPQqJFugIgoh2SrmxwWFjZkyJDTp08DEEVRCgqCAEClUrVu3fp22rucZsyYMXPmzLTPERFR7vP2xujRymBXo11/pvRTQQSACRPwfdq9yURE9CGwfiYiov/kxAl07YrkZADw9Hww5Ps99rL1li1lUyKiHJP1TRf+/v5NmzY9ffq0KIpSKSzVwVrDhw+XlkRR3Lhxo+4SERHlup9/Vkba4OAmTY9CSAEAT08sWsRn5IiIPiDWz0RE9J9cuYJ27RAfDwDduz+Z9mujz2T/jjg6onNn3QARUc7JopscGhravXv3mJgYURSFNIqcnj17Iq1Evn37dlhYmCKBiIhy3osX2LABy5fjwQNZ3BFHdqKzsagGgH794O3NVjIR0QfE+pmIiP6T27fh6oqoKABwccH69fsOGr18KUuZPZslPBHlmiy6yUOGDImNjdUtgqXjFbpsbW0bNGignQYHB+ssEhFRLoiIQKNG6NsXo0ZBrU6P97b/a7+qfREkAEC3bli9Gqos/iEgIqJ3wvqZiIjeX3g4XFzw9CkANG2KnTvPXzEZPlyWUqwYGjeWRYiIcpK+JkJQUNDZs2d16+C3S2FJs2bNpMMXAM6dO6dcJiKinLV/Px4+VAYb4sL6CDczzRsAaN8eGzagULZuzyciomxi/UxERO/v9Wu4uuLOHQCoXRv791+9Y968uTLr2DEUKaIMEhHlGH3d5D179kgDqQgeP378w7ebEwCAevXqSQNRFPmkHhFRbomIwKpVmD8fW7Yol2ojNNjIRRUTDQDOzti2DSYmyiQiIvpvWD8TEdF7iotD+/a4ehUAKlZEQACKF/fzQ1KSLGvSJNStK4sQEeUwfafSjh8/LgiCdGjC2dnZy8tLmZGmTJky2nFmFTMREX1UiYn44gv8+68yXro0Wle46R3aumj8KwBo0QK7dqFwYWUeERH9Z6yfiYjofajV6NYNJ08CQKlSCAq6+Nz29zn47TdZlkqFDh1kESKinKevmxweHq4d9+nTR2dFydLSUjuOjo7WWSEiohxy8mQGrWQAnq53Zx12QvwzAPj8c+zbB3NzZRIREX0IrJ+JiOidaTQYMAAHDgCAlRUCAl6VqObQELGxysTgYLx98QURUQ7T102OjIzUjm1tbXVWlF69eqUdazQanRUiIvq4LlzAvn2Ij8f168olALZ4NDnACc8eAUD9+jh4EFZWyiQiIvpAWD8TEdG7EUV8/TU2bQKAwoWxdy8aNAjZnUEr+aef4OioDBIR5Tx93WQrK6vXr19L4+fPn8sXZe7evasdW1tb66wQEdFHdO4cmjeHWq2MlyiBZs1QGs+8zjuZhd8FgJo1ERiI4sWVqURE9OGwfiYionfzww/49VcAMDLC1q0vazlM98TKlcosCwt07KgMEhHlCn1v4StZsqR2HBwcrLOitHHjRu3YxsZGZ4WIiD6iHTsyaCUDcHCA3x8Rq+45W4XfBIAqVRAcDP58JiL6yFg/ExHRO/D2xsyZqeM1a+DhMXBgBq3kn37C+fOoVk0ZJyLKFfq6yQ0bNpReISKK4saNG0+dOqXMAACsXLny0qVL2veNfPbZZ8oMIiL60Pbvx9dfY+9eZVzS2SkKrq6pr4QuXx7BwShXTplEREQfGutnIiLKrs2bMWZM6njxYvTrB+DIEd0MAOjfH5MmoUYNZZyIKLfou+nC0dFxy5YtAARBSEhIcHZ2/uqrr3QTdu7cuWDBgn379gmCoA068iIfIqKPzNcXXbsqg59+ijp1YGyMNl/GdlvtjgsXAKBMGQQHo2JFZTYREX0ErJ+JiChbDh5Ev34QRQCYNi1myPhxg3H4MN68kWWZmGDwYFmEiCjX6esm9+rVa/LkyTExMQAEQYiLi1u1ahUAURSl//3555+lgbYaLlasWLdu3dK/BBERfQS+vsoIgOHD4ekJxMejXQf89RcAlCiBQ4f4UBwRUY5h/UxERFn76y906YLkZAAYPhxz5sz8BmvWKLPmzUO3bqhaVRknIspd+m66sLS0nDBhglT7ApCexdNNEEVRWwpLg4kTJxYuXFg3h4iIPhSNBitXol8/HD2qXDI3R5s2QFISunbF4cMAULQogoJQu7YylYiIPhrWz0RElIWrV9G2LeLjAaBbN3h7QxDevhjJzAzffMNWMhHlRfq6yQCmT5/eokUL3YJYd1UQBN2Ig4PDlClTdNaJiOhD8vKCpyfWr0d4eHrQyQlTp+Kvv2Bvl4zevXHgAABYWMDfHw0apOcREVGOYP1MRESZunMHrq6IjAQAZ+dEn/WDhxmVKIHTp5WJEyfCxEQZJCLKC7LoJqtUqn379rm4uOgWxFraNFEUnZ2d/fz8FOUyERF9QH5+ygiAceMwbx7q1U7BgAGpV2AULox9+9C0qTKViIg+PtbPRESUsadP4eKSejDk88+xc+cfm0zXrMGrV7Ks0aMRGopZs2RBIqK8I4tuMgBLS8sDBw6sWLHC1tZWejRPoWzZssuXLz9w4IClpaXyw0RE9J9dvIhBg9C+PS5fVi7Z2sLRERBFjBiBjRsBwMQEu3ejZUtFJhER5RjWz0REpBQZiTZtcPs2AHzyScreA9EaizNnlFkAxo1D7drgnxqJKM/S9xY+LZVKNXz48GHDhp0/f/748ePh4eFRUVHW1tZlypT58ssvGzduzCMVREQfSUwMHB0RHa2M9+qFRo3QowcszEWMG4dVqwDAyAjbtsHVVZlNREQ5i/UzERGli4tLPxtSocKWQYEjapSQrrtQGDIEVaoog0REeUq2uskSQRAaN27cuHFj5QIREX00Z85k0EoGMHUq6tYFAEz7DkuXAoAgYMMGdOggyyMiotzD+pmIiKBWo3t3nDgBAKVKxe0JGtTMTnoJn64ePbBwIcqXV8aJiPKarG+6ICKiXPH8OYYPh7OzMg6gcWPUqQMAmDsX8+enRlevRs+e6UlERERERJS7NBoMGoT9+wHA0hL+/n+9rP52KxlA375sJRNR/vAOZ5OJiCgnffUVgoJkEXt7eHqiTBl06gRBAH7+GdOnp655e2PgQFk2ERERERHlIlHE+PHYsAEATE2Td/p1+6Hh7t3KLEFA9+5wcVHGiYjyJn3d5MjIyC5duohpb6Pu2rXryJEj5SkA4O3t7evrK41VKpWvr2/RokXlKURE9G5EEUeOKIONGmHKlLTJb79hwoTU8cKFyOjnMxER5TDWz0RElG7OnNQr6VQqbN16KNlR0Uq2tcXp07CwgLW1LE5ElJfp6ybv27fvyJEjgiCIomhiYrJx40ZlBgCgW7duEydOTEpKEkVREAQ/P7++ffsqk4iIKNsSEzF6NJKTZcFChTB0aNrkzz8xYkTqeNYsTJyYtkBERLmJ9TMREaVavhwzZkjDh7NW3y7a4eAueQLQsCHs7JRBIqI8Tt+9yceOHQMg1bjt27cvW7asMgMAYGNj07FjR+0RjMOHD8vXiYjo3cybBx8fWcTLC1euwNUVALB9e/qlFpMna4tUIiLKdayfiYgIALZswejR0vC3al4VZgxo1Sr1mLJWgwZYuFAWISLKF/R1ky9duiQIPHCW9QAAIABJREFUgjRu3bq1fFGmVatWAKRTGFeuXFEuExHRu5Be+KxlZYXx4/HJJwCAvXvRuzc0GgAYPRo//oi0H9RERJTrWD8TERH8/dG3L0QRwIM+U0f8m3Y9nY5+/fD336hRQxknIsr79HWT7969qx1XqlRJZ0XJ3t5eO75//376AhERvYtLl+DkBMUZtfHj0zrGQUHo2jX1CoxBg7BkCVvJRER5CutnIiJDd+oUunSRKvY7TkN/tJyrTAAAfP65MkJElF/ouzc5OjpaOy5USF+m7mpMTIzOChERZZcools33LolC86ciZkzAQDHj6NDByQlAUCvXvj9d6j0/UWQiIhyHutnIiKDFhqKtm0RFwdgl6pL1+AVmuD0wx/GxrC2RuHC8PDQeSEKEVF+o6/GNTU1jYuLk8b6T0w8ePBAOzYxMdFZISKi7Hr1StlKBtC5MwQBOHsWbdsiPh4AOnbEunUwMlKmEhFRbmP9TERkuO7ehYsLXr8GEFraqeezjRrIKnYPD+zYoRsgIsqX9J1rK168uHa8d+9enRUl3dVixYrprBARUdaSkjByJEqWVMbbtkXdusDly3B1hXRyrU0bbNkCY2NlKhER5QGsn4mIDNSzZ3B2Rng4gIS6jb94tisJpoqUFi0UASKifElfN7lChQrSC6lFUfTz8wsKClJmAAAOHTq0e/duKU0QhIoVKyoziIhIr7VrsWKFMnj2LPbsgXA9DM7OiIwEAEdH+PrCVFmYEhFRHsH6mYjIEEVGwtUVt28DiK/0SbV/D8TCUrtYoQI++wzffYdRo9I/QUSUf+nrJn/xxRfSQBAEjUbTsWNHb2/vJOnKTgBAUlKSt7d3x44dtRHofIqIiLLp/HllpEYNNG4Mo3u34eSEFy8AoGlT+PnBzEyZSkREeQbrZyIigxMfDw8PXL4MABUqeLkEPkqQPXK4ciXOncOcOdB7nT4RUb6hr5vs5uYmDaRDE/Hx8WPHji1evHjz5s3d3d2bN29evHjxsWPHau+Gk7i7u+tOiYhIj/37UaUKVq2SBVUqzJoFPHgAJyfpcTk0aICDB2GZfsaBiIjyINbPRESGRa1Gjx44fhyAWLLklkGB/7fSTnfd3Bz8iyERFTD6/jTWqlWr2rVrX7t2TRAEANKzeHFxcadPn5YSRFGU4tJYEITatWs7OjqmfwkiIspccjL690dEhCzYqRN+/x0l1eFwcIL0BqfatREYCGtrWR4REeU9rJ+JiAyIRoPBgyHdg29hMa2B/4+zaihSDh9G0aKKGBFR/qbvbDIALy8v3akgCFJNLJGmuquLFy/WSSciIn0ePVK2kgEMGICS4gu0bo1btwCgWjUEBWXwhj4iIsqTWD8TERkEUcSECVi/HgBMTdW+fouONFKk/P47Pv9cESMiyvey6Ca7uLhMnTpVOkOhJRXBunWwZNq0aa1bt1YEiYgoQ/v3o1IlZdDVFa5NIuHqimvXAKBiRQQHo2xZZR4REeVVrJ+JiAzCvHlYsgQAVCr1+i1TA1slJ8vWixSBi4ssQkRUMGTRTQYwZ86cBQsWGBkZKWpiLVEUVSrVggULvv/+e+UaERFlRKPBsGHK4L17OLgtxrSjGy5eBIBy5RAcjPLllXlERJS3sX4mIirgfvsN06enjn18Rh/qKH8uBSNG4PhxVKwoCxIRFQxZd5MBTJo06Z9//unTp4+VlZX2MT2JlZVVnz59/vnnn0mTJik/RkREGRFF3LyJJ09kwebNUbFUnODRHtLdmqVKITgYVarIkoiIKJ9g/UxEVGBt24aRI1PHCxdi4EDp5mQta2ssX45GynsviIgKCH1v4dNVrVq19evXp6SkXLlyJTw8PDIy0traumzZsvXq1TMyMlJmExFRJm7eRLt2+PdfWbBIESz4PhGdO+PYMQAoVgxBQahZU5ZERET5CutnIqICKCAAX30F6dGTKVPC2k6c3w/h4bKU3r1lUyKiAia73WSJkZFRgwYNGjRooFwgIqLsmTNH2UoGEPNKbdSzBwICAMDSEgEBqF9fmURERPkQ62ciooLj9Gl07gy1GgCGDEmZM9/ZHo8fy1JmzcJ338kiREQFTLZuuiAiog8iKQm7dyuDDeunGA3shz17AMDMDAcOoHFjZRIREREREeWif/6Buzvi4gCgc2f89tuNm4KilaxSYfx4FHq3Y3tERPkMu8lERDnk0CGULImYGFnQtqxmf7mh2LIFAExNsWcPvvxSlkFERERERLlKvHsvtrkLXr8GcMrMqV7opk/qGLm7K9P69IGVlTJIRFTAZPdPZmfPnj179uz9+/ejoqKSk5OVyzoEQVi9erUySkRk8L77TtlK9t0hdjo8Vlj+BwAUKgRfX7RuLcsgIqJ8i/UzEVEB8exZfAtni6gnAM7hM5e4XbE3TZU5wN69aNNGGSQiKniy7ibv3Lnz22+/vX37tnIhI6IoshomInpbUhLOnpVFVILoemSKsNwbAFQqbN6Mtm1lGURElD+xfiYiKjiiouDmZvb4FoDrqOGGg7GwVOYAzZujXTtlkIioQMripou5c+d269bt9u3bYvYoP09ERMCdO6hcWRk85fa9ufdCABAErF2Lrl2VGURElA+xfiYiKjA0b+Lv1PXAxYsAHqC8M4IiUFKZlHZdMhGRgdB3Nvns2bMzZswQRVEQBEEQlMsZYUFMRPS2FSuU73p+NfWnYvNnpU5++w19++quEhFRPsX6mYiowBBSUl4596n8MATAC5R0QeAjlAfQvj369UtPU6nQoAEqVUqPEBEVbPq6ycuWLZNKYaQ9gqfMICKirIgi/PxkkW8tfi02f0rq5OefMWyYbJmIiPIt1s9ERAWERvPpr7+WPX8EQAws3HDwBmpKKy4ufKqQiAyavm7yiRMndEthnpsgInoPgwbh5s306UCsmR87JnUydy7GjUtfIyKifI71MxFRQSCKcaOmVDhyBEAiTDpgzwV8Jq3UqoWePWW5RESGRl83+enTp9qxKIotW7bs1q2bnZ2dmZlZoUKFeNSCiChLDx9i7dr0aU9sXi0MgdRbmDYN06alrxERUf7H+pmIqCD48ceiq5cASIGqFzYfwf8AfPEFvL1Rty4K6eujEBEVfPp+CpqbmyclJUkHK9zd3ffu3avMICKizGk02LYtfdoRu9ajryCdUxs3DnPmpK8REVGBwPqZiCjfW7lSe+ZjGH7fhc7SeOBANGiQnkVEZLBUyoCOSjrXyHt6euqsEBFR1oYPx8SJqWNX+G9Fj0JIAYBhw7B4MXhCjYiowGH9TESUv23fLo4YIQ0nY8EaDJbGjo684IKIKJW+brKHh4f2rjeVSl8mEREpRERg9erUcUsc3YVOJlADQN++WLGCrWQiogKJ9TMRUT4WFIQ+faRHCRdg8kJMlsJr1uDIEVhaynKJiAyWvhp32LBhVlZW0v1u+/fvVy4TEVEmXr7Ezz9D6ic0xal9aFcECQDQtSvWrAH7C0REBVSO1c9r164Vsmet7v39mRswYIDyk2+JjY1VfoyIqMA4c0bs1AlqNQAfDP4WP2pXnJzSs4iISF9Ho3Tp0l5eXqIoiqK4cuXKrVu3KjOIiOgtT5/i008xdy4ANMDfB+FmgTcAkl3bYuNGvraDiKgAY/1MRJQvXbuW0sZdePMGwE508sRvQOqjhAsWoEIFWS4RkYHT19R48OCBs7PzkCFDfHx8UlJSevfuvWbNml69etWrV69YsWJGRkbKD6SpwJ+1RGTAdu/G48cAUBuhgXCxRhQAODkV2r0DJibyXCIiKlDyYP1sY2OjDBERka779+HiYhT5CsBhtOqNTSlprZLISHXRosayZCIig6evm2xvby+k3ewpCIIoiocOHTp06JA8S0kQhOTkZGWUiMgAaDQICEh981413DyE1iURAeBm6S+r79mDwoUV+UREVMDkWP3ctWtXR0dHZRQA0KFDhytXrkjjqlWrtmnTRr6etePHj9vZ2SmjgLm5uTJERJTfPX8OZ2fpMMh5NOqI3YlILdrLl482MysiSyYiIv3dZADat4ggrSDWWSQiIpkpU7BoEQBUxL1gOJXBMwD3bT4re2E/+Bs4EZFhyJn62cLCwsLCQhkFzpw5o20lA5gwYcJ7vAzQzs7O3t5eGSUiKniio9GmDf79F8B11HDDwRhYSSuNG2t69vwbaC7LJyIi/fcmA5BeuAFAuv1Nmuqh/DwRkcEQRaxaBQDl8DgYTuXxCEB4qXoVwwIsbVOrUiIiKvC0VXGu1M8LFy7UjkuWLDlgwID0tWzr0KGDtbW1iYmJjY2No6Pjjz/++OrVK2USEVF+l5AADw9cvAjgIexcEPgSpaSV33/HyZMpVapEyfKJiAhAlt1kyUcqdomICoyTJzF9OqKiUArPD6F1FdwBcB01bnoHoXhxZTYRERV0uVI/37lzZ9euXdrpqFGjihR5n2e0r1y5EhUVpVarX7x4cezYsalTp9aoUSMwMFCZR0SUfyUno2dPHDsGIN68hAsCHyL9/vpmzdITiYhIIYubLiB/WI+IiN62Zw86dgSAYngVBOdPcB3A48KVwxYGd+rGdx8RERmc3KqfFy9erNFopHGRIkVGjRolX39/L1++7NChw4kTJxo1aqRcIyLKd0QRQ4dizx4AicbmDm8OXscn2sU//0Tt2lCr09OJiEiXvm6yg4NDDp+nICLKjzZsAABLRPujTX1cAfAQdmWvBneqaqvIJCKigi0X6+dXr1798ccf2mn//v1LlUp9ZDubatSo0blz5xYtWlSqVCkmJub8+fM//PBDeHi4tJqQkDBhwoRjx47JPwQAiYmJiYmJ0jg6OhqAWq1Wf+ROjPT1P/Z/JT/izmSGO5MZg9sZUVR9+63R2rUARBOTbka7zqsbaxfLlxd79kxWqw1vW7KNO5MZ7kxmuDOZyfs7I4piht+evm7y0aNHlSEiItJx7Rq2bsWOHTDDm/1o+znOAXiK0t87BK+qaq/MJiKigi4X6+cVK1bExcVJY5VKNWHCBPl6FubOnWtra6sbady4sYeHR926dV+/fi1FQkJCnjx5Uq5cOd00APPnz589e7ZuJDAw0MzMTDfykQQFBSlDBIA7kznuTGYMZ2eq+frWWr8egKhSBfT7dq+Ps2y12sMDBy5qp4azLe+KO5MZ7kxmuDOZycs7I4rimzdvlFH93WQiItLj4UM0bYqYGJgiYTc6tsAJAC9RYtvQQ4sWVldmExERfTSJiYm//vqrdtqhQ4dq1arprGdN0UrWBgcOHLh48WJt5NKlS293k6dOnaptXkdHR5cvX97FxcXK6uO+gVatVgcFBTk7OxsbGyvXDBt3JjPcmcwY1M4Iq1cXWr9eGsf/stz962G6qwMGaBYvLmthURYGti3vhDuTGe5MZrgzmcn7OyOKYmRkpDLKbjIR0Xvz90dMDIyRtANdnXEIQCSK3lwWOHZ0HWUqERHRx7Rhw4anT59qp5MmTdJZ/E8qV66sO83wNwpTU1NTU1PdiLGxcc78XpRj/6F8hzuTGe5MZgxiZ3bsgPZC+R9/PF59uO4t90ZG8PFRGRmp0kMGsi3vhTuTGe5MZrgzmcnLOyOKYobfm+wHJRERZVN4OEaMgBGSN6JPO+wHEAvz3tYH6w1oqEwlIiL6mERR1D0+3Lx58y+++EJn/T+5c+eO7rR48eK6UyKifOPQIfTpA+lVpRMnBn46uUsX2XrbtjAykkWIiChD7CYTEb0zUUTr1tCkaNZgUDfsABCPwpt77V1y9gsLC2UyERHRR3XgwIFr165ppxMnTtRZTHfv3j1Bh+4VzwEBAdOmTYuKikrPBgA8efJE981+giA0bMg/mhJRPnT2LDp2RFISAAwcGNLupzZuguIuUOnF2kRElKXs3nRx9OjRgICAv//+++XLl1FRURrpD3oZEQTh9u3byigRUQHy77+4dk1cgZH9sB5AEozXd9o1bFMrZR4RERmwHKufFy1apB1Xr17dw8NDZzFb4uPj58+fv2zZsp49e7q5udWoUSMhIeHcuXM//PCD9hV8ANzd3W1sbHQ+R0SUH4SFwd0dUvO4Y0f8/rvft4LuHRcAuneHpaUsQkREmcm6m3zjxo2vvvrq77//lqai4ofuWwRBUIaIiAqWtX+IizHBEysBJMOol2rrNxPbKJOIiMhQ5WT9fOHCBd1TxhMmTFCp3vPpw9jYWB8fHx8fH+UCAKBEiRK//PKLMkpElMfdvw9nZ0REAEhu4fh/9psvtisUGqrM6tFDGSEiosxk0U0OCwtr3rx5VFSUbhGsp97NslYmIsrvTp6E2Y//Nx6/ANBA6Iv1E090+nAXVBIRUf6Ww/Wz7sFkGxub/v376yxml7m5uUql0nN6ulatWps3b65atapygYgoL3vxAi4uePwYABo2HFxiz5+/FFbmAEFBaN1aGSQiosxk0U0eMGBAZGSkdLeaco2IyCDFTZ83HXOl8RD43GzYi61kIiLSysn6+cGDBzt27NBOR40aVbhwBo2SLDk7Oz98+NDPzy8kJCQ0NPThw4cxMTGmpqalS5du1KhR586du3btmuEbvYmI8q7oaLi54eZNAKheHQcP7qlupcwBfv+drWQionejr5t86tSpc+fO6dbBmZ2wEEUxB8plIqJc93rmL85Hv5PGo7HsDwxa8j6HwIiIqGDK4fq5QoUKarVaGc2Evb29nnPQ5cqV8/T09PT0VC4QEeVHCQno2BEXLgCAre3D1YHjRti89apRlC6Ndu2UQSIi0k9fN9nX11caZFh3aoPSyYsMc4iIChLBx6fY9+Ol8WQs8Mbohg0xdqw8iYiIDBjrZyKi3JecjF69cOQIABQvjsDA7oMrnj4tS5k5E7a2aNsWZcvK4kRElCV97+jQvjkEgL29/bNnz5B2pEIQBI1GEx4e7u3tbW1tLYqilZXVvn37NBpNSkqK9lNERAWG3dGjRqNGSePZmLEQkwEMGKCbQkREho71MxFRLhNFDBuG3bsBwNwcBw+qq9VStJJNTTF1KoYORblysjgREWWHvm7yrVu3pEMTgiD069evVKlSioTSpUuPGDHi+PHjlpaWMTExHTp00B7HICIqSARf3wZLlgqiCGAhJs7CLACWlujUSZFIREQGjfUzEVEumzIFf/wBAMbG2L37tObzTz5RpowaBVNTZZCIiLJJXzc5SudWoTp16uisyNSqVWvMmDGiKKakpAwZMuTRo0fKDCKifG3/fqO+fVWiBoA3Rk7GT4AAICwMdnbKXCIiMmSsn4mIctNPP2HhQgAQBGzaJDq17tkTt2/LUo4cwaJFsggREb0Tfd3kN2/eaMclSpSA/M0hCQkJ2nHLli2l1ejo6FWrVmnjRET5XnAwunQRkpMB/IEBY7BMaiVXqQJbW2UuEREZONbPRES5xscHU6akjn/7LaVT12fPcP++LMXGBo6O+M/vQCUiMmj6usmmOs9+mJiYADA3N9dGHj58qB1rK2NRFPfu3auNExHlbydOpLTzQGIigK1C9yHwEdN+bPLle0RE9DbWz0REuWPnTgwfLg3vDJ1XZcGwQoUyeMPerFnKCBERvSt93WRLS0vtODExEYCVlZU2sn37du344MGD2rFulUxElI+dOye6uxslxAHYjQ5fiRs0MJJWfv2V3WQiIsoA62ciolwQHIxevaDRAMCECW2OfHvnjjIFwOPHGDFCGSQiondVSBnQUbZs2RcvXkhj6am9ypUrP3nyRHq1yOzZszUaTcOGDY8cOfL7779rH+KLjY3VfgUiovzqyhW4ugoxMQAC4NIDW5NhrF3s2DE9kYiISIv1MxFRTjt3Dh07IikJQFz3AeEjFv27OIObLOrVQ7lyyiAREb0Hfd3kihUrXr58WRo/ffoUQJ06dU6cOCFF1Gr1zJkzpbH03mppXLp0aWnwrg4ePLh169bz588/fPjwzZs3JiYmJUuWrFWrlpub28CBA3WPdWRHbGzsypUr/fz8rl+//vr162LFitWsWdPDw8PT01P3eUMiorf9u/d6iS7OxdWvARyDQyfsSkL6k8u9e/PGZCIiylgO189ERIbu+nW4uSE2FsAhM48221albMuglWxujvnzlUEiIno/+m66qFWrFtLeHHLjxg0A7u7u2lXphIVEypEG0htF3kl0dLSrq6u7u/u6dev++eef6OjolJSU+Pj4hw8fBgQEjBs3rmrVqtoqPDtOnTpVvXr1iRMnhoSEPH/+XK1WP3/+PCQkZOLEidWrVz99+rTyA0REWrdvF+3iVFz9HMBpNGmHffEwA2Bmpt6yJfnUKfz5p/ITREREkhyrn4mICA8ewNkZEREAwmxato/bkvLWgbnQUISFISICOj+MiYjoP9HXTW7QoIF2fO7cOQCurq6VK1dGWokspNGmARgzZozuNDvGjx8fGBiojOp48eJFp06dIiMjlQsZCQ0NdXFxCQ8PVy4AAJ48eeLs7BwaGqpcICIC8PCh6ORko34C4CI+dcPBWKTegGlrG9u5s9i0KYxSL08mIiJSyrH6mYjI0L14ARcXPHoEIKlOg6bP9ySgiCKlenXUro2aNaHzhlQiIvqv9HWTmzdvDkA6PXHx4kVRFI2NjZctW6ZSZfqpadOmffbZZ8qoXklJSRs3btROixYtumbNmmvXrh09etTBwUEbf/ny5b59+7RTPQYNGqS9e65YsWIbN24MCwvbsGGDtbW1FIyNjR08eHD6B4jI4N2/D0dHVDZ7+m9FJ+H+fQD/oJYLAiNRTEooVEjs0uWm7DNERERvyZn6mYjI0MXEwN0dN24AeG5dzS7UPxpFFSllysDbWxEjIqIPQPkYiK5y5colJCSIoihNpTMUbm5u27ZtGzly5LNnz3STLSwsZs+ePX78eN1gdrx69Up64bXkm2++GThwIIBPPvlkw4YNFSpU0C49fvxYO85MSEiIdAxE4uXl1bt3bwA1a9aMi4sbNmyYFD979uzx48dbtGihzSQiQzZhAkKPvTyK1tXwL4B/UbU1Dr1EKQAHDsDYGDVrJl+48FT5MSIiIrmcqZ+JiAxaQgI6dsT58wBSyth+/jTwBWx01/384OAAKyvInwMhIqIPQ183GYCJiYkyBHTq1MnV1dXf3//8+fMREREWFhZ169b18PAoXry4MjUbbGxszMzM4uLipGnhwoW1S7pjABUrVtSdZmj79u3asSAIXbp00U67des2fPhwbXG/fft2dpOJSHLjTGQAXOvgHwD3UcEJwU9RFkC5cnBzAwC1Wv4BIiKiTORA/UxEZLiSk9G7Nw4fBiAWL76uT+B9L3vddZUKTZuiqPKkMhERfTBZdJMzY2Zm1rlz586dOysX3p1KpRoxYoSXl5c0XbJkSZMmTRo3bvzixYuJEydq02xtbdu3b6+dZkb3YHL58uWtrKy0U2tra1tb20ePHklT3UwiMlixsRjWO/b3x+6N8DeAJyj7Pxx+iAoAVCrMnavMJyIiej8fsH4mIjJQoghPT+zaBUA0Nx9f/cASr1q665UqYeZMlCqlGyMiog9MXzc5JCREO27QoIGlZeqrqD64efPmxcTErFq1ShTFx48fv/1W62rVqu3cudPc3FwRf9vdu3e1Yxsb2dMuUkTbTdbN1JWYmKi9eSM6OhqAWq1W5+FzidL3lpe/w1zHLcrS/7N37/E9ln8cx9/fzTaHMWchpxKRUg6hnDI7GCbniCiSUkJUFJK0yqGUol+EUNKQczZnKseSkEOKnHKcMYfZ4f79cc939/e2GWL7bns9//g9rvvz+XzXHtfj17r22XVfV3aeoi8+jn12QfNH9LOk4yrir+XDppW56654SeXLGwUKJO1Kzs5TdJ2YojQxRWliitLEFKXpGlNkGEaK8Vsr3dbPAJAdDRyoSZMkyctr3wdzxvaqZU0++KB+/dUaAADcFtfqJjds2NB53/TatWsfeeQR13yy7du39+7d2xw7HI7ly5e75tPg7e09fvz4+++/v2/fvvHx8bZsu3btJk2a5Ovra4unKDo62jnOlct+o2vu3Lmd4zNnzlgyycLCwoYNG2aNREREWD/oniIjI+0huGKK0pQNp8gjLu6R0eNqabWkKOUPUOSfOSp6ei45cSJe0okT9vpsOEU3iilKE1OUJqYoTUxRmlKcIsMwzp8/b4/eaum2fgaAbGfkSL3/viQ5HEc+mN7vh0Bbvk4dWwAAcFtcq5tsMgzDuSZOTXR09KpVqxwOx/UUX23//v0tW7bcunWrPSFJmjVr1ooVK6ZPnx4UFGTPXZPziORrRK42cODAfv36meOzZ8+WKlUqMDDQemKGu4mLi4uMjAwICPDy8rLnIIkpug7ZdIri4i493jHv6dWSzipvkJZuU9URwxLatLEvTJVtp+hGMEVpYorSxBSliSlK0zWmyDCM1DYT3HLXsyT+j+tnAMheJk3Sq6+aw10vj3/g1Xa2t02eekphYS4RAMBtknY3+XZLSEho2rTpzp07zcfSpUuHhYU9+OCDp06dGjt27OzZsyWdPHmyadOmW7ZsqVq1qsuHr+Ln53f8+HFzfPHiRdekSyR//vyWTDIfHx8fHx9rxMvL6+pfSNxNpvgmMxZTlKbsNUUJCere3StynqQLytVUizbp4REjNGiQp+RpL74ie03RTWGK0sQUpYkpShNTlKYUp8gwjKuDAIBMYO5c9eiRNB4xYtjvz9layf7+mjrVJQIAuH1uTTf58uXL9tB1++GHH5ytZEnTp0+vV6+eOX7kkUfuu+++3bt3S0pISHj//fe//vprZ2WKypUr5+wmOwdOx44dc47LlStnyQDIThIT9dxz+uYbSbHybqF561RP0sMP2wsBALhN/sv6GQCykZUr9cQTSkyU9GfzvjMuD1y/3l7y2GP2CADg9vGwB27K3r177aHrtmvXLutjtWrVnGNPT8/777/f+bh9+3bnODU1a9Z0jg8dOmQ9RjkqKurw4cPOR2slgGzEMPTyy+b1HXHK0UbhyxSXAHGxAAAgAElEQVQgKW9eNWxoKwUA4Hb5L+tnAMguNm9WaKguX5a0tepTFRaMemuYY/9+l5KhQ/Xaay4RAMBt5bI3ed26dR4eHh4eHg6Hw3Z826+//nr1/XiSEhIS9u3b98477zgjnp6pviSeItsrh7/++mvdunXNcUJCwu+//+5MOb/y/v37rTuLV65c2fBKE6ht27bjxo0zx4ZhhIeHd+vWzXycNWuWOTC1bdvW+gggWzAMvf66xo2TlCCPJzVjoZqbmXnzlOPWvK0BAMhG1qxZYw9dcfvWzwCQLezerSZNFBMjSc2bt98+0bhqP9zixWrSxBYDANxeLr2ToKAgWxPZvLbOMAznldMpsl4e4ufn55pMg22PcOfOncPCwqpWrXrq1KmPP/7YPObCdD27ievXr1+zZs1NmzaZjwMGDMiZM2eNGjU2b978muXvlQ8//LDzPA0A2cjw4frgA3P4jL78Tu2cmUqVnEMAAK5Xw4YN03/9DABZ38GDCgjQyZOSoqvWG1Hm2z0L7Gff58unRx+1xQAAt10KO/HMFfD1BG3MNXGFChXsiWuqXbt2/fr1nds69u/f36FDB9cSSfL29u7Tp489mpIvv/yydu3a58+flxQVFdWpUydbga+v76RJk2xBAFnfqFEaOtQc/vD4+K++7+LM9OypO+5wPgEAcGNSXCqnGLS5ufUzAGRxJ08qMFAHD0q6UOHBcr8viPotlzUfHKxy5dSzp/Lls4YBAOnB/p6IJPOYC9smC2cwNc7KoKAgy+fS5nA4wsPDH3nkEXvCokCBArNnz65cubI9kZIqVapERkYWL17cnpAkFS9ePCIiokqVKvYEgKzts880YIA5jHtvdJPve1qTw4ZZnwAAuDFXL4mtwdQ4K290/QwAWdm5cwoJkXnBUvnynzT9ISrR/gLHtGn67DM98IAtDABIDynsTf4vihYt+sILL9ijaSlSpMi6desWLFgQHh7+yy+/HDx48Pz5897e3oUKFapcuXJQUFDXrl0LFixo/1jq6tSps2fPngkTJsyfP/+PP/44c+ZM/vz5K1WqFBoa2rNnT19fX/sHAGRtU6aoVy9zaLw9fFW1ftZkvnwqXNgaAAAg/dzc+hkAsqbYWLVsqU2bJF0uXGJQ1cjRHxazlTz2GKt3AMhI9m5yam/kpRa3qlKlyrRp0wrf1M91h8MRGhoaGhpqT6SkbNmyaX4/vr6+/fv379+/vz0BILv59ltduY1Tr7/+zL43pgxxyYeHyyOF9zQAALguqa1LU4tb/Zf1MwBkNQkJevJJLV8uKTF/gTpnl/4yu6ytZPTo5KU9ACBDuHSTO3XqZL5zZ758N3XqVIfDYZ7mFhwcXLRoUWuxydPT09fXt0yZMnXq1Kldu7Y9DQAZa948deqkxERJ6t17X7d3p9zj8hpy/vwKCLAGAAC4AV26JJ/CL4n1MwDcJMNQz56aPVuScude0W/RL0PsB1R+9JFeftkWAwCkN5du8ueff+7p6enh4eFwODw8PKZOnepMvfHGG9c+2hgA3M7SpWrXTvHxktS9e+KYj+aMcWklS6pRwxYAAOAGTJ482frI+hkAbtKgQZo4UZLh5fW/oDk9h9Sx5QsUUIsWthgAIAOk8Xb39bygBwDuaPVqtWypy5cl6cknNWHCsz0cr77qUvLYY5owwSUCAMB/xPoZAG7YqFF67z1JcjhmBE3rOdd+N+nHH2vLFpUtawsDADKA/dxkq6FDhzrHpUuXtmQAwL2tX69mzXTxoiS1aqUpU/494fnlly4ltWppxQqXCAAA/xHrZwC4YZMna8CApPGnn34ypb1LVurRQy+9ZIsBADLM9XaTASDT+PVXNWmimBhJCgnRN99cis8xcaK9ipMqAQC3HOtnALgx33+v7t3NYdzQ4b23Pb9xo0s+d26u3QMA93KtbnKaDh06tHXr1gsXLpQsWbJ27dqenp72CgBIZzt3KjBQZ85IUqNGCg+P9/B+rIHWr3ep6tpVw4e7RAAASAesnwEg2apVeuKJpBuzX375w1xv2I6h69ZNQ4aINz0AwK2k0U3+66+/4s0LrCQ/P79ixYqZ49OnT3ft2nXRokXOykKFCn300UcdO3Z0RgAgve3dK39/nTwpSY88onnzlCvXhh/treRKleR6ZxIAALcM62cAuC5btig0VLGxktSpk8aM2djOfmP2wIG0kgHA7VzrFr7o6OgKFSpUuuLrr78244ZhNGvWbNGiRYbFyZMnO3fu/M0337h+DQBILwcOyN9f//4rSdWra/Fi+fpKKRyOXL++PQIAwC3B+hkA0hQbq0Gtd5+sEaxz5yQtVDOv6V86PD1mz3Yp69BBd9/tEgEAuINrdZPXrl2bmJhoLnYltW+fdBb+vHnz1q9fL8nhyjCMPn36XLhwwfpFACA9HDkif38dPChJVapo6VL5+Un66ScNGeJS+NxzGjnSJQIAwK3C+hkA0jTv00PPzQksrJOS1qheW82Kl5etpm9fTZ9uiwEA3MK1uskbN26U5HA4JFWqVKlEiRJmfHrqP9RPnjw52/b3RAC43U6cUOPG2rdPkipU0LJlKlTIzNhOtGjaVBMmKG9elyAAALcK62cASMOpU/XeCSyjfyRtVdVQzb+kXPYaqVUreVyrXQEAyDDX+vH822+/STIMw+Fw1Le8Gb569WpziWxmzZ0XThEREdZHALi9oqIUEKA//pCkcuW0fLmunFC5Y4cmTrSWyt/f5REAgFuL9TMAXEtMzOEHQ4pH/SHpT90drB+ild9eI7Vpozp17EEAgJu4Vjf577//dq5677vvPnOwb9++U6dOSTIMo2DBgsuWLZs/f36+fPkkmS/r7dix48oXAIDb7OxZBQfrt98kqWRJLV+uO+80M5s2qXp1a6nKlFHv3i4RAABuLdbPAJCq2NhLIS1LHtoo6YiKByjymO6wlRQurIMH9d138vS0ZQAA7uJa3eTDhw87x2XKlDEHu3btMgcOh6Nr166NGjVq1qxZr169nDssDprnlgLA7Xbhgpo108aNklS0qJYvV7lyzuQ33yRdEO00ahSrUgDA7cX6GQBSlpCgTp1yrl0mKUr5g7R0v8pJ8vZ2qWrf3rk5BADgpnLYAxYxMTHOsbl7QtKePXt05fW96lc2/tWsWdNZaf0UANwuly7p8ce1dq0kFSyoZctiy1ac8aX27k3K214azplTlheOAQC4LVg/A0AKDEMvvKDwcEnnlTtEi7frfknt2+uNN9S2rXbvlqQHH9Rrr7l+EADgfq7VTbZy3jRtroZNd999tzkoUKCAM5iQkOAcA8BtERendu0UGSlJ+fJp6VLdf//THfXNN/ZCp5UrVbSoPQgAwO3D+hkAkrz5pv73P0lxytFas9erjqRKlTRzpiTt2qXTp+VwyPJzEQDgvq510kWePHmc471X9vuZV4uYnKvhixcvOoPWTwHArZeQoE6dtGCBJOXOrcWLVaPG5cv67jt7odOkSapd2x4EAOCWY/0MAHZjxujddyUlyvGUvlqqYDP86KPJJQUL0koGgEzjWt3kEiVK6MrdIOPHjz98+PCyZcs2bNhgXi1SuHDhggULmpVRUVHOTxUpUsQ5BoBbLDFR3bpp1ixJ8vHRggV69NHjx/Xqq4qPt9eacuZU48b2IAAAtwPrZwBwMXWqXnnFHL6ocTPVwZl5+23nEACQmVzrpIv77rtv586d5tp39+7dpUuXlmTeFuJwOB5++GFnpfP1PYfDUbZsWWccAG4lw1CvXpo6VZK8vDRnjho1MgwFBGjbNpfCjh3lcEhS/vzq0kWlS7tkAQC4TVg/A0Cy+fPVrZs5/OLOYeMPveDMLFmi4sWdTwCAzORa3eTAwMDvrrw67rxy2txqIalJkybOyq1bt5o1Dofjvvvuc8YB4JYxDPXvrwkTJMnTU998o5AQSXv32lvJfn6aMcMlAgBA+mD9DABJVq9Wu3ZKSJB07InePWYOtiarVbM+AQAyk2uddNGuXbtChQpJcliYKV9f3yeffNIcJyYmrly50pmqUaOGOQCAW2noUI0ZI0kOh6ZOVevWko4f13PP2erMDAAAGYD1MwBI0q+/qnlzxcZK2lX9yeIzP5SSfuJJ6t+f+7EBIBO7Vjc5b96848ePtwXNjRUffvihn5+fGVm+fHl0dLSzoEGDBs4xANwa772n4cOTxp9/riu/jTdrplWrrtRIksaN01U/twAASCesnwFAe/YoKEjnzklS06YtTk82XDsPzz5rfQIAZDLX6iZLatOmTWRkZO3atXVlHfzQQw/Nnj37mWeecdasWLGiYsWKFSpUqFixor+//5133ulMAcAt8PHHGjgwaTx2rHP5+e+/2rTJWSRJ1aurVy95e7sEAQBIT6yfAWRrhw8rMFAnTkg6+8CjY2rP2vO3lzVfooTuvtsaAABkMtc6N9nUqFGjRo0axcbGnj592s/PL3fu3LaCsLCwsLAwWxAAbo2JE/Xyy0njsLCzXXuPeE07d0pSTIylTJLUqZM9AgBA+mP9DCCbOnVKgYE6cEDSmTIPlN22MHqbyw/ABx7QV1/J09MaAwBkMml3k00+Pj7FuXIVQDqbMUM9eiSN33xTr7/+dGvNmeNS4jRvnpo3twcBAMgorJ8BZC8xMWraNGnfx1139b7rh+gD+W0lK1eqYEFbDACQyaRx0gUAZJg5c9SliwxDkvr109tvS1q61FaUpEIFhYbqym1GAAAAANJRbKxatdKGDZJ0xx0/vx05bZn9z2k1a9JKBoCsgG4yALe0eLGeeEIJCZLUs+eBl0Y9081Rv77On7cXmixnUQIAAABIRwkJeuopRUZKUv78P7+19NHOd9lK+vTRvHm2GAAgU0o66WLmzJkeV4SEhBQpUkTSV1995VJ73Z566il7CACu34oVatVKcXGS9NRT+vTTx6s7tm61Vw0erNy55XDooYcUEGDPAgBwW1mXyiEhIYULF7YFbwjrZwCZlWGoVy/NmiVJuXJp4cKvpj9gvl7otHq16td3iQAAMq+kbvILL7zguPKK+KpVq8xucteuXZ3BG8JqGMDN+/FHhYYqNlaS2rbVpElR0R5Xt5Jz5tTgwfJyuSAaAID0Y10qr1271uwms34GkO0MGaLPP5ekHDkUHr41z6MTJrjkS5RQrVouEQBApuZyC59hGFcvfw3bXxXTcvVXAIDrtXmzQkKSzrNo3lzTp/+0MUeKp1g8+yytZABAxmP9DCBb++gjvfOOJDkcmjr1zCMh9Uu75PPm1Y8/ysfHJQgAyNRcuskpuqHV7Y0unQEg2e+/KyhIZ89KUkCAZs26lOgdEqLo6OSSHDk0dqzuuUf+/slBAADcCutnANnCV1+pb9+k8ccfq2PHHxfp3DmXks8/V9myLhEAQGaXdjcZANLD7t1q3FinT0tSvXqaO1c5c27f7NJKllSqlF54wSUCAAAAIL0tWJB8EfZbb+nFFy9eVLduLiXFiikw0CUCAMgCkrvJKW6LSDEIALfY33/L31/Hj0vSww9r4cJvF+YZPVoHD9oL+/WzRwAAyCgpLpVTDAJAlrJmjdq1U0KCJL34ooYMkTRokI4dc6natEmFCrlEAABZQFI3+bXXXvPw8HA4HB4eHqVKlTKDQ4cOTS4EgNvk0CE1aqTDhyWpalX98MPhc/k6dNDVv4z/9pseeMAeBAAgQ1iXyqVLJx0UyvoZQNa3dauaN9elS5LUoYPGjpXDIWnVKpeqJ5/UldYCACBLSe4m58iRw9PT09PT08PDwwyyGgZw2x07Jn9/7d8vSZUqKSJCBQpsXJVCKzkoiFYyAMCNpLhUTjEIAFnH3r3JN500aaKpU+XhsXChRozQ1q0uhd27uzwCALIMzk0GkHFOnVLjxtqzR5LuvlvLls1ZV3TIEO3YYS/09uaMCwAAACBDHT6sgICk4+kefVTh4fLyiopSq1aKi3MpnDRJDRu6RAAAWQbdZAAZJDpaQUHavl2SSpXS8uXReUp06KDLl12qHnpI77yjatV0xx0ucQAAAADp5/RpBQXpwAFJuv9+LVig3Lkl/fqrvZUsyd/fHgEAZBlJh1oAQLqKiVFIiLZskaQ77tCKFSpTZvt2eytZUs2aCgmhlQwAAABknPPn1bRp0iuE5cpp6dJEvwKDBqlYMQUH22s7dlSZMvYgACDLSGNv8p9//rl48eLly5fv3bv35MmTZ8+e9fPzK1y48D333OPv79+kSZPy5cvbPwMA13bxolq00E8/SVLhwlq+/PeL5btU06+/2gsLFdJLL9mDAAC4M9bPALKay5fVurXWr5ekYsUUGanixVcuV1iYvVDS5s166CF7EACQlaTaTd65c+ewYcPmzJljGIYk838lnThx4sSJE7t27VqwYEHfvn1bt249dOjQypUru3wYAFJz+bLatNGKFZKUP78iIlS58vN1U2gl//STqlY1358DACAT2Llz51tvvcX6GUCWkpCgp57S0qWS5OenpUt1991nzybtDLFp317Vq9uDAIAsJuWTLqZMmVKjRo3Zs2cnJiYahmEYhsNCkhlMTEwMDw+vXr36lClT7F8CAK4WH68OHbR4sST5+iYuWnKh4kMXLtgvgJbUurXq1KGVDADINCZPnly9enXWzwCyFMPQSy/p228lKVcuLVy4y6dqpUry89OQIfbaggX16qv2IAAg60mhmzx06NAePXrExsZaF8HWAsvC2GEYRmxsbLdu3YZc/R8TALBKSFDXrpozR5Jy5fq++8LCzWrnyaM8eXT+vEthoUIaONAlAgCAOxs8eHD37t1ZPwPIaoYO1fjxkpQjh8LDVbfum29q1y57VevW+uUXHTmiatXsKQBA1mPvJk+ePDksLMy5DpblHT0bM+5cE48YMWLq1Kn2IgAwGYZ69tSMGZLk7X3uq7ltPmkQFWWvkhQRoSNHeEUOAJBpTJo0acSIEayfAWQ1Y8dq+PCk8ZQpFxqG/PFHCu8USqpbVw89JB8fexwAkCW5dJMPHz48YMAA2zrYObayxs2xYRi9e/c+evSo9QsCgCQZhvr00cSJkuTpqVmz1uYOSkiwV0kqUECPPSZvb3scAAD3dOjQob59+7J+BpDVTJ+uPn2SxmPHzvR8skABVa6sfftcqiQ1aKCuXe1BAEAW5nIL3wcffBATE2MubXVljSupTJkytWrVuuOOO/LmzXv27NmjR4+uX7/+0KFDzhpzZRwTExMWFvbxxx9bvyaA7M4wNGiQzJ8MHh6XJs14fHwL8xoPm5w5NXq0cqR6OSgAAG7n3XffZf0MIKtZtCi5QzxkiPFS7/6ldPmytUKSFi1SrVoqVMgeBwBkbcltm4sXL86cOdNc1zr3TbRs2XLw4MEPPvigs8xp/fr1w4cPX7JkifMjhmF89dVXI0eO9OEVFwBOI0bovfeSxpMmfRXb3tZKrlhRS5ZIUvHiypnTJQUAgDu7ePHi9OnTWT8DyFLWrlWbNjJfJOzV61D3t7Yu0uHD9ipvbz36qPz87HEAQJaXfNLFmjVrYmJizLG5peLjjz+ePXt2ikthSbVr1160aNEHH3xgFpvOnTu3cuVKSxWA7G3MGA0enDT+9FOjS9fFi13ykh58UOXKqVw5WskAgExm5cqVrJ8BZClbt6pZM126JEkdOoyr8HGp0o7mze1Vd9yhzz+nlQwA2VRyN3njxo3mwHzzrk+fPi+++KIzm5r+/fv36tXLuiD++eefLXkA2diECXrllaTxyJEHmr5QsaLmzXMpqVRJb7/tEgEAILNwrntZPwPICv78U8HBOntWkoKDjclThg13uWnJFBurI0c4KxkAsq/k/zbs3bvXOfbz8xsyZIjz8dqGDx+eL18+5+Pu3bstSQDZ1dSpev75pPGwYerf/5NPZPkxI0n9+mnnTlWo4BIEACCzsK57/fz8hg4dakleC+tnAG7nyBEFBOjYMUmXqtX5rn34lK+9T560Vz30kLy95XDY4wCA7CO5m/zPP//oysaKZs2aWRe415Y/f/7Q0FDzg4Zh7N+/314BILuZNUvPPJM0fvVV483Be/Zo+nSXEkn16tkjAABkIgcOHNCV9XPz5s1ZPwPIpLxiYnI0bar9+yWdK1ulzLaF7Z7O41zOJ9V4qX59ffWVSxAAkA0ld5NPnTpl3gciqW7dus749ahn6QmdvPrPlwCylQUL9OSTSkyUpBdfvPz2e8FNHBUrmhsdkj33nJo1c4kAAJC5nDx50rl+tq6HrwfrZwDu4vz52sOHO3bskKSyZV+6Z+nx+IK2EodDFy9q9WpVqWLLAACyneRu8pkzZ5zj4sWLO8fXo0SJEs5xVFSUJQMgm4mMVJs2io+XpGee0dixq1Y7IiLsVdOmacIE5chhjwMAkIlY172snwFkSpcvez7xRMHduyWd9y02sX3k8j+Sfzo5PfqoPD3tQQBA9pTcy7l8+bJznD9/fuf4evhZLnO9ZF7/CiAbWrNGLVro8mVJl1p1+LH9/xKXeyxebK+SVL26PQIAQKYTGxvrHLN+BpD5JCaqSxePpUslnZFfg5il294vb82XK6d8+XTvvfrgA2sYAJCtJXeT4+LinGPnK3vXyVpv/ToAspGNG9W0qS5elPRvncfvmj/14pwUNjCUKqV+/VSpkj0OAECmw/oZQCZmGOrdWzNnSrqonM21YJuq2kqmTuWmEwCAXXI3OT4+3rmo/eGHH/bt23f9a+K9e/c6xwkJCZYMgOxh61YFBSkmRpKCgzvFzLwY72WvkTp35uIOAEDWYV0/L1my5M8//3TNXwvrZwAZK37wsByffiopweHZ1vhunext4wIFVKOGLQYAgKWb7GQYRlhYmD0KAKn54w8FBOjMGUkJ9Ruu7T1neYiPvUaS9PDD9ggAAFmAYRjvvvuuPQoAbuuTT3KMGGYOuxqTFynpdmyHQ0FBknTHHerTR7lyXakHAOCKFLrJkgzDsIcAIEV//il/f508KSmxVp2G0fPXhbisOgsVkre3fHzUrJl69LBmAADIOlg/A8g0ZsxQ797m8GV9NF2dnZkiRbRkifMJAIAUpNxNvv4zLpxYQAPZ0T//yN9fR49KUrVqy/otXtc+r61kzRpVrmyLAQCQ1bB+BpA5LFqU2KWrhyTpbQ3+WC9bky1bWp8AAEiBvZt8E+tg001/EEBmdfSo/P31zz+Sou+8b+FTS8eOsl9nX7iw7rnHFgMAIEu56WXwTX8QAG7SunWJrdt4JMRL+kzPD1XSYRePPfZPmTJ3Vq3q8cILLuUAAFzN3k0GgOty4oQaN5Z53dA99zS+uGxzn8K2ksaN9fbb8krhNj4AAAAA6WvbNjVr5hF7SdJMtX9Jn0gOSb6+Ru/evzZtWtzLy9yyDADAtSR3k0uVKuXcH8FGCQDXEhWlwEDt3ClJZcpo+fIT9e6wlXTurK++ssUAAMhSSpcuzbIZQOawb19iYJBHdLSkpQp8Sl8lytPMdOyYyE8yAMD1S+4m79ixw9PT09PT08PDw+FwmP9rqQQASdK5czH1mvju2CrpqEeJRw+sSKxX6sABe1WDBvYIAABZzP79++0hAHBDR48qMNDj2L+SflbtVpoTJ28zM22aWrdOjIhwKQcA4Bo46QLAjbhwQc2a+e7YIOm4ijyWuPxv3SXXVnK9emraVE8/7RIEAAAAkAGiohQUpL/+krRd9zXVogvKY2aGDVOnToqLcykHAODa6CYDuG6xsWrZUmvWSDqtAo21bLfutZU0aaLFi20xAAAAABnhwgU1a6bff5f0t8oGaWmUCpoZPz898YRLLQAA14NT9gFcn7g4tWuniAhJMY68QVr6ux6w1wAAAABwE3FxatNGP/0k6ZiKBiriiEqamddf17ZtqlDBpRwAgOvB3mQA1yEhQZ07a/58SZe9cgfHLd6smvYaKSBADz1kDwIAAABIb4mJ6tpVS5ZIila+YP3wp+4xMzlyaNAg5c3rUg4AwHWimwwgLYmJ6t5d334rST4+zxeb9+M/dZ3J4cP15pvOJwAAAAAZzTD08sv6+mtJF5WzuRZsVfKmjxdeoJUMALh5dJMBXJNh6KWXNGWKJOXIEfv17C9bN7bmg4KsTwAAAAAy2ttva9w4SfHybKdZa1XfmYmIUGOX5TwAADeGc5MBpM4w9Oqr+uwzSfLw0DffdJzR1Jp/7z3VTOHECwAAAAAZZNw4vfWWOXxGXy5Uc2cmf341aiSHwxkAAOCG0U0GkLphwzRqlCQ5HJoyJbZ5mzlzXPKdOrk8AgAAAMhIX3+tl14yh3304TQ9ZU2+/bY8Pa0BAABuGN1kAKn44AMNG5Y0njBBnTsfOuSSL1tWJZMuhQYAAACQ0ZYsMbp0MYfv6I2x6uPMtG2rf/919pkBALh5dJMBpGTcOL32WtL4ww/Vo4ek0FBrhX76yeURAAAAQIb56Se1bu2Ij5c0Qc8N1nBr8umnVayYNQAAwE2imwzgKl9+mbxvYcQI9ekjKSFBO3cml+TIoeLFkx8BAAAAZJht29S0qS5elPSt2vXSp1Ly6cht2nDzHgDglslhDwDI5r75Rt27J40HDdKgQebwt9+cFZIUHOzyCAAAACBj/PWXgoJ05oykpQrsrGmJ8pRUqpRWr1a+fCpUyP4JAABuGt1kABZz56pzZxmGJPXpo3feMcOJiape3Vqn6dNdHgEAAABkgH//VUCA/v1X0nrVaq3ZcfI2Mw89pHLlXGoBAPjvOOkCQBLH0qVq314JCZL03HMaM0aOpPfjdu+2FsrXV/nyuUQAAAAApLczZxQUpL/+krRDlZtq0Xn5mpn779f777vUAgBwS7A3GYAkFfr9d88RIxQXJ0mdO+uzz5ytZEmffOIcSlLnztYkAAAAgHR34YKaN9e2bZIOqEygIk4r6UiLKlXMMAAAtx57kwHIsX597REjHJcuSVKbNvryS3kk/3BYvlzjxzufpKuaywAAAADSVVyc2rXTunWS4goUCVDEEZV0Jh95JLkQAIBbi1e0IygAACAASURBVL3JQLb3yy+ezZoltZKbNtWMGcrh8pNh2TLrk2rXlqenSwQAAABA+klM1NNPa9EiSQl58taK+mGvKjiToaHO208AALj16CYD2dv27QoMdJw9KynR398jPHznn95vvaV//kku+fvv5LGkZ591eQQAAACQfgxDffpoxgxJ8vGZGLrg12+qOZNFi2rePOcTAAC3Ht1kIBvbs0eNG+vUKUmnKlXKFx4u75xNmri0km0aNdIzz9iDAAAAANLJO+8kHTzn6Rn/9az+XRpYk5xxAQC43Tg3Gciu9u+Xv7+OHZOUWKPG+sGDlSfP/v3XaiVLatPGHgEAAACQTj77TEOGJI0nTXoqPDQmxiX/+ecujwAA3HJ0k4Fs6fBhNWqkQ4ck6YEHEhYujPXJM2iQx9132wutSpZUy5b2IAAAAID0MHOmXnwxaTx69JkWXWbOdMl//rmKFnWJAABwy3HSBZD9HDsmf/+k45DvvVeRkSpQYMmSchMnulyu5+en0aOTH/PmVaNGKlw4OQIAAAAgnfzwgzp3lmFI0sCB6tdv8odJT04NXA69AADgtqCbDGQzp08rIEC7d0vSXXdp2TIVLaq4uD/+KGgrLF9e3brZYgAAAADS3U8/qVUrxcdLUo8eGjFiwgT16+dSsnixKlZ0iQAAcDvQTQayk+hoBQXp998l6c47tXz5vkslXwjS9u05Tpy4w1rocOiVV6wBAAAAABnh99/VtKkuXpSkNm302WdyOL7+2qWkVCk1aeISAQDgNqGbDGQb58+raVNt3ixJxYpp+XKVLdutoVavluSQko+5CAnRxx/r2mcoAwAAALjt/v5bQUE6c0aSGjfW9OmbfvGcNk1r17pUhYa6PAIAcPvQTQayh0uX1KKFfvxRkgoV0rJlqlBB0saNtjpJ6tePVjIAAACQ0Y4dU0CAjh6VpIcf1ty5fx/xqV9fly65VAUHa8wYlwgAALePhz0AIOu5fFlt2mj5ckny87s4L6Lz+1UKFpSvb9ILc1YNGqh+fXsQAAAAQLo6c0ZBQdq3T5IqVdKiRfL1jYiwt5IlvfeevL3tQQAAbhP2JgNZXXy8nnxSixZJUp48WrJk3Lpq06fbqyTNnBlfvnyOqlWVgx8MAAAAQAa6cEGhofrtN0kqXVoRESpceM4c9expL7zvPt1/vz0IAMDtw95kIEtLTNQzzyg8XJJy5tTChUbtOubJyTZ58lwODTWqV6eVDAAAAGSouDi1b590NHKRIoqM1J13btig1q3thWPGaOVKefBrPQAgHdE3ArIuw9Dzz2vaNEny8rr87dxnJjYMD1ZsrL1QUocOu3LkqGSPAgAAAEhP5naQhQslKW9eLVli3neybJmtTq++qr597UEAAG43/ogJZFGGob599b//SZKnp2bNmnYieMYMeyt54ECtX6/Dh+OaNfvbJQEAAAAgnRmG+vWTeSydj4/mz1f16pI2bNCbb7oU5s6tDh1cIgAApA+6yUAW9eabGjtWkhwOTZsW0/jxTZvsJZICAlSrlooUsccBAAAApLd3301aw3t4aOZMNWwo6fJlhYS4VHl7a+tWPfigSxAAgPTBSRdAVjRihN591xye+3Bi0/Ed1nZ0LZAktW2revXsQQAAAAAZYPz45B3IEyfq8cfN4a5dOn3aWSRJ776re+5xiQAAkG7YmwxkOR99lLwM/eSTkaeeMS/wsOrcWUePatYs7twDAAAA3MC336pXr6TxqFF6+mlzuGmTqlZ1FklSiRJq394lAgBAeqKTBGQtn3+efBnH++9HPfniosYuedPjj+uOO+xBAAAAABlg6VJ17izDkKTXX9crr5hhw0jhcOTt21WggD0IAEC6oZsMZCHTpun5581h4uChXbe/Oq2ga4HkcKh1azVtao8DAAAAyADr16tVK8XFSVL37s4D6yRFRWnfPueTJDVqRCsZAJDBOOkCyCq++05duybtaOjff53/0GnT7CUffaSoKH33nXx87CkAAAAA6W3HDoWE6MIFSWrVShMmyOEwM2FhKlTIWipJr79ujwAAkM7YmwxkCQsXqmNHJSZK0gsvHO37wXdhSctQq7p15ednDwIAAADIAPv3KzBQUVGS5O+vr7+Wp6eZ2bNHgwZZSyXp9Gk2JgMAMh57k4HMb9kytWmj+HhJRteu3S58UqKkY9w4l5LcufXqq6pWzSUIAAAyoylTpjiuz5QpU+wfTl1MTMzo0aMbNGhQrFgxb2/vYsWKNWjQYPTo0efPn7eXAvjvjh1TQICOHJGkmjU1d675/mBiog4d0qpVrsVSpUq0kgEAboG9yUAmt26dWrRQbKwktW+/s+/EL6va/0oUGqrZs5WDf90BAEAqfv7559atWx89etQZOX78+PHjx9esWTNmzJjZs2fXrl3bUg7gv4mOVnCw/vxTku69V4sXK29eSRs2qEULHTtmq1bu3Hr/fXsQAIAMYe86AchMNm1ynrMW17TFzy9MW7A46eU4q0ceoZUMAEB2VLRoUXsoJdu3bw8MDLS2kq2OHDkSEBCwfft2ewLAzbl4UaGh2rpVkkqVUkSEChc2M4MGpdBKLldOp0+reXN7HACADEGHCci0tm1TUJDOnZN0plZg+dXfnlrkZSvJnVshIXrhBVsYAABkYm3atGnYsKE9Kklq0aLFtm3bzHH58uWDg4Nd8yl75plnYmJizHGBAgXGjRtXrVq1LVu2vPjii2fOnJEUExPTrVu3DRs2uHwMwE2Ij1f79lqzRpIKF1ZEhEqVknTggI4d0++/26ol6fHHuUMbAOBG6CYDmdOuXWrcOOnKjvr1n88/99QG+xrT31/LltliAAAg0/P19fX19bVHpQ0bNjhbyZL69evn4ZH2m4hr1qzZtGmT83H06NEdO3aUdO+99164cKFHjx5mfOPGjWvXrq1Xr56zEsANS0xU9+5asECSfH21ZInuvVdSt2768ktbaZI6dTRggD0IAEAGSnt9CcDt7Nsnf3+dOCEpqmKtH15cuHlnbnuNVKOGPQIAALKwkSNHOseFCxfu2rVrci513333nXPscDhat27tfGzbtq3D4XA+WisB3DDDUP/+mjpVkry9NW+euV7fuzflVvLmzTp/Xj/9pOLF7SkAADIQe5OBzObgQfn7m7c//6oHH9v9Q3S7vNa8r69y5VKjRho0yBoGAABZ2V9//TV37lznY69evXLlymXJp8q6MblUqVL58uVzPubPn79kyZKHDh0yH62VAG5YWJg+/FCSPDw0c+bZGo3WR+jixaTzk238/HT//fL2tscBAMhwdJOBTOXff+XvrwMHJO1Q5UBFRCu/rWTxYvESKgAA2c2YMWMSExPNca5cuXr16uWaT9Xff//tHF99a1/RokWd3WRrJYAb8/nneuONpPEXXxyo1vKRSub+EBcOh3LnVunSGjmSVjIAwE3RTQYyj5Mn1bix9u6VdLJA+cZRy06qiK3Ex0dVq9piAAAgizt9+vTkyZOdj126dClSxL5ISE10dLRzfPV25ty5k0/TMm/ku1psbGxsbKw5Pnv2rKS4uLi4uDiXolvN/Pq3+5+SGTEzqcnAmXGEh3s+/7x5akxCWFhi585T3k04csTTViapdu3E1asTzHG6facZODPujGlJDTOTGmYmNcxMatx/ZgzDSPHbo5sMZBJnzigwUDt2SDqg0vWilv+rpBPUvLxUsqQk3XGHBg+W5f1UAACQLYwfP/7ChQvm2MPDo1+/fq7562UYRpqRq4WFhQ0bNswaiYiIsLahb5/IyEh7CJKYmdSl/8wU2bq19jvvOAxD0s7mraec9j/Xe+eaNSWlwvZSqWjRvxYv3mGPpov0n5lMgWlJDTOTGmYmNcxMatx5ZgzDOH/+vD1KNxnIHM6dU5Mm+vVXSUdUvJFWHFRpZ7JmTf34Y3ItAADIVmJjY8eNG+d8bNGixT333GPJp8HPz+/48ePm+OLFi65Jl0j+/PbztUwDBw509q/Pnj1bqlSpwMBA6/nLt0NcXFxkZGRAQICXl5c9l70xM6nJkJlxbNzoOXKkIz5eUlyXp9tvnrh9gYetpmBBo2BBeXiobl1j1Kgyvr5lbAW3W4bMjPtjWlLDzKSGmUkNM5Ma958ZwzBSfDWNbjLg9i5eNEJDHevXS4ryKuIft/wv3W3Nc0oyAADZ2fTp0//991/n44ABAyzJtJUrV87ZTXYOnI4dO+YclytXzpJJ5uPj4+PjY414eXmlz+9F6fYPynSYmdSk68zs2KHQUJm7ulq1Wvfk/7ZPtbeSJb35pqNvX3PokFIoSB/pOjOZB9OSGmYmNcxMapiZ1LjzzBiGkeL3RjcZcG+xsWrVyrFqlaQo5W8YF7lLlcxM0aIqWVL16mnoUOsHAABANmIYxpgxY5yPjz76aJ06dSz5tNWsWXPDhg3m+NChQ9HR0X5+fuZjVFTU4cOHrZXOMYA07N+vwECdPi3pQPlGX907Y+uElH/7btjQHgEAwJ1l2F8+AaQtLk5PPKEffpB0VnmDtHSbkq/Y69dPv/yisWN11X05AAAgu1i8ePHOnTudj/3797ckk+3fv99hsWrVKmeqbdu2zrFhGOHh4c7HWbNmOcdyrQRwLcePKzBQR45I+sWzRpU/vx/ybs45c5Lz+fOrXj01barvvtNDDyXHAQBwfyn/dRRAxktIONW8S6Gl30u6oFxNtWiTHrbm2cUAAABGjRrlHFeoUCE0NNSSvC7169evWbPmpk2bzMcBAwbkzJmzRo0amzdvfu2115xlDz/8cD1O1wKux9mzCg7W3r2SoopVDDq2OEZ5bSWNGmn2bFsMAIDMgW4y4JYSE/9p0qN05DeSYuXdQvPWKen3t7p1lS+fnnpKtWq5fAIAAGQ3W7Zsse4y7tevn4fHzbx6+OWXX9auXdu8szsqKqpTp062Al9f30mTJtmCAFJw6ZJCQ83bs6Pz3ln1WMRJFbHXSE2b2iMAAGQWdJMB92MYevnl0pFfSopTjjYKX6YAM+PjozVr5HC4lAMAgOzJujG5aNGiXbp0sSRvQJUqVSIjI1u3bn306FF7TipevPjs2bOrVKliTwCwiY9X+/ZavVrSaY9Cj56LOKjSzuRdd6lGDXl5qXFj3ey/rAAAZDy6yYCbMYyo514v8MU4SQnyeFIzFqq5MxkURCsZAABI0j///GM947hXr145c+a05G9MnTp19uzZM2HChPnz5//xxx9nzpzJnz9/pUqVQkNDe/bs6evra/8AAJvERHXvrvnzJcXn8g26uMR5e7apbVu99541AABApkQ3GXAvZwcML/DFB+b4GX35ndpJql5dxYurUiUNGuRSDAAAsq3SpUvHxcXZo6koW7asYRj2qCtfX9/+/fundo8fgGsxDA0YoKlTJcV7egdd/H6zalrzOXKoZUtrAACAzIpuMuBORo3KN3qoOeyp8V8p6RW4sDAFJJ11AQAAAMDNvP++xoyRlOjwaJfwzQr5W5Ovv67QUG49AQBkEXSTAXdx/K3Pig4bYI77aszn6mmOCxZUnTrJZQAAAADcyBdfaOBAc/h6/s/nRrWyJps1U1iYNQAAQOZ2M5c+A7jlzo+bXHRYL3P8poZ/pL7m+OWXtW6dOKsQAAAAcEfh4eqZtAvkk5LvjY7u7ppW1662AAAAmRt7kwE3MHNm7peT1p3vauAIvWGOX3lFlqvaAQAAALiTyEh17KjEREkfaMBrh1+zJrt107PPcsAFACCroZsMZLCjE+YVfaGTp5Eoaax6v6ERkkOSh4cef9xeDAAAAMAtbNyoli0VFydpkp55Te9bkx4eGjlSBQpYYwAAZAWcdAFkpMsLlxZ8vp2nkSDpf3q2jz4yW8n9+mnFCtWta68HAAAAkPH++ENNmuj8eUlz9fhz+txcxjt16UIrGQCQNbE3Gcg4q1d7tn7cU5clTdeTz2u8uQbt0kWjR9trAQAAALiFAwcUEKDTpyWtVMMO+ibhym/WPj763/9Upgz7QgAAWRbdZCBjJPy4PiGomfflS5LC1bqrpiTKU5LDoSeesBcDAAAAcAsnTigwUIcPS9qs6i00L1Y5ncm77tJTTyXXAgCQ9dBNBjLCr7/GNQ7OGRsjaZFCOuprczvD4MEKCFC9evZyAAAAABnv7FkFB2vPHkm7VaGJlpxTPmfS4dAbSddpAwCQZdFNBtLdjh0KDMx5KVrScjVqo/A4eUsKCdHbb9trAQAAALiFS5fUooV++UXSQd0ZoMiTKuJMRkaqcmWVKJFcDgBAluQWt/BNmTLFcX2mTJli/3BKunbtav/kVWJiYuwfA9LB3r0X6zbWyZOSftQjLTTvknKZma5drXUAAAAA3EZ8vDp00KpVkk6qUKAiDqq0M1m1qho3ppUMAMgW3KKbDGQXBw5cquuf68y/kjareogWn5evpMaN9dNPatvWXg4AAAAg4xmGevTQ999LilGeEC3epUrOZK5cGjEiuRYAgKwtk510UbRoUXsIyCwOH1ajRjmPH5T0u6oEaelZ+ZmZDz9UlSoutQAAAADcxWuvafJkSZfl9bi+36SHnZn589W4sXIlvW0IAEDW5xbd5DZt2jRs2NAelSS1aNFi27Zt5rh8+fLBwcGu+bStXbv2zjvvtEelPHny2EPA7XP8uNG4seOvvyTtVoXGWnZahcxM3bq67z6XWgAAAADu4v33NXKkpAR5dNTXy9XYmcmbV4GB8vFJrgUAIMtzi26yr6+vr6+vPSpt2LDB2UqW1K9fPw+PGz6a48477yxbtqw9CqSn06cVGOjYtUvSXyrnr+XHVUySj4++/lrBwXI47J8AAAAAkPG++EKvv24Oe2rCbLVxZvz89PHHtJIBANmOW3STUzNy5EjnuHDhwl1v6pKyFi1aHDhw4MKFC/nz569cuXJwcHCPHj0KFixorwNuk7NnFRys336TdEgl/bX8sJI2y4eFqVUrl1oAAAAA7mL2bKNnT3Pjx+sKm6hnnZktW/TAA8rh1r9PAwBwW9zwVt9089dff82dO9f52KtXr1w3dRjVtm3boqOj4+LiTpw4sXr16oEDB1asWDEiIsJeB9wO58+rWTNt2iTpmIr6a/l+lTMzJUpw7R4AAADgphIilid26OhITJQ0Sq+8r9ecqcKFaSUDALIv9/0P4JgxYxITE81xrly5evXq5Zq/eSdPnmzRosW6deuqV69uz0mxsbGxsbHm+OzZs5Li4uLi4uJcityJ+b2583eY4TJsii5d8mzZ0mPtWkmnVLCxlu1RRTPj7584Y0ZCwYJK/28qRRk2RZkHU5QmpihNTFGamKI0MUVpusYUGYaRYhwArmZs3BQb8njuhMuSJqvrAI2UHJK8vFS2rD76iFYyACD7ctP/Bp4+fXry5MnOxy5duhQpUsSST1vFihVbtWpVr169cuXKnTt3bvPmzcOHDz969KiZvXTpUr9+/VavXu36IUkKCwsbNmyYNRIREZE7d25rxA1FRkbaQ3CVzlPkiIt7+P3379i8WVK08gUqYrvud2Zr1964fv2x5Gr3kM5TlBkxRWliitLEFKWJKUoTU5SmFKfIMIzz58/bowBwtV27EgKb5E6IkfS9WjyrL8xWcsGCOnXKXgsAQHbjpt3k8ePHX7hwwRx7eHj069fPNZ+GESNGlCxZ0hqpWbNmaGjo/fffHxUVZUbWrFlz5MiREiVKWMskDRw40PmPO3v2bKlSpQIDA/Ply+da5Ubi4uIiIyMDAgK8vLzsOUjKkCmKj/fs3Nlj82ZJMcrTREt+UfJG+Bo1El97rXrOnMnlGS4DpiizYYrSxBSliSlKE1OUJqYoTdeYIsMwzpw5YwsCgN0//yT4B+SIPiVplRo8oZkJV35rrlXLpRAAgOzJHbvJsbGx48aNcz62aNHinnvuseTTZmslO4NPP/30mDFjnJGtW7de3U328fHxcb2X18vL6+pfSNxNpvgmM1b6TVFiorp31+zZki7JJ1Tzf9YjzuScOQoJ8fDxcccjy9NvijItpihNTFGamKI0MUVpYorSlOIUGYZxdRAAXJw4cfmxQO8jhyRtUbVQzY9VTm9vFS+uBx7Qp5/aywEAyIbcsZs8ffr0f//91/k4YMAAS/I/ueuuu6yP7E/BrWcY6tVLX30lKc7h1cqYs1KNnMl8+dS8OYesAQAAAO7n3Dk1aeL9125Je3RPEy05p3ySGjQQl7gDAODkdhskDcOwbh9+9NFH69SpY8n/J3/99Zf1sWDBgtZH4L8yDL3yiiZMkJQgz/bGzCUKseaHDKGVDAAAALifS5f0+OPaskXSIZUMUOQJFTUzDRq4FAIAkM25XTd58eLFO3fudD7279/fkky2f/9+h8WqVaucqaVLlw4aNCg6Ojq5WpJ05MgR681+DoejWrVqljzwnw0Zog8/lJQox1OaOletnJlu3XTokF55JbkWAAAAgFuIj1fHjlqxQtIpFQxUxD8qY2befFOvvupSCwBANud23eRRo0Y5xxUqVAgNDbUkr8vFixfDwsLuvPPOZ599ds6cOTt27NiyZcuECRNq1qzpvIJPUkhISNGiSX9tBm6BsDC98445fLPI/77Wk9Zkt25K6TRvAAAAABnKMNSzp+bOlRSjPCFa/Icqm5n339fw4eLEdQAArNzrrfstW7ZYdxn369fPw+Mm+90xMTETJ06cOHGiPSFJKlSo0EcffWSPAjdt7FgNGmQO3y40NuxEd2uybVsugAYAAADc0uuva9IkSZfl1VJzNypp4e7hoYAAl0IAACB325ts3ZhctGjRLl26WJLXK0+ePNfuQVeuXHnFihXly5e3J4Cb88UX6tPHHH56Z9jQU72tyZkzNWuWrvl/SQAAAAAZ4YMP9MEHkhLleFIzlim5f7xokR56KLkQAACY3Ghv8j///BMeHu587NWrV86cOS356xUQEHDw4MH58+evWbNm+/btBw8ePHfunI+PT7FixapXr96qVas2bdp48bYSbpXp0/Xcc+Yw7vXBL773ujXp4aHHHrMGAAAAALiHSZP02mvmcFD+8eFn2jozL72k4GDnEwAASOZG3eTSpUvHxcXZo6koW7asYRj26BUlSpTo2bNnz5497Qng1po9W127yjAk/VirX933htnyQ4eK07kBAAAAtzN3rnr0MIcL64x4/+ekDSKmli2tTwAAIJkbdZOBTGbxYnXooIQESWc79qz79SjJYc3v26e77rIGAAAAALiBlSv1xBNKTJT0pV/fbj8PtCY//5z3CwEASBWHuQI3ZflytWqluDhJ59t0mdXgU1sruUgRlSljDQAAAABwA5s3KzRUly9Lin68S/dol00hDofatUuuBQAANuxNBm7cjz8qNFSxsZIiC7RrEj4xIdzlDzMFCujTT+XpaY0BAAAAyGi7dqlJE8XESDpdL/T+nyYarlusWrRQ/vzWAAAAcEE3GbhBmzcrJEQXLkjaV7l5yM7pCa7/Ht13n377jVYyAAAA4F5ynjiR46WXdPKkpIS69e/9deaJGJeV/LRpatPGGgAAAHacdAHciN9/V1CQzp6VFPNIwJNes+LlZSt57DFayQAAAICbOXnykWHDHAcPStKDD256c/6JmFzWfK1a6tRJOXNaYwAAwO7/7N17fM71/8fx504Yc2aY45yiFOVQiqjZ5jhfZ5Zz+E4iOeRQSr+S5JD6Us6ppBxDDBsJIcckJXK2nI8bY65tn98f17p2XZ82l4pd17bH/dat2/vzer/e7PbyqX328r7eH/YmA3ft4EE1aqTLlyX9mLf+U1uX3ZTDw6anp+rV06uv2scAAAAAuFpcnFdYWN6YGEmqWHHFC2taNs5vSunXzxQAAABpoJsM3J1jxxQUpPPnJV0oX6fB0ZU3ldt+ftw4DR7MrmQAAADAzSQkqFUrz127JBkBARe+iG5Vt5gpZe9eVa9uigEAgDRw0gVwF2Ji9Oyz+uMPSdcrVh9Va02c8plSatWilQwAAAC4maQkhYdr/XpJt/38Elet+uFsueRkh5QWLWglAwBwt9ibDDhz7pyCgnT8uKTfvas+dTjqwuGC9vPFiql3bz3zjH0MAAAAgKsZhiIitHSpJCN37u9HvD5/yiOzZzuk5MqlQYMcIgAA4A7oJgN3dOmSGjXSoUOSLheq0ODyugvyt58fOlTvvWcfAAAAAOAeRo7UrFmS5OOTtHDhsrUlZs82fzz3xAn5OzzgAwCAOzF/KwWQ6to1hYZq/35J8UVKv1hl/RkFmFLq1DEFAAAAALiBCRP07ruS5OFhfPb55dohv//u8BFDSb160UoGAODvYW8ykI7r19W0qXbvlnRGxetf/PbIxbK2ST8/+furUye1bp26AgAAAIBb+OQTDR1qHR4d8lGDoR1iYiQF2qcUL84ZFwAA/G10k4G03LypsDBt3SrpineRoMT1R1TRfn7MGA0YYB8AAAAA4B6WLVOvXinjt98O/yYiJsZhXlL79po3Tz4+5jgAALgzTroA/iIhQW3aaMMGSQm5C7TIEXVAD5pSnnzSFAAAAADgBjZsUMeOSk6WZLw08Finkdu3m1MktW9PKxkAgH+CbjLgKDFR4eFavVpSnPwaxK/eEv+obbJcOdWurZkzVatW6goAAAAAbmH3brVsqYQESQntu9TZPLF8BQ9TioeH2rRR8+amMAAAuCucdAHYSUpSt25aulRSvHyba+V2PWE/v2GDypWzDwAAAABwDwcPqnFjxcVJUvPm0+vM3rXQvH1qxw7LAw/45MtnCgMAgLtFNxn4k2EoIkLz50u67ZGjlfH1JjWwny9bVmVT38MHAAAAwG3ExCgkRBcvSlL9+pc+Xjg91HySRYECtx5+2CtXLlMYAAD8DXSTAUmSYWjgQM2aJcki77bGoiiFWmcKFFClSipbVqNHy8P8OTkAAAAArnbxokJCdPKkJFWvvnHIN40r+d665ZASGGh07vyjlxcn1gEA8K+YP/gDZEeGoREj9OGHkpLk2VnzvlGYbbJlXBdNEQAAIABJREFUS+3YoUWL9NBDqSsAAAAAuIW4ODVtqgMHJKliRa1d++7H+U2t5LFjdfBgYs2a5x2iAADg72NvMiC9/bbGjbMOn9fshepgPxkcbH8FAAAAwG0kJKh1a+3cKUklSsQujvpue7E1a8xZdeqYIwAA4J+hm4xsb+JEvf66dfiCpn6q7raZpk3VvLnCw20BAAAAAG4jKUmdO2vdOkkqUODaoqiabQKPHDFnjR2rZ55RYqI5DgAA/gG6ycjePv5YQ4ZYh4M14WO9YJvx99eqVbYrAAAAAO7EMPTCC1q8WJJy51Zk5IrD1f7aSt6xQ7Vrm4MAAOAf49xkZF/Jn3yqF1Lax6/rzUkabD/brJn9FQAAAAB38uqrmjFDknx8LkxbMu2nugMGmFPy59cjj5iDAADg32BvMrKrBQv0fE/r8F0Ne0ujrONq1fTAA3rkEQ0dmpoLAAAAwI1MnKixYyXJw+Pqh59VG9L4/F9esNesmV59VTlzmuMAAODfoJuMbGnFCnXu7GkkS/pQ/UdorORhnenfX336OOQCAAAAcCNz59pOq9PUqUt8Ov61ldy/vz780BwEAAD/Ht1kZD9RUclt23kmJkqapecHarKtlezrq5AQh1wAAAAAbmT5cvXqZR1ueOb/vvm9786djgmSpNBQcwQAANwTdJORzWzalNzyP56W25K+UPh/Nd2Qp6RWrVS2rDp3VrlypgUAAAAA3MPGjerQQUlJkqbnHBCx4TVtMKe0aaNWrXgJCgAA9wvdZGQn27erWTPPWzclLVWr7pqbLC/rzMcfq1gxh1wAAAAAbuTHH9WihRISJB2r17nv9+/bPmJoM2iQJk40xQAAwL3kaQ4AWdXevQnPNtb165JWq3EnfZkoH+vM00/TSgYAAADcVHy8Pn750LW6oYqLk7SnRLOO8XOsHzG05+GhsDBTDAAA3GPsTUa2kPfUqcTOvXzjr0r6Vs+01tLbSnm78/vvq0cPh2QAAAAA7mNEl5hBS4Pz64KkzaoXembhzTMp+0IklSunoCD5+qplSzVokLoKAADcD3STkQ0cPvzk66/nun5F0lbVDdOKW/K1zgwcqIEDHXIBAAAAuJFLl/ouCy2rk5J+0iMt9M1N5bafDw3VtGn2AQAAcB+ZPxwEZDG/rztxrXbjXFeuSNqtx5oq8ob8rFM+PurQwSEZAAAAgJv4/HO1Drn+S2CzKsm/SjqsCqFae00F7HO8vNSxo30AAADcX+xNRlZmOXHau3FQkaSTkvbrIdvTZ5s2qllTTZqoRg3zEgAAAAAut2GDenVN+EatH9J2SWdUPERR51R84ED5pWwOUc6cCg1V7dr26wAAwP1FNxlZ14ULic80Ckw6IumQKjXSuksqYp3p10/PPOOQCwAAAMB9bFiX9Lm6hCha0hUVCFHUMZX38dE778g35dQ6AADgApx0gaxp0/IrRyqG+B47IOm4ygZp/TkVt05VqaKnnnJIBgAAAOAOpk5VzZqqXMkInNCvvRZJipdvM63ar4cl9ehBKxkAABdjbzKyoEvH43K2alLB2CvpDwU8q29jVNrf3xg2zKNIEbVooRw5zEsAAAAAuNbmzXrxRUl6S6N6aLoki7zbaEm+0CenhqlCBTVqZFoBAAAyGt1kZDnx8Wre/HFju6TzKhqk9cdUXlLVqsagQR7mZAAAAADuYds2SRqo91/TGEnJ8uiqz9aoyZQWeuEFUy4AAHANusnIUo78mhDbsNWjFzZJuqyCjbTuoKpI8vAwIiKSOdoFAAAAcEMbN2rAAO3bpy767H0NsgYH6MOv1CkwUG3bOmYDAADXoZuMLMRiiXmqfYOrUZJilTdUa3/WI1Wr6uWXE2/d2tSmTX1zPgAAAABXS05WeLhOn1ZzfTNHPa3BeRVHB733Yks/1a0rPz/HBQAAwHXoJiOrSEpKeq5Lg6srJN1Q7qaK3KXakmrXVvfuRmRknDkfAAAAgBuIidHp06qvTQvV3ltJkj5U/9t9Xh/SypwJAABcjg/+I0tITj7UoJfXogWSbilnmFZsUT1JefKob19zLgAAAAB3cOuWOnRQ2bKqoR+/UQtf3ZL0hcKnPTC5S1deeQIAgDtibzIyP8O42uXFylvmSrotnzZa8q2CJC1cqHr1VKKELBaHdAAAAADuYMECLVyoivp9jRrnV6ykSDWptnPuvhqe3vyoCgCAW+JbNDI5w9DQoQXmfywpSZ7hmh+pZpJKlFC7duZcAAAAAO5jyxYF6I9oBRfTeUnf66kxNRZvqeVjzgMAAG6DbjIyudGjNXGipGR5dNOnS5TyvufXXnPIAgAAAOBWRo3S4pmXNym0nE5I2qeHu+T/ZvbE3OY8AADgTugmIzMbN07/93/WYYSmfaHOknLl0sGDKlPGIREAAACA+zh7Vu+/fSNazarpF0lHVH52u7WHvyzo5WXOBAAAboW38CHT+t//NHy4dThQ789UH+s4IoJWMgAAAOC+EhO15MvbS9S6rn6QdEbFgxVdr10JWskAALg/usnInGbP1oAB1uFIjflAA63jkiXVr19qFgAAAAC3EhurunWSCg/qGqooSVeVP1Rrn+lZ/j//MWcCAAA3xEkXyITmz1fv3tbh23p1rEZax/ny6ehR5ciRmggAAADArSxfZvT88cWOWiApXr7NtdKo9sjs2eY0AADgnugmI7P5+mt17SrDkDQ998BR8W/ZZjp0oJUMAAAAuKkjR7Rnj3zHvdFF0yRZ5N1Wi7eoXs865kwAAOC2OOkCmcrq1erQQUlJkhYW+m9E/CTJwzY5ZEhqIgAAAAD3sXixKlfW9+0/aPtrynaQ7pq7Wk3DwvTuu46pAADAjdFNRuaxYYNat5bFIun78l06Xv7IvpW8a5cqV07NBQAAAOA+Jk9WePLntved9NeH8/Xcyy9r+XIVLeqYCgAA3BgnXSCT2LpVLVro1i1JRpu2bb+bY9j9XYiPjypWTM0FAAAA4A527dK2bUpKUpmfvvlEPazB0XpjivpLeuoph2QAAOD+6CYjM9i9W02a6MYNSZeeaFZtwxfnLjvcuuPGKX9++wAAAAAAF1uwQB07SlI9bY5Se28lSZqifp+Ve6N2UbVrp9atTSsAAIC7o5sMt7d/v0JCFBsrSY0atbq2+Oxlh3ftrV2rkBD7AAAAAADXmzVLkqpr70o199UtSfPVaYA+3L/K48EHTbkAACBzoJsM93bokBo10uXLkox69Q6PX7b50Vz2856eqlHDPgAAAADAla5e1eefKyZGP/2kCjq8Ro3zK1bSajXurrkBJT0feMC8BAAAZBZ0k+HGjh1TUJDOnZN0u3rtx0+v2vtoHlPKpEny9zfFAAAAALiGYahJE/3wgySV0OloBRfXOUl78zw5tc6S58rmGDZMXl6mRQAAINOgmwx3FROjoCDFxEjSI4+MD1qzd1I+U8rx4ypb1hQDAAAA4DInTqS0kgvq8lqFBuq4pJ9VLWnZypWNcjvmAgCAzIduMtzSuXNq1EjHjklSlSqn5kR/FFbIlFK0qEqWNMUAAAAAuMbp05oyRUuWSFJu3Vip5g9rv6SjCuxRYu22BgVN+QAAIDOimwz3c+mSgoN18KAklS//dsN1o2qZD7OoUEH/+5+8uX8BAAAAN2AYatRIBw5Iko9uL1bbJ7VN0tVcxRZ3iVo0IsDHx7QCAABkSnTj4GauXVPjxvr5Z0kqVera0vWja5p3IM+apeefN8UAAAAAuMyRIymtZA8lf6puTbRGUqxn/gI/rH2lekVTMgAAyLw8zQHAhW7cULNm2rVLkooVu7Vq/WebyiUlmbNq1jRHAAAAALjKmTNq1846ND7UgE76StJN5fqm9zeqXt0hFQAAZHLsTYbbuHlTYWHaskWSChe+unjdE+0rW4+7sAkMVP/+qlHDIQgAAADAhdq21d69kjRao1/UVElJHl57hi8OH1PflAkAADI7uslwD7dvq21bffutJOXPr6ioRburmVrJFSro8GGHCAAAAADXio/X1q2S1F8fvqH/swa9Ppv7VOdm9mkAACBr4KQLuIHERIWHKzJSkvLk0erVR/I/9t575qzHHzdHAAAAALjQrVvq3l2SwvXFh3rJGtza4QN17myXBQAAsg66yXC15GT16KElSyQpVy6tXLniQt0HHjBvQ27XTpMnO0QAAAAAuNa772rRIjXVqrnqbo2c7Dbqya8GOCQBAIAshG4yXMowFBGhefMkycdHX3+thg0/+ECmN+8NH66FC1W0qEMQAAAAgGtt2aKn9P1itfVRoqS5uV8o88mb5iQAAJCFcG4yXMcw9PLLmjlTkry8rkxfuPJC4xvT9Msv5sR69cwRAAAAAK61aJHOr/tpo5r76pakL9Xx8pv/k4eHOQ8AAGQhdJPhOq+9pg8+kCQPj0uTP39w+H/OnzenSJo8WU2bmoMAAAAAXOjKFb3W6chGhRbQNUlrFHrsjU9HDuHDrwAAZHF0k+EiY8bonXdSxrNmzYvrlGYrec8ePfqoOQgAAADAtX5df2Z1UnBxnZO0TU+00ZKtrXKYkwAAQJbDXx3DFd5/X6+9Zh1Gt5zy3sWey5c7JkiSihZVtWrmIAAAAAAXslg0oMuVvO1Cy+uYpP16qJlWNW6d55FHzJkAACDrYW8yMtz06Ro0yDocqvcmLO8nx1ZyQIDKl1fJkho+XD4+DlMAAAAAXGvVovgO85o/op8lHVO5EEXd8i20eDEHJgMAkC3QTUbG+uwz9e1rHU7I88aEG0MdpyWpd2+NHm0OAgAAAHAVw9Dp00pMlG7frvxq2we1VdI5+Qcr+owCOoTRSgYAILvgpAtkoEWL1KOHDEPS93WHDr3xhjlBkhQSYo4AAAAAcJXff1flyipVSoHlkrdU7v7g8dWSrilfqNYeUcWAAL36qnkJAADIqtibjIyycqXCw5WcLGmq+r24bZyUuoGhUSPlzKk8edSxo558MnURAAAAANd6910dPizJ+EAvhetLSTeVq4W++Uk1WrXS4sXyZJMSAADZBt1kZIh169SmjRITJW2q0KP/kQ/tW8keHlq+XLlzp6YDAAAAcAeXLunTTyXpdf1ff02RlCiv9lq4WU9LatGCVjIAANkL3/lx/23erJYtdfu2pB+rdHzmyEzD8cZr1IhWMgAAAOB25s6Vv7+SktRPU97UaGuwp+asVAtvb7Vrp44dHfIBAECWRzcZ99mOHWrWTPHxkparZZ3fPkuWl/38qFFauNA+AAAAAMAtjBql5GR10vwp6m+N/NTj/Y/iusbF6fp1LVwoX1/HBQAAIKvjpAvcTz/9pMaNFRcn6UDZ0PYnFiTKx35++XKFhdkHAAAAALiF339XTIyaKPJTdbNG3tZrPd8e6OfnmAcAALIT9ibjvjlwILlRsK5ckXSgWIO2HktvK6f9fOHCatDAPgAAAADALSxYoMqV9aS2LFZbHyVKmuUdETDr/wICzJkAACBbYW8y7o8jR9SokefFC5K26YmQc99cl8PRyK++qm7dlD+/fQwAAACAW5g4UQ9r30o1z62bkhaofeerU3LlSX2TNgAAyJ7oJuM+OHlSQUE6fVrSHj3aRKuvK6/9/OzZ6tnTPgAAAADA9W7c0Jo1OndOCb8dXavQgroqaa1CJlb/vEMeh9efAACA7IluMu61M2duPhXkG3NC0i96MERR11TAfr5AATVubB8AAAAA4HrJyQoO1rZtKqazWxRcQmclbdMTEUWWrF2Yw5wNAACyJbrJuKcuXrQ0bOQbc1jS76rYSOsuqYh15pVXJCl/frVrJ05bAwAAANzNvn3atk35dXWtQivoqKT9eqiZVu3Y5lexojkZAABkT3STce9cvaqQEJ9Dv0o6oTJBWn9WJawz/v4aN84hFwAAAICb2LlTa9fqwAH5Kn6lmlfXPknHVTZUa/OWKVS+vDkfAABkW3STcY/ExV16vEnhQz9KOq0Sz+rbUypjm+zRIzURAAAAgPvYtEnPPqukJHnLskzt6mmLpAsqOrJ29LMPlBw5Up6e5iUAACDbopuMeyE+Pu6ZsMKHfpB0XkWDtP6oKkiqUkVduqhaNbVoYV4BAAAAwB0sWKCkJHko+RP1aKZISdeUb8Rja+fvqGROBQAA2R7dZPxrCQlq3Trv7u8kXVGBYEX/pqrWmXr1NHKkfSoAAAAAdxEZqVWr9NFHkozJGthZX0i6pZxhWtGi06PmbAAAALrJ+JdWLbPk79Ox3oW1kmKVN1Rr96m6dSpnTnXvbp8LAAAAwF2sWqXmzVPGr+ntAfqfpER5TX16YadODfr0sc8FAABIQTcZ/1zMiaS4Vl2baZmkePk206qdqiOpfn116aIGDVS5snkJAAAAAHewbFnKoK8+ekuvW8c7/jtn8LQwWw4AAIAJ3WT8U8nJlu69O+orSQnK0VLLv1d960xIiHr3dsgFAAAA4A4uXdKYMTp4UHv2SFJHfTlFL1qnXvWd9NL/dbVPBgAAMKGbjH9i6hSj8JsDOl78RJJF3m21eJ2CrVNFiyo83CEZAAAAgJt47jmtXZsyDtWaz9TVU4akzfVHdpv1sr+/fS4AAIAZ3WT8bdu2Gjf6D+unqZKS5Bmu+SvVokYNDRokX181aKCiRc1LAAAAALhcUpKio1PGdbV1qVr7KFHSkaA+9aPflod9LgAAQBroJuNvM978v1c03jruoU8Wq52kJ55Qly4OaQAAAADcxPXrGjZMq1crOVmSqunnVWqWWzclfePbrv6Cj+RBLxkAADjnaQ4Af/HVV6pWTUWLqmhRjc4z/smo0dZ4hD7+XF0lFSigiAj7FQAAAADcyLBh+ugjHTsmSYE6ulahBXVVUkzV4NoHPi9Q2MuUDwAAkCb2JsOJCxfUubOSkiTpBU0drVes8Zc1aboiGjfWSy+pTh0VKmS/CAAAAIAb2bQpZVBMZ6MUEqAzkow6dUqtXyq/nPaZAAAAd8DeZDjx448preQemjP1z9c9v6a3JutlSU8/rcaNaSUDAAAA7sgwNG6cKlfW/v2SlF9X16hxRR2RdKFIVY/ISPn5mZYAAADcAd1kpGvxYpUvr9BQSeqoL2eplzX+jkaM0auSAgPVrZvdAgAAAADuZONGDR+u33+XJF/Ff6MWNfSTpITiZYrsiVLhwqZ8AACAO6ObjLTFx6tbt5SD1Vpq2efq4ilDUkzrAU9+O2bDBo8fftCBAwoIMK0DAABAxklMTJw3b1779u0DAwP9/Pzy5MlTrly5evXqjRgxYvPmzebsdHTv3t3DmevXr5uXITPYsSNl4C3LAnWor+8lJRUumnNjtEfpUvaZAAAAd4Nzk5G2335TfLwkhWrNAnXwVpKkDRV7P7N4cile9wwAAOAGdu7c+dxzz/1u3Xf6pxMnTpw4cWLLli3R0dG7du2yn0I2YRh67TXP6dN17VpKxEPJc9SzhVZKuumT1zdqjSpXtl8CAABwl9ibjDS89ZZq1pSkBvrua7XKqduSFud8rsiij0UrGQAAwA189913DRs2NLWSAUkHDxZ87z0vWytZMiZpUBfNk5ScI2eutSv02GOp2QAAAH8He5NhduiQXn9dkp7QtpVq7qtbkq41atNyxVwfXy9TMgAAADLehQsXOnXqFG/9KJnk5+c3cODA+vXrlylT5sqVKydOnFi/fv358+cdF92VzZs3lyqVxgEIefLkMYfglgxDe/f620de1ZiB+kBSsoen58IFeqah/SwAAMDfQjcZDgxD334rSY9qz2o18dMNSTuKNq2zar5ycLcAAAC4hQkTJpw9e9Y6LlSo0O7du8uVK2ebrVu3bseOHW2Xf0upUqXsfylkLvv2KSzM+8SJKrZIhD5+W6Os4xuTZ+Vt2dI2BQAA8A9w0gVS/fyzKlRQ3756UL9EKaSArkna7POs19LFypHDnA0AAABXSEpKmjlzpu3y3XffLVeunMViOXPmzJUrV+wS/4mWLVsWKFAgR44c/v7+DRs2fPfddy9fvmxOgrsaNUonTqQeTNdeC6aqn3VsjJ+Qd0AP2xQAAMA/QzcZqUaN0rFjqqjf1yuoiC5J2pPryScvLK9Zz9ecCgAAABf56aef7LvGefPmbdKkSd68eQMCAgoVKuTv79+rV68jR47Yrfgb9u3bd+3aNYvFcuHChY0bN44YMeKBBx6Iiooy58HNJCZq/36tWJEaCdHaz9XFU4YkDR/uMWRw6hwAAMA/RTcZqTZuVFkdX6+g4jonaZdqLuoR6ZXfz5wHAAAA19m3b5/9ZXh4+Jo1axISEqyXFy5cmD17do0aNSIjI+3T/rGLFy+2bNly9+7d5gm4jePHVamSHn44NfKEti1V6xyySFLv3nrnndQ5AACAf4GTcCFJiYl67jnlvvrHegWV0SlJP6vasOprP3s1vzkVAAAALnXp0iX7S8Mw7C+trl+/3q5du3379lWoUME8l5YHHnigdevW9evXDwwMjIuL27Vr11tvvXXmzBnr7K1btwYNGrRx40bHRSkSEhJsvezY2FhJFovFYrE4JN1r1l//fv8umcWUKZ7Hj6e+Lvsh7V+lZnkULym5VaukDz9UYmJqdnbFPZMeKpMmypIeKpMeKpMeKpMe96+MYRhpfnl0kyFJmzZpw8LzG9Wogo5KOqjKVxetW9+2sDkPAAAArmZr3dqMHTu2V69eSUlJ//vf/8aMGWMNxsfHjxs3bsaMGY65aRgzZkzJkiXtI7Vr1w4LC3v44YdtR2ps2rTp9OnTAQEB9mlWY8eOffPNN+0jUVFRuXPnto/cJ9HR0eZQtnHhQq4TJ/JJHpIiIytJKY/u5XQsSiGFdEXShUce+SE8PHntWvuF2Vx2vmfujMqkibKkh8qkh8qkh8qkx50rYxjGjRs3zFG6yZB0/bpWzL0creCq+k3SUQU2zbH+x5Bi5jwAAAC4gXz58tlfNmjQYPjw4dbx22+/HRkZ+eOPP1ov7/K8Y1Mr2Rbs0aPHpEmTbJG9e/em2U0eMWLEoEGDrOPY2NjSpUuHhISYvsh7zmKxREdHBwcH+/j4mOeygS+/9OjTx8swUl+4Z+Wvc1EKCdAZScm1ahVYu7Zx3rymnGwrm98zd0Bl0kRZ0kNl0kNl0kNl0uP+lTEM4+rVq+Yo3WSsWqXurWNX3W5cXfsknVKpIK1/Y3qp+/z8DwAAgH+oVKlS9pc1a9a0v6xVq5atm2w7quKfKV++vP1lmj9OSMqZM2fOnDntIz4+Phnzc1GG/UbuZuJE/fWAk3y6tkaNK+mwJKNKFc/Vqz0LFTInZXvZ9p5xisqkibKkh8qkh8qkh8qkx50rYxhGml8b3eTsbuxrN5beblZHOyWdVbEgra/dLrB7d3MaAAAA3EStWrXsL5OSkuwvE+1OyM377/alHj161P6yEK1J17FY9O23OnUq5fLIEYdZSbl0c4XCHtVeSfFFi/pERvoUKWJOAgAA+Nc8zQFkG/Hx2rL+1ht7/1Nf30u6pEKNtO53Va5Rw5wJAAAA91GqVCn7hvL3339vGycnJ2/dutV2Wb16devg+PHjHna+++47W87atWtHjhx57do1W8Tq9OnTn3zyie3Sw8Pjscces5tHhgoPV+PG6t075R/7MwwDAlShjGWFb4cG2iTJKFJk2+jRctzADgAAcK/QTc6mjhxR1Qq3LzdqF6x1kq4pX4iiflG1jh310kvmZAAAALiVl19+2TbevXt33759d+3atWPHju7dux88eNA21aVLF9s4PTdv3hw7dmypUqV69+69dOnSX375Zffu3dOmTatdu7btFXySmjZt6u/vb7cOGefsWS1ebA7a/LA1+XCD54NvfiNJfn6JK1deT+sgbAAAgHuCky6yqTkzEsef7dxCKyVdV54mWr1HNY8fV9my5kwAAAC4m/Dw8AULFqxYscJ6OW3atGnTpjmmqGHDhl27djUF03P9+vVZs2bNmjXLPCFJKly48OTJk81RZIiff9aYMeagTYXyRqn3B+vzzyUpRw6tWKHHHlNkpDkPAADgHqGbnO2cPaud25Prz+3ZWIsk3VSuMK3YpieLF+fzcAAAAJnGggULunbtumjRIvOEJKlFixaff/65p6fzTyLmyZPH09MzOTnZPPGnBx988Msvv6xYsaJ5Avffjh2qX1+3b6dGfHxke+1i2bL6X4mxHtZGv6envvpKzzwjiyU1GwAA4F6jm5y9bN2q4EbGxJsvROhzSbfl01pLN+jZxx/XhAny8jLnAwAAwD3lypVr4cKF69evnzt37vfff3/u3DlJxYsXr1u3bteuXUNDQ80L0hEcHHzq1KkVK1Zs2rRp//79p06diouLy5kzZ7FixWrWrNm6deu2bdum+TpvZIAFCxxayZLKl9e2bX9eTJ+uiFdTxjNnqlWrPycAAADuF7rJ2ctHU423bg6O0HRJifLqqK/WqMmMGerd25wJAAAA9xcUFBQUFGSO/kW5cuUMwzBH/xQQEBAREREREWGegEvt3q1Jk8zBpk3/HC1cqL59U8bjx6tnzz8nAAAA7iO6ydnFr79q1y49ufb1F/S+pGR5dNVnX6u1pCeeMCcDAAAAcKGDB/XUU+bg2LEaNEiSFBWlzp1l/RuCYcM0ZIhDHgAAwH3j/CQ1ZAELFqhaNR3oNvaFS29bI70187sS4XXq6JNP9PDDjtkAAAAAXGrVKiUkOERmzdLw4cqRQ/rhB7VqlXI+8vPPa+xYhzwAAID7ib3J2cKUKepvfDBWI62X/fXhHD2/eo4aN3bMAwAAAOBShqGPP9bgwQ5BPz+FhEiSfvlFzZopPl6SWrfWtGny8HBIBQAAuJ/oJmdlP/+sTZuUmKhae2e+r4HW4DC9O0X9c+RQnTqO2QAAAABcbcoUDRhgDm7dqtKlpePHFRKiy5cl6dln9cUX8uYHOgAAkKF4+MiyoqPVpImSkvSc5n2m/1qD/6dRK6oMa1pegwerUCHHBQAAAABcbfVqc2T0aD38sHTunEJCdPq0JNWqpWXLlCt1ZwtQAAAgAElEQVSXORUAAOA+o5ucZc2eraQktdaST9XNU4akCRr8ht78eZGqVTMnAwAAAHCtyEhNmWLuJufJo7ZtpWvX1KSJfv9dkh54QKtXK29ehzwAAIAMQTc5C9q7V1FRWrBATbXqS3XyUrKkj9R3qMYHBHhUqWLOBwAAAOBaJ08qLExJSQ7BunU1Z46qlL2pxmH68UdJKl1a0dEqUsQhDwAAIKPQTc5qtm5Vw4ayWPSs1i9RmxyySFpeoNvXj03pVtrjlVc4Wg0AAABwO99/b24lS5o4UVUqJqpNR23aJEmFCysqSqVLm/MAAAAyCp3FrObLL2Wx6EltWaGwXEqQtEDt830+O7q5pzkVAAAAgKslJmrECE2YYI7Xrq06tZLVq5dWrJAkPz+tXi0+aQgAAFyKbnLWceKE5s/XlCmqqV2r1SSP4iUtV9gLeecde9rLnA0AAADADcyZk0YreflyNQoyvIYP1aefSlKOHFq2TLVrm/MAAAAyFt3kLCI2Vo8/rnPn9LD2RSkkn+IkRSk4queC9f198uUz5wMAAABwB9u3myMvvqiwMGnsu5o0SZI8PfXllwoKMucBAABkOLrJWcSmTR7nzukB/Rat4EK6Immjnr44c9nUXrnMqQAAAABc4Zdf1K2b9u1zCCYmOlwWKqT//leaMUMjR6aEZsxQ69YOSQAAAC7i+rN0586d63F35s6da16cvuvXr0+cOLFBgwbFihXLkSNHsWLFGjRoMHHixBs3bphTM7k1azxmzHh48mTPQB1dr6BiOi9pu+p0yL2yYdPc5mwAAAAALtKvn3bvlsXi8I9hpCY0b64jR1Ttt8WKiEgJjRun559PzQAAAHCprLk3edu2bW3atDlz5owtcv78+fPnz2/atGnSpElLlix54okn7NIzsVWrFBbmLZUvpVObFFRSpyX9qBor+q5Z0ydvQIA5HwAAAIBL3LqljRvNQZP//lcFdkYrPDylxzx0qF55xZwEAADgOq7fm3z3/P39zaG07N+/PyQkxL6VbO/06dPBwcH79+83T2ROX38tScV0dr2CAnVc0q+qOr111JiPCtao4ZgKAAAAwBWSk9W/v/z8zHGT4GCFFNihVq1ksUhSz54aN86cBAAA4FKu35vctm3bhg0bmqOSpJYtW+7781CxihUrNm7c2HE+bT179rx+/bp1XLBgwSlTpjz22GO7d+9+8cUXr169Kun69evPP//89r++7SJTSU7WtGmaPVuFdTFawZX1u6TDqtBI6z7qUtScDQAAAMBFduzQlCnm4Jo1st8tkz+/Am/+6vF0E1mP5mvVStOny8MjNQMAAMANuL6b7Ofn55fWX9Nv377d1kqWNGjQIE9P5zupN23atHPnTtvlxIkTw8PDJVWpUiU+Pr5Pnz7W+I4dOzZv3ly/fn1bZqYzcaJeeUX5dXWtQh/WfknncpZe0HX93LYBISHmZAAAAAAZLzFRhw9r3TpzvGBBPfusfHzsQidOKDREly9L0jPPaP58ebv+hzUAAAAT5/1ZVxk/frxtXKRIke7du6fOpW/RokW2sYeHR5s2bWyX7dq187D7u337zMxo5Url0fVINa2pPZJOq8Tu9759dUZZWskAAACAO/jlF5Upo6pVNWqUQ9zPTx984NhKPn9eISH64w9JqllTy5YpVy67aQAAAHfhpt3ko0ePfm09EliS1K9fP19fX7v5dNlvTC5dunS+fPlslwUKFChZsqTt0j4zczl5Un37asemmysU9qS2SbqgIh0LRz/RuaI5FQAAAICLjB+vv77MpX59Xb6sLl3sQrGxatJEhw5JUuXKWr1adj/FAAAAuBU3/fDUpEmTkpOTrWNfX99+/fo5zqfr2LFjtvFf39rn7+8fExNjHdtn2ktISEhISLCOY2NjJVksFov1PRjuoXlz74M/316m1s9qg6QrKtC/8lczV5TPm9etvkw3Yq0L1bkDSuQUJXKKEjlFiZyiRE5RIqfuUCLDMNKMA/fKuXP6+WcZRmpk9+7UsU1oqOOu5Fu31LKl9uyRpFKlFB2torwEBQAAuC937CZfvnz5k08+sV1269at6F0/UV27ds02/ut25ty5c9vG1jfy/dXYsWPffPNN+0hUVJT9Qte6ejXnrz83WqhOTbRGUpz8GmtNp77xv/0W9dtv5mTYi46ONofgiBI5RYmcokROUSKnKJFTlMipNEtkGMYN68vNgPtg2TK1a6fERHPcXo4catpU/fvbhRIT1amTvvtOkgoXVlSUypSxmwYAAHA77thN/vjjj+Pj461jT0/PQYMGOc7fLcN+Y0A6kb8aMWKE7XeMjY0tXbp0SEiI/YkZGS862mPqVE/rCzlu3fKYqZ6t9bWkePk218qkmrXKll0ZHBzs47DJAaksFkt0dDQlugNK5BQlcooSOUWJnKJETlEip+5QIsMw0ttMAPx7777rpJW8Zo1CQx1DhqE+fbRsmSTlyaPVq1W1qmMGAACA23G7bnJCQsKUKVNsly1btqxUqZLdvBP58+c/f/68dXzz5k3HSYdIgQIF7GZS5cyZM2fOnPYRHx+fv/5AkmH++EMtWzo8my5W20760kPGf7Ssz7wGTZpYNm928ReZKVAipyiRU5TIKUrkFCVyihI5RYmcSrNEhmH8NQj8SwkJ+u47nTungwfNU/Y8PfXoo44hw9DQobJ+IjNHDi1bptq1HTMAAADckdt1k+fNm3f27Fnb5dChQ+0mnQsMDLR1k20Dm3PnztnGgYGBdjPua8sW8zaHSDVrplV5dON4pZDnnhMHAAIAAAAZzzDUuHHKMRX2ihRxOBnZ318jR8r8Spf33tPEiZLk6an589WokeM0AACAm3KvbrJhGJMmTbJdPvXUU3Xr1rWbd6527drbt2+3jmNiYq5du5Y/f37r5ZUrV/744w/7TNvYPV25opdf1qefmuOSvlWQpA9eNMcBAAAAZIx9+9JoJUv64QdVqGAOOpg5U8OHp4ynTVObNg6zAAAAbszTHHCpyMjIX3/91XY5ZMgQu8lUx48f97Dznd1DXLt27WxjwzAWL15su1y4cKFtLMdM9/TSS+ZW8iOPaMYMzZihmTO1Y4cGDHCYBQAAAJABrl7V3LmO79P7U8mScvIZyCVLFBGRMh47Vr17O8wCAAC4N/famzxhwgTbuHLlymFhYXaTd+Xpp5+uXbv2zp07rZdDhw7NlStXrVq1du3aNWzYMFtanTp16tevb7t0T1u2mCN16/K0CQAAALhSUpIaNtRPPzkEfX1VtarKlNHo0fK8w46ddesUHq7kZEkaMkR2P6EAAABkCm7UTd69e7f9LuNBgwZ53ulBLF1z5sx54oknbty4IenKlSudO3c2Jfj5+c2ePdsUdBPz5mnCBF26JEl2x3JIUt686tPHIQIAAAAgg+3ZY24lS3r8cW3YYA6a7dih//xHt29LUo8eeu89eXiYcwAAANybG3WT7Tcm+/v7d+vWzW7yb6hWrVp0dHSbNm3OnDljnpNKlCixZMmSatWqmSfcwMmT6tLFHLQaPVoRESpWzBwHAAAAcL9dvao5c3TypCQdP26alKSQEHPE7MABNW2qGzckqWVLzZhBKxkAAGRG7tJNPnnypP0Zx/369cuVK5fd/N9Tt27dQ4cOTZs2bcWKFQcOHLh69WqBAgWqVq0aFhYWERHh5+dnXuAe/jyfw8zTUy++qMKFzXEAAAAAGaBZM23dag5ahYXp6ac1cKA57uDkSYWEpHwCsUEDffWVvN3lBzEAAIC/xV0eYsqUKWOxWMzRdJQrV84wDHPUkZ+f35AhQ9J7j59bMQyNGaPp03XhgnnK6oUXaCUDAAAArvHHH+m2koOCtHy5OWh24YJCQhQTI0mPPaYVK/Qv9s0AAAC4lrt0k7OzrVs1apQ5WKuW3n5bkkqXVtWq5lkAAAAAGeDaNUVEmIM2rVqZI2ZxcWrSRAcPSlLlylq9WvnymXMAAAAyD7rJLmYYaR9wUbu2QkPNQQAAAAAZqXNnrVyZepkrl6wv+fby0tNPq1On1Kk03Lqlli21e7cklSypqCj5+5tzAAAAMhW6ya70zjuaMEFXrpjjxYppwABzEAAAAEBGSkrS6tUOkcBAzZzpEElXYqI6ddKGDZJUqJCiolS2rDkHAAAgs/E0B5BRfv1Vr75qbiWHhWnnTp04oSpVHOIAAAAAMlJSkoYNU1KSQ7BLF4fLdBmG/vtfLVsmSXnyKDJSDz5ozgEAAMiE2JucoQxDsbEp4x9+cJiyeuop1aplDgIAAADIYB9+qIkTHSLz56tjR4dIuoYP15w5kuTjo6+/1uOPmxMAAAAyJ7rJGWfTJoWH648/zHGb6tXVo4c5CAAAACDjffutw2W+fOrYUR4eDsG0vfee3ntPkjw89MUXCg42JwAAAGRadJMzTv/+6baSK1RQVJQCA+/u8RQAAADAPXXrloYM0fr1SkxMicTEOCT07Xt3z+qzZ2vYsJTxtGlq185hFgAAIJOjm+zcqVPKm9ccvBuengoIkKenDENnz2rfPnOCTevWKl/eHAQAAACQMcaP19Sp5qBNnz4aO9YcTMPSperTJ2X8zjupYwAAgKyCbrJz1aqZI3cvIEDTpmnkSO3fb56yqV5dL71kDgIAAADIMNu2mSP2unW7i43J336rTp2UnCxJgwZp+HBzAgAAQOZHN/n+On1aYWHmoKRff03Z7+zjo2LFzLMAAAAA7oeEBL34or7+WrduOcRv3nS4tNegwV28RW/XLrVsqdu3JalbN40ffxftZwAAgMyHbrILlCypKlV4vAQAAAAy2iefaNYsc9Bk6FA9+WTKuEgRPf64vLwcEsx++01Nmuj6dUkKC9OsWfL0NOcAAABkCXSTM1qxYpo+nVYyAAAAkHEMQzduyDC0fbt56q86dFDNmuZguk6dUkiILl6UpAYN9NVX8uaHLAAAkGXxoONcTIzy5TMH72zfPtWrZw5KmjlTzz9PKxkAAADIOLt3q317HT1qjqepbVs99pg5mK6LFxUSolOnJOnRR7V8uXx9zTkAAABZCN1k5/LmTTnj+O7VqCFf3zQOX6tXj1YyAAAAkKEGDUq7lTxwoDp2dIgULarAwLt+Yo+LU5Mm+u03SapUSWvWKH9+cw4AAEDWQjf5vsiTR7Nna9gwxcSkRAoX1pAhqlLFIQ0AAADIeg4flp+fOXhvWSz64488hw7Jx8c89Vf79pkjVo0a3cXr9dKTkKD//Ee7dklSQICiouTvb84BAADIcugm3y+dOqlTJ3MQAAAAyPL+xqHD/5yP1Mgc+zvatVNIiDl4t5KSFB6ub7+VpEKFFBWlcuVMKQAAAFkS3WQAAAAA2cXWrSpZUnnzqmBB89TdMgxFRGjpUknKk0eRkXroIXMOAABAFkU3GQAAAEC2ULCgatW6q8Mx7mTECM2aJUk+Plq69F8clgEAAJD5eJoDAAAAAJDlBARo9ux/3UoeP17jxkmSh4fmzfsXh2UAAABkSuxNBgAAAHAvXbyofPnMwXvLYrGsXr26SZMmPnfdHvb2loeHOfj3zJmjV15JGX/0kdq3d5gFAADIBugmAwAAALiXfHz+9Rbgu+DtbWTMb5Ri2TL17p0yfvttRUQ4zAIAAGQPnHQBAAAAAHe0YYM6dlRysiQNHKiRI80JAAAA2QPdZAAAAAC4o/HjlZAgSV27auLEf31kBgAAQGbFSRcAAAAAcEeLF6ttW3l7a9YsebIjBwAAZF90kwEAAADgjnLn1vLlSkzMwHOaAQAA3BHdZAAAAABwJkNf+QcAAOCm+JQWAAAAAAAAAMA5uskAAAAAAAAAAOfoJgMAAAAAAAAAnKObDAAAAAAAAABwjm4yAAAAAAAAAMA5uskAAAAAAAAAAOfoJgMAAAAAAAAAnKObDAAAAAAAAABwjm4yAAAAAAAAAMA5uskAAAAAAAAAAOfoJgMAAAAAAAAAnKObDAAAAAAAAABwjm4yAAAAAAAAAMA5uskAAAAAAAAAAOfoJgMAAAAAAAAAnKObDAAAAAAAAABwjm4yAAAAAAAAAMA5uskAAAAAAAAAAOfoJgMAAAAAAAAAnKObDAAAAAAAAABwjm4yAAAAAAAAAMA5uskAAAAAAAAAAOfoJgMAAAAAAAAAnKObDAAAAAAAAABwjm4yAAAAAAAAAMA5uskAAAAAAAAAAOfoJgMAAAAAAAAAnKObDAAAAAAAAABwjm4yAAAAAAAAAMA5uskAAAAAAAAAAOfoJgMAAAAAAAAAnKObDAAAAAAAAABwjm4yAAAAAAAAAMA5b3MAdgzDkBQbG2uecCcWiyU+Pj42NtbHx8c8B0mU6C5QIqcokVOUyClK5BQlcooSOXWHEhmGYX2osz7g4T7JsOfnO/xZZ3NUJj1UJj1UJk2UJT1UJj1UJj1UJj3uX5n0np/pJt9JXFycpNKlS5snAAAAkDldv37dz8/PHMU9wvMzAABAFmN6fqabfCcBAQGnTp3Kmzevh4eHec5txMbGli5d+tSpU/ny5TPPQRIluguUyClK5BQlcooSOUWJnKJETt2hRIZhJCUlxcbGFi9enO3J90+GPT/f4c86m6My6aEy6aEyaaIs6aEy6aEy6aEy6XH/yqT3/Ew3+U48PT1LlSpljrqlfPnyue3N5yYokVOUyClK5BQlcooSOUWJnKJETqVZIsMwkpOT8+XLl5ycnJSUZJrFvZLBz89p/llDVCZ9VCY9VCZNlCU9VCY9VCY9VCY97lyZ9J6feQsfAAAAAAAAAMA5uskAAAAAAAAAAOe8Bg8e7OXl5WnHw445HW7Jy8urYcOG3t6cW5IuSuQUJXKKEjlFiZyiRE5RIqcokVN3KJH1uDfjT8l/SvrTl2u3Gkay57UYSS+99JJ5PdzMHf6sszkqkx4qkx4qkybKkh4qkx4qkx4qkx73r0yaz88ep0+f9vHx8fb29vb29vLy8vLysjaUrf82/xoAAABAJmR9/LX+29o7TkxMTExMtFgst2/fTkhISEhICHt5QnJSovfJHyQdOXLE/EsAAAAA2UZ6z8+cdAEAAAAAAAAAcI5uMgAAAAAAAADAObrJAAAAAAAAAADn6CYDAAAAAAAAAJyjm5zREhMTv/vuu/Hjx7dv3z4wMNDDTvfu3c3ZkqRy5crZp/1VrVq1zGvuwpYtW55//vlKlSr5+fn5+flVqlSpV69eW7duNedlOJeX6Pjx4+b1fzFkyBDzsgz0D0pkc+jQoREjRtSpU8ff3z9Hjhz+/v4PPfRQx44dp0+ffvnyZXO2M1npLrK5JyXKeneR0//KrMqVK2de6UyWuYvueYmy3l1kde7cuXfeeefZZ58tWbKkr6+vj49PwYIFH3300b59+27ZssWcfXeyzF1kdQ9LlFXvotjY2A8++CA4OLh48eI5c+YsUKDAI488Mnjw4KNHj5pT79qePXveeOMNcxT3zj/7s7bK2t+a/25l7vm3Gxt3+3+pyyuTZe4Zq3v4zcXGre4Zl5cli90w9+NbrVvdMHKDyrjnPXPlypUVK1YMGTLk6aeftv13UbRo0Xr16r3xxhsxMTHmBXb279/fv3//Bx98MH/+/L6+vuXKlQsPD4+MjDTn3TW3umfcoTJudM+cPn36woULV65ciYuLi4+PT0hIsFgsiYmJ1nf24Z47duyY+c/gT926dTNnG4ZhGGXLljWnOqpZs6Z5zR1ZLJZevXqZf5U/9e7dOzEx0bwmA7m8RHf4AmwGDx5sXpaB7vAVplciwzAsFsvAgQO9vb3Na/70zTffmNekL+vdRcY9LdEdvgCbzHUXOf2vzKps2bLmlenLYnfRPS/RHb4Am8x1FxmGsXjx4jx58piz7XTp0sVisZiXpS+L3UXGvS7RHb4Am0x3F61fv75EiRLmbElSjhw5Jk+ebF7wp+Tk5MTERIvFkpCQEB8fHxcXd+XKlQsXLpw8+f/t3XlclNX+B/AzC4GA4oJeRAQhV9LSXEo0TDBxRU1IylQUq6uvyuXaTxJLKxH1asv1mnVRI3sV7t0QE/OquOVGV0FMDAw1BUNckCUGZvn9MdfT8czCAA/MM4fP+49ez/ec8wzwna9zTs88y7WoqCjjK3QKner77EsBAQEBAQH8/lA/dXivDU1jarbyi5nNjOTTjUGun6V2z4yVX4ByiJoxSD25GGRZM3ZPi5VfgHKUgqnzVGuJDAvGIIPMWPkFqMavmebNm/O/BMPV1XXTpk38PgaDwWB45513VCoVvwMhhJCxY8eWlZXxO1glw5qRQ2Yav2YsrZ9xbnJTNHPmzA0bNvCtDyQmJlr5RwsOSq/XT5gw4eOPP9ZqtXxfnYhXRZKnqGlq164d32SZeFVki1qlSDC5ubmTJ08uLy/nOxhfffXVihUr+FbLBKuihkiRYDIyMsaMGVNYWMh3EEIIqaqqmjt37qeffsp3WLVgwYItW7bwrSADmJrro1bTjWCfpdbVKjNiaIjJRYCaaYi0iKEhploBCoY0TGZkSK/X802MioqKmJiYtLQ0rn3p0qUffPCBTqfj2o12794dHh5uMBj4DstkWDMyyYxM4GiyHbRt23bkyJHvvPNOSkqKt7c3321Zhw4d8s3ZvXs3P9SyPXv2fPnllzSMjIz86aefMjIyIiIiaGNSUtLevXtp2PjsmyLWxIkT+dfKz8/Pz4+Li+OHNq7apig+Pj41NZWGgwYN+uabb06fPp2dnZ2WlrZq1aohQ4Y4OTkxe1gjZBVJmyKWGFV07Ngx/g/Iz8/Pz9+0aRM77PXXX2dDK8SrIslTxBKjipKTkzUaDQ3Hjx//448/Zmdnr127lv3HlZSURLetE6+KJE8RS4wqmjdv3h9//GHcdnV1Xbt27fnz548ePTpq1Cg65q233rp69SoNrdu/f/+2bdv4VmgYtXqvSVOammuVGcmnGzl/lto3MyyHrhnJJxfZ1ox908Jy6IKRfKqVbcEQe2eGJbeaCQ0NXb9+fUZGxvnz57/88kt/f3/aZTAYuJuDZWZmxsfH03Do0KHHjx/PysqaPXs2bTx48OBnn31GQ+vkXDP2zQzLzjWDO100Mi6x7AVZli6moGNsvyzLiqFDh9Kf+Oijj9Ird6qqqtibiIWEhDy8X+Oxe4rymWsHLP1E+6ptioqLi11dXemYefPm8SNqSbwqkjxF4lWRJWFhYXRHHx+fqqoqfoQF4lWRJXVOkXhV9Nprr9EBzZo1q6yspF0zZsygXS4uLsxO1ohXRZKnSLAq4s4GWrx4Me0qLy9v3bo17Vq4cCGz3/+YvVJv8ODBdK+OHTviThcNp1bvtaEpTc21zYwldZ5uZPtZavfMCFMzkk8u8qwZu6dFjIKp51RrljwLxiCDzMizZiIiIrKysrjGq1evcvd5KC8vp73Tp0+n7S1atLh37x7tCgoKol2dO3fmcm6JPGtGDplp/Joxu37GnS7sQKFQ8E02Kyoq6tmzp5ubm4uLi4+Pz7hx47766qvq6mp+nGXFxcXp6ek0HD9+PL0PnZOT0/jx42nXoUOHbt++TcPGZN8Ucfbt2+fv7+/s7Ny8efOuXbtOmzbt0KFD/KBGV9sUbd68uaKiwrjt5+e3cuVKQsi9e/cKCwvZL+RtJGQVSZsijhhVZFZ2dva+ffto+Oabb9p4jpiQVWRWnVPEEaOK2K/uVSoVmwoXFxe6zS7lrRCyiqRNEUeAKuJO9nn88cfptqura+fOnWm4a9cuum3F7du32YcshYSEMJ0gsVq916QpTc21zYxZdZ5u5PxZat/McBy6ZqSdXGRbM/ZNC8dxC0byqVa2BUPsnRmOfGpm+/btvXr14hp9fX2feeYZtqW0tNS4odfrd+7cSdufe+45Dw8PGr7wwgt0Oy8v7+zZszS0RLY1Y/fMcOxbMzia7Ej++OOPCxcuGE8hv3HjRkpKytSpU/v37/+rzQ8PzcjIMDA3ZHnssceYTtKzZ0+6bTAYMjIymE7HUP8UcW7evHnlypWqqqqysrLc3NzNmzeHhIRERUXRK1wcAvuZEhQUFB8f7+fn16pVK29vbzc3twEDBnzxxRdsYVgnZBVJmyKOGFVk1urVq+l2ixYt2FM8rBOyisyqc4o4YlTRtGnT3N3djdtlZWVz5869efNmRUVFamrq5s2b6bBZs2bRbSuErCJpU8QRoIrY/70nhLCTu06nu3btGg3z8vLu3btHQ0vOnTvHVtGjjz7KdIKdYWqulTpPN0J+lrLqnBmOQ9eMtJOLMDUjbVo4jlswkk+1whSM5JnhyL9m2PfR1dWV3oP+l19+uX//Pu2y8hYTQs6cOcOGZjlczTRaZjj2rRkcTXZ4mZmZYWFhJSUlfIc57FnxxOQZFFzIDXZctUqRLbZu3Tpt2jS+VcaysrLo9tatW9977z062+l0ujNnzsyYMWP06NE2nukjZBVJmyJbOFwVmSooKEhOTqbhq6++2qJFC6bfGiGryFR9UmQLh6siLy+vffv2+fj4GMO1a9e2b9/ezc3N+CxjQohSqYyNjX3jjTce2s0CIatI2hTZwrGqqHv37uw/otWrV3///ffl5eU3btx4/fXXb968SbsMBsONGzdoaAl3nhF7mSrYHaZm29VnuhHys5SqT2Zs4Sg1I+3kIkzNSJsWWzhEwUg+1QpTMJJnxhbyqZlr164dPHiQhpMmTaJndkv+Fkv+gg2qMTNji0arGRxNdgBKpTI4OPjvf//74cOHL126dPjw4UWLFrHfjOXl5X344YfMHhZxR1SbNWvGhuzN6Qghdfg+zV4kTJGRs7PzxIkTExMTT58+nZOTk5aWNmnSJHbA9u3bG/Mignpir/7QW3gO6d69e+fMmcO3miNkFUmbIiPBqsjU2rVrq6qqjNtOTk61So6QVWSqPikyEq+KgoKCjh492r9/f76DkNatW3///fcJCQlKpU2LE1GrSMIUGYlURc7Ozuy/o+Li4tGjR7u7u/v4+Jg+vcSWb5HZE0aIyWlHYA8UQ7IAABjISURBVF+Ymm1Xn+lG1M9So/pkxkiYmpFwchGpZiRMi5EABSP5VCtMwUieGSOHqJny8vKoqCj69a2Hh8c777xDeyV/iyV/wYbTyJkxkknN/O/mIyBnR48e7dChAw27du0aHBw8aNCg0aNH08bk5OT33nuPhjbiLg+s89WCdidtiry8vG7cuNGmTRva0q1bt7CwMD8/v1WrVtHG5ORk9t7wcsadttOzZ88vvviiR48emZmZ06ZNy8vLM7YnJibGxcV17NiRHVwjMapI8hSJV0WcsrKyzz//nIZRUVH0zI46EKOKOPVPkZBVtGbNmtjYWK1Wy3cQcufOnREjRkRFRW3YsMHNzY3vrokwVSRtisSronfffTc3N3fLli18ByFKpZI95liHQ8OOWzZCwtRso/pPNyxhPkuJFJkRqWaknVxYDl0z0qZFmIJpzKnWsQpG8sw4RM0UFxePHTv25MmTxtDFxWXnzp3sbcc5kr/Fkr+gVOySGfnUTC2+ZwN7YY+TUqNGjXryySdpmJubSx9UYgV7z29CCHc7FS5s2bIlG8qZhCkihLi4uLD/OKm4uDg2PHfuHBvKGXdN39q1a/v16+fm5hYUFLRmzRrartfrDxw4wAw0T8gqkjZFRMQq4mzcuPHu3bs0XLBgAdNZMyGriFPPFBERqyg5OXnBggX0/9leeeWVH3/8MTs7OzExkf6lW7ZssfHiLCGrSNoUERGrSK1WJycnb9u2bciQIc7OzsbGVq1azZw5c926dexIs384h/vwr6ysZEOwL0zNNqrndCPkZ6lRPTNDBKoZaScXYWpG2rQQgQpG2qlWmIIhUmeGOELN5OXlDRw4kB4wdXd33717d2hoKDtG8rdY8hdsCHbJDJFTzeDcZAcWEBDw3//+l4b37t3jTpU3xX1PUlRUxIa///47G1r5UsVR1CFFVrRo0cLT07O4uNgY2n4lgt35+Piwl4v27duXbvfr149uE0IKCwvZ0Cwhq0jaFFnhuFXE0ul0H3/8MQ2HDx/OPtTYFkJWEav+KbLCcauIveNQSEjIv/71L+P2Y4895uLiMmXKFGO4c+fOX375pWvXrnSwWUJWkbQpssJxq8goMjIyMjKyurr69u3bSqWybdu2CoXi/fffpwNatmzp6+vL7GGen58fG965c4cNwb4wNdui/tONkJ+lRIrMWOFwNSPt5CJMzUibFiscrmCMpJpqhSkYSqrMWCGTmjlx4kR4eDj9Nby8vFJTU9np2Ejyt1jyF5ScvTJjRePXDM5NdmDsU0QJIa1atWJDs/r160fvCE4IuXDhAtNJzp8/T7cVCgW3UndEdUiRFffv36f/OIlDPauHeyt1Oh3d5i7sat68ORuaJWQVSZsiKxy3ilg7duy4cuUKDd96660/+2wjZBWx6p8iKxy3inJycug2e+0IIaRPnz5smJ2dzYZmCVlF0qbICsetIpaTk5OXl1e7du0UCoVer//6669p15AhQ9jysKR3797ssMuXLzOdYGeYmm1R/+lGyM9SIkVmrHC4mpF2chGmZqRNixUOVzCs+k+1whQMp/6ZsUIONbNr166QkBD6awQGBp48edL0gCkhpGvXruzlRFbeYkKI2duUc2ReM3bMjBWNXzM4mix3q1at2rRpk+m9nPbu3cuedRsYGMje0js6OlrxwLPPPkvbPT092fDf//53dXW1cbuqquq7776jXUOHDjV7/rwMSZsiQsjMmTPT09PZFqP4+Hg2NPt5IU8TJkxgw2PHjpndJoQ88cQTdNtSioSsImlTRESsIhZ7iXHv3r2HDRvGdD7EUoqErCJW/VNERKwiJycnun327Fmmh78aS6VS0W1LKRKyiqRNERGxivR6PbtWpt59991ffvmFhrNmzWI6/5cipVKpVqvZixDbtGkzaNAgGrKP5Aa7w9Rsi/pPN0J+lhIpMkMEqhlpJxdhakbatBCBCqY+U61pZoQpGCJ1ZoiMa+bjjz+OjIykdwALCQk5fvw4d0UXpVQqJ06cSMP9+/ezJ8Zu376dbnfu3Jn9qsZSZuRcM/bNDJFTzeBOF3bAfk/OHgMtKyujXS4uLl5eXoSQgoKChQsXLlmyZMqUKSEhIR07diwqKtq3bx+7QiKETJ8+nQ2t+Nvf/kYf7/jrr7++9NJLb7/9tsFgSEhIuHr1KjuMbjc++6YoIyNj48aNffv2ffHFFwcOHNimTZurV68mJSUlJyfTMQqFIjo6+s99Gl2tUjRy5Mju3bvTr99nz55dWVkZGBiYmZk5f/78B7uSRx99NCgoiIZWiFdFkqdIvCqiDh8+fObMGRrW4S6ERuJVESVVisSrov79+//www/GxgMHDsyaNSs6Otrd3f3UqVOxsbEPdiUKhcLGBZB4VSR5isSroqqqKl9f34iIiDFjxgQGBjo5OeXm5iYmJqakpNAdhw0bFhYWRkPrZs+eTQ9NXr9+vVO3h7tBUrV6r5vU1FyrzFBSTTdy/iy1b2aEqRnJJxfZ1ox90yJMwUg+1cq2YIi9MyPPmpk7d+4nn3xCw9DQ0PXr19+7d4+7eYKXl5fLg4cNzpkzZ/PmzcariEpLSydMmBAfH9+8efP169efOHGC7jJv3jyFbWdty7Nm5JAZGdVMQUHBrVu37t69W1paWlFRodFoqqurtVqtXq83QMPg3wNzhgwZYhw8Z84cvs/EgAEDKisr2R/BPiuAvpTZXrOmTZvG7dLI+F/InIZLEXuGiyVz5sxhd2l8/C9kDvt3nThx4pFHHuFHMNRq9b59+/78AVZTxPWa5VhVZJA6RUJWkdGYMWNob8eOHaurq7kBLCsp4nrNcrgqMpIqReJV0X/+8x++z5zJkyezP8JKirhesxyriiRPkXhVxD2xxFRAQEBhYeFDP+DhFAUHB2s0moqKitLS0rt37966deuFF16gvZ1Cp/o++1JAQEBAQAD3IlB/NM9WNM2pmf89zDH9AJRquuF6zbLXZyn/e5hj+udIlRlhakbyyYXrNcsuNcP/EuY0XFqEKZj6T7WOUjAGe2dGnjXD/wYWHDp0iN1ryZIl/IiHDR06VKfTsbtYyQzXa1bj1wz/G1jQoJlp/JrR6/Varba6uppbPyv5HwsyU+Od4MaOHbt37176RFFbbNiwISYmhm99ICYmZsOGDXyrjEmeIusvqFKpFi1a9NFHH/Ed8vb000+npqZaunuOh4fHtm3bhg8fzndYJlgVEalTJGQVEUJycnL27NlDw7lz56rVdb/GRbwqIpKmSLwqCg0NTUxMZG86ZGrcuHGff/4532qZYFUkeYrEqyLrhg8ffvLkSe4sxRqtXr160qRJfCvIAKZmKyScbohYn6USZkaYmpF8ciFC1IzkaRGmYKyr21QrQMHUqA6ZEalmli5dunjxYva2MKwxY8bs3r1bqazFEUhhakbazMinZuo4s0Kj+eCDDyIjI7///vvjx4/n5OQUFhZWVla6ubl17Nhx4MCBU6ZMCQ4O5vepiVqt3rBhw/Tp0zdu3Hj48OGbN28SQtq3bx8cHBwTE8PeQNAhSJ6i9PT09PT0/fv3nz59Ojc3t7i4WKvVenh4dOnSZciQITExMV26dOH3cQTPPffc5cuX161bl5qampubW1JS0qJFi+7du48cOfK1115r27Ytv4NVglWRkYQpErWKPvzwQ8ODb2U9PDxeeeWVh/trR8gqkjBFQlbRzJkzR4wYkZSUdPDgwZycnLt372q1Wnd3dz8/v/79+7/00ktDhw7l97FKvCqSNkXiVZGzs3NSUlJ6enpGRkZRUdHdu3ddXV2N73hUVFStkkOp1eqVK1eOHz9+69at50r5XrAvTM2WSDjdELE+SyXMjEg1I+3kQkSpGWnTIkzBNNBUK0DBSJ4ZYWrG6IMPPnjhhRc+++yzgwcPXr9+XavVtmvXbuDAgVOnTh01ahQ/uiZi1IyRhJmRT80oCgoKnJyc1Gq1Wq1WqVQqlUqpVCoUCuN/+eEAAAAAAA7IeLGe8b86nU6n02m1Wq1WW11dXVVVpdFoNBpN+LzVep1Wfe0kIeTy5cv8SwAAAAAANBmW1s+2nk0NAAAAAAAAAAAAAE0ZjiYDAAAAAAAAAAAAQM1wNBkAAAAAAAAAAAAAaoajyQAAAAAAAAAAAABQMxxNBgAAAAAAAAAAAICa4WgyAAAAAAAAAAAAANQMR5MBAAAAAAAAAAAAoGY4mgwAAAAAAAAAAAAANcPRZAAAAAAAAAAAAACoGY4mAwA0nujoaMXD0tPT+UHievPNN9m/fc+ePfyIutJoND4+PvSV27dvX1payg8CAAAAAEeD9TP7t2P9DABygKPJAAA16NSpE7OEq4ulS5fyL9r0XLhwYf369TQcMGDA6NGjmf56cXZ2jouLo+HNmzfj4+OZfgAAAABoPFg/SwLrZwCQJxxNBgCAxhAbG6vVamm4cOFCplMCM2bMaNeuHQ0/+eSTGzduMP0AAAAAAI4E62cAkCccTQYAgAZ35syZ1NRUGvr7+48bN47pl4Czs/OsWbNoWFlZuXz5cqYfAAAAAMBhYP0MALKFo8kAAI0nLi7u6MP69OnDDxJRQkICG86cOVOlUrEtkpg5c6ZS+ee8tmnTpuLiYqYfAAAAABwM1s9GWD8DgHwoCgoKnJyc1Gq1Wq1WqVQqlUqpVCoUCuN/+eEAAE1PRkZGZWUl30rIG2+8ce7cObZl+vTpM2bMYFuMfH19fX19+dYm48qVK507d9bpdMZQqVRevXrVx8fn4VHSGD58+P79+2m4bNky9n5wANCUGQwGvV5v/K9Op9PpdFqtVqvVVldXV1VVaTQajUYTPm+1XqdVXztJCLl8+TL/EgAAYBusn+sJ62cAkANL62c1PxAAAB7Wr18/vokQQoiHhwfX4uvrO3jwYK4RkpKS6FKYEPLUU0810FKYEBIREcGuhjdu3IjVMAAAAEAjw/q5nrB+BgA5w50uAAAaT3R0NPe46vT0dHZAeno6NyA6OpoQUllZuXbt2kGDBnl6ejZv3rxXr16LFy/+/fff2X0vXrw4e/bs7t27N2vWrHXr1kFBQWvWrPnjjz/YMWbl5+cnJCSMGjXK39/fw8PD2dnZ29s7KCho8eLFFy5c4EfX3tdff82G1u/4ptFovvnmm5dffrl3795t2rRxdnZ2cnJq2bJljx49Ro4cuXDhwu3btxcVFfG7PRAeHs6G+fn5P/74I9sCAAAAAA4E62eC9TMAyAzOTQYAkLsLFy5ERETk5OTQluzs7Ozs7M8//zwlJWXgwIGEkI8++uj//u//6EOfKysrT5w4ceLEicTExB9++MHSdYK3b9+eM2fOli1b2HMfCCGFhYWFhYUnTpxYvnx5VFTUunXrWrVqxQ6w3cWLF/Py8tiW0NBQNmQdOXLk5Zdf/u2337j2kpKSkpKSnJyctLQ0Y8uBAwdCQkIeHkUIIV5eXoGBgT///DNtSUlJCQoKYoYAAAAAgOCwfsb6GQAaDs5NBgCQtStXrgwbNoxdClPFxcVhYWHXr19PSEiYP38+XQqzLl269Pzzz5vtOn/+fJ8+fb7++mtuKcwyGAzJyckDBgzIz8/n+2zDXjdHCHF3d7f04JSLFy+GhYWZLoXNqqqq4pseeOaZZ9jwhx9+YEMAAAAAEBvWz2Zh/QwAUsHRZAAAWTt8+PDNmzf51gdKS0vHjh27ePFivoPx008/bdmyhWssLCwcNWqUjUvPvLy8cePGlZeX8x02OHnyJBv27NnT0tOoly1bZvZpLbX1xBNPsOH58+dtuVwRAAAAAMSA9XNtYf0MALWCo8kAAA5gxIgRO3fu/Pbbb0ePHs11nTt3Tq/XK5XKN998My0tLSkpyc/PjxvD3XmNEDJ//vzr16+zLW3bto2Li9uxY0daWto//vGPbt26sb3nz59ftmwZ22Ij7rHdPXr0YEPWoUOH2NDb2zshISElJeXQoUO7d+9ev379G2+80adPH6WyhpkrMDCQDbVabXZ2NtsCAAAAAMLD+hnrZwBoILhvMgCA3E2YMGHXrl3G7TFjxvj7+3MLWULIJ5988vrrrxu3+/bt26tXL7b39OnTbHjp0qWtW7eyLV26dDly5IiXl5cxDAsLe/XVV4cMGXLq1Ck65p///GdsbKzpk7itu3LlChtaeRp1cXExGyYnJwcHB7MtRsXFxTt27OjQoQPf8YDpj8jPz+/fvz/XCAAAAACiwvqZhfUzAEirhm+oAADA7latWkW31Wq16TMxOnXqNHv2bBr27NmTO73izp07paWlNPzuu+8MBgPTT5YuXUqXwkbOzs50eW1UVlZ24MABtqVGJSUl3FVy7dq1Y0NWy5Yt2fDSpUtsSHl6ev71r3/llvustm3bci2FhYVcCwAAAAAIDOtnFtbPACAtHE0GAJC1bt26de7cmW3x9vZmQ0LIiBEjuOvXTMeUlJTQ7aNHjzI9hBAyefJkhYkpU6Zww44cOcK1WFdWVsa1NGvWjGuhBg8ezIavvvpq7969Y2JiVq5c+e233168eNHK005Yrq6uXEvd7lgHAAAAAI4I62esnwGgQeFOFwAAssbdf42YW+117dqVa3nkkUe4Fvax1HU+16CgoIBvqiXunA5WbGzs7t272d8zMzMzMzOThs2bNx88ePCLL744adIk0z+QsvIjAAAAAEB4WD/TEOtnAGgIODcZAEDWTO+z5uTkxLW0aNGCa7GOPc+iVu7cucM3WWW6cLfyeOgBAwbs3LnT9Do7qrS0dO/evVOnTn388ccvX77Mdz9g+iPc3Ny4FgAAAAAQFdbPFNbPANAQcDQZAEDWanwEMyFEpVLxTVZxd1izHXvigy1atmzp7OzMtty6dYsNOeHh4fn5+Zs2bZo4cWL79u357gcuXbr0/PPP6/V6voMQQkhRURHXwt3SDgAAAAAEhvWzKayfAUBCuNMFAECTY7o63Lx5s7+/P9doyvRED+sUCkWnTp3Y54GYPk2b4+bmNn369OnTpxNCSkpK8vLy8vPzz549+9VXX/322290WFZW1vHjx5955pk/93zA9EfY8qcBAAAAAFiC9TMAAIWjyQAATc7gwYNTU1PZlqKiItNnhnC0Wq1aXetZ44knnmBXwxcvXmQ6a+Dh4dG3b9++fftGRETMmDGDe5rK2bNnza6Gf/75ZzZUqVQ9e/ZkWwAAAAAAagXrZwAAquYLQAAAQDDh4eEKhYJtef/990+dOsW2sLKysubPnz9gwAC+wwZPPfUUG2ZnZ1u6wm7FihW7du3SaDR8ByHE3N3cKioquBYj9sEjhJBevXqZ3n4OAAAAAMB2WD8DAFC1/pYMAAAcXY8ePSIjI7dt20Zb7t+/P3DgwFGjRo0ePdrHx8fNze3evXtXr17NzMw8dOjQtWvXCCF+fn5/voTNnnvuOTYsKys7d+7ck08+yTYapaenv/32266ursHBwX379u3WrZunp6erq+v9+/ezsrI+/fRTbnyHDh24FqOjR4+yYVhYGBsCAAAAANQW1s8AABSOJgMANEUffvjh8ePHb9y4QVsMBsOePXv27NnDjJJAr169/P398/PzacvBgwfNroaNKioq0tLS0tLS+I6HqdVqs8vcwsJC7mLA8PBwNgQAAAAAqAOsnwEAjHCnCwCApqhDhw579+7t2LEj39EAJk+ezIYpKSlsWDdLlixp164d32ry4v7+/kFBQWwLAAAAAEAdYP0MAGCEo8kAAE1Ur169MjMzo6OjnZyc+D4TTz/99Lvvvsu32mbGjBlK5Z/TzfHjxwsKCpj+//Hx8eHuRmeWu7v76tWrFy9ezHcQQgjZsWMHG8bExLAhAAAAAECdYf0MAEBwpwsAgKasVatWX3zxRXx8/NatW48dO5aVlXXnzp2SkhIXF5eWLVsGBAQEBgYOGjQoNDTU29ub39lm/v7+48aN+/bbb42hXq/fvHlzbGzsw6PIhg0bli9fnp6enpGRkZWVlZ+f//vvv5eXlysUCjc3N29v78DAwNDQ0IiICE9PT25fo99+++3gwYM0dHFxee2115h+AAAAAIB6wfoZAEBRUFDg5OSkVqvVarVKpVKpVEqlUqFQGP/LDwcAAKi9M2fOsI+0DggIyM3NZU+4kMSSJUvef/99Gs6ePXvdunVMPwA0aQaDQa/XG/+r0+l0Op1Wq9VqtdXV1VVVVRqNRqPRhM9brddp1ddOEkIuX77MvwQAAEBjwfoZAOzO0vpZ4k8iAAAAU/379x87diwNf/31V0nu/saqrKxcv349DZ2dnRctWsT0AwAAAAA4DKyfAUC2cDQZAAAaQ0JCglr95+2VVqxYwXRKYNOmTbdu3aLh3LlzO3TowPQDAAAAADgSrJ8BQJ5wNBkAABrDY489NmvWLBqeOnVqz549TH+9aDSahIQEGv7lL3+Ji4tj+gEAAAAAHAzWzwAgT7hvMgAAAACIz9J933DfZAAAAAAAU5bWzzg3GQAAAAAAAAAAAABqhqPJAAAAAAAAAAAAAFCz/wcZmMhTfzom2gAAAABJRU5ErkJggg==;" vertex="1" parent="1">
          <mxGeometry x="190" y="210" width="1903" height="933" as="geometry" />
        </mxCell>
        <mxCell id="q2DEOxzTNB3AeLY3Q0kc-3" value="" style="ellipse;whiteSpace=wrap;html=1;aspect=fixed;strokeWidth=3;fillColor=none;strokeColor=#FF8000;" vertex="1" parent="1">
          <mxGeometry x="680" y="420" width="220" height="220" as="geometry" />
        </mxCell>
        <mxCell id="q2DEOxzTNB3AeLY3Q0kc-4" value="" style="ellipse;whiteSpace=wrap;html=1;aspect=fixed;strokeWidth=3;fillColor=none;strokeColor=#FF8000;" vertex="1" parent="1">
          <mxGeometry x="1770" y="310" width="220" height="220" as="geometry" />
        </mxCell>
        <mxCell id="q2DEOxzTNB3AeLY3Q0kc-5" value="" style="ellipse;whiteSpace=wrap;html=1;aspect=fixed;strokeWidth=3;fillColor=none;strokeColor=#000000;" vertex="1" parent="1">
          <mxGeometry x="340" y="800" width="220" height="220" as="geometry" />
        </mxCell>
        <mxCell id="q2DEOxzTNB3AeLY3Q0kc-6" value="" style="ellipse;whiteSpace=wrap;html=1;aspect=fixed;strokeWidth=3;fillColor=none;strokeColor=#000000;" vertex="1" parent="1">
          <mxGeometry x="1330" y="790" width="220" height="220" as="geometry" />
        </mxCell>
      </root>
    </mxGraphModel>
  </diagram>
</mxfile>
